<svg width="1000" height="628" viewBox="0 0 1000 628" fill="none" xmlns="http://www.w3.org/2000/svg">
<g clip-path="url(#clip0_2969_48047)">
<path d="M505.849 351.377C602.741 351.377 681.287 272.831 681.287 175.939C681.287 79.0465 602.741 0.5 505.849 0.5C408.957 0.5 330.41 79.0465 330.41 175.939C330.41 272.831 408.957 351.377 505.849 351.377Z" fill="white"/>
<path d="M593.359 267.834H553.259C550.022 267.834 547.411 265.223 547.411 261.986V247.784C532.269 263.239 510.444 272.846 484.023 272.846C441.626 272.846 414.683 249.246 412.699 215.098V260.002C412.699 279.634 428.572 295.507 448.205 295.507H563.075C582.916 295.507 599.103 283.498 599.103 262.299C599.103 262.299 599.103 267.52 593.359 267.834Z" fill="#231F20"/>
<path d="M490.707 150.875H421.367C416.563 150.875 412.699 154.739 412.699 159.543V206.848C414.788 172.074 444.236 150.875 490.707 150.875Z" fill="#231F20"/>
<path d="M524.714 224.915C535.599 214.023 535.659 196.435 524.848 185.632C514.037 174.828 496.449 174.901 485.564 185.793C474.679 196.686 474.619 214.273 485.43 225.077C496.241 235.88 513.829 235.808 524.714 224.915Z" fill="#231F20"/>
<path d="M473.998 113.072C473.998 113.072 474.729 112.759 475.042 112.55C475.877 112.133 476.713 111.715 477.444 111.297C483.918 108.06 490.915 106.18 498.12 105.658C500.105 105.449 502.089 105.449 504.073 105.449C529.135 105.449 542.502 119.234 542.502 142.208V150.98H598.893V145.55C598.893 88.3231 564.223 56.4727 510.234 56.4727C490.079 56.4727 471.805 60.8586 455.514 69.6305C453.843 70.5704 452.172 71.5102 450.501 72.4501C450.501 72.4501 450.501 72.4501 450.397 72.4501C450.397 72.4501 450.188 72.5545 450.084 72.659C449.875 72.7634 449.666 72.9722 449.457 73.0767C438.597 80.491 435.881 95.2153 443.191 105.867C446.533 110.671 451.546 114.012 457.185 115.37C460.004 115.996 462.824 116.101 465.748 115.788C468.672 115.474 471.387 114.326 473.998 113.072Z" fill="#231F20"/>
<path d="M79.8872 533.501C78.9474 530.681 78.2164 527.34 77.9031 523.58C74.0393 527.444 69.0267 530.577 62.7611 532.979C56.4954 535.276 49.1855 536.529 40.8312 536.529C26.7335 536.529 16.3952 533.71 9.81621 528.071C3.23726 522.432 0 515.122 0 506.036C0 498.1 1.35756 491.73 4.28154 486.926C7.10109 482.227 10.9649 478.468 15.9774 475.752C20.99 473.037 26.8379 471.053 33.7302 469.8C40.6224 468.547 48.1412 467.398 56.2865 466.354C64.4319 465.31 69.8622 463.952 72.6817 462.177C75.5013 460.402 76.9632 457.582 76.9632 453.718C76.9632 450.168 75.0835 447.348 71.3241 445.26C67.5647 443.171 62.5522 442.231 56.2865 442.231C48.8722 442.231 43.4419 443.693 40.2047 446.722C36.9674 449.75 34.9833 453.718 34.1479 458.626H3.96825C4.17711 452.883 5.11696 447.661 7.10109 442.858C9.08521 438.054 12.1136 433.877 16.2907 430.431C20.5723 426.985 26.0025 424.27 32.7903 422.39C39.5781 420.51 47.9323 419.57 57.6441 419.57C67.3559 419.57 75.3968 420.51 82.1846 422.494C88.868 424.478 94.2982 427.298 98.3709 430.953C102.444 434.608 105.368 439.203 107.247 444.737C109.023 450.272 109.962 456.433 109.962 463.326V533.501H79.8872ZM77.6942 479.094C76.0234 480.556 73.6216 481.809 70.4887 482.749C67.3559 483.689 62.7611 484.629 56.8087 485.673C47.5146 487.344 41.1445 489.432 37.6984 491.939C34.2523 494.549 32.477 498.204 32.477 503.008C32.477 511.258 37.6984 515.435 48.1412 515.435C52.3183 515.435 56.1821 514.808 59.7327 513.555C63.2832 512.302 66.416 510.527 68.9223 508.334C71.533 506.141 73.5171 503.635 75.188 500.711C76.8588 497.787 77.5898 494.654 77.5898 491.312L77.7987 479.094H77.6942Z" fill="white"/>
<path d="M190.79 460.4H220.865V491.937C220.865 497.785 219.925 503.424 218.046 508.75C216.166 514.076 213.138 518.775 209.065 522.952C204.992 527.129 199.875 530.367 193.61 532.768C187.344 535.17 179.93 536.423 171.367 536.423C162.804 536.423 154.763 535.275 148.497 532.768C142.231 530.367 137.01 527.129 132.937 523.057C128.864 518.984 125.941 514.285 124.061 508.854C122.286 503.424 121.346 497.681 121.346 491.728V380.617H153.196V422.493H220.865V443.274H153.196V488.804C153.196 495.905 154.658 501.336 157.582 505.199C160.506 509.063 165.205 510.943 171.889 510.943C178.572 510.943 183.167 509.063 186.195 505.304C189.224 501.544 190.79 496.219 190.79 489.326V460.504V460.4Z" fill="white"/>
<path d="M292.816 536.422C282.895 536.422 274.019 534.96 266.187 532.141C258.354 529.321 251.776 525.353 246.45 520.236C241.019 515.119 236.947 508.958 234.127 501.752C231.308 494.547 229.846 486.61 229.846 478.047C229.846 469.484 231.308 461.339 234.232 454.133C237.156 446.928 241.333 440.766 246.763 435.649C252.193 430.532 258.877 426.564 266.5 423.849C274.227 421.029 282.999 419.672 292.711 419.672C302.423 419.672 310.986 421.029 318.609 423.849C326.232 426.669 332.707 430.532 338.137 435.545C343.568 440.557 347.64 446.719 350.564 453.924C353.488 461.13 354.95 469.171 354.95 478.047C354.95 486.923 353.488 494.964 350.564 502.065C347.64 509.271 343.568 515.328 338.137 520.445C332.707 525.562 326.232 529.53 318.505 532.245C310.777 535.065 302.214 536.422 292.711 536.422H292.816ZM292.816 511.882C312.552 511.882 322.473 500.603 322.473 478.047C322.473 455.491 312.552 444.421 292.816 444.421C273.079 444.421 263.158 455.595 263.158 478.047C263.158 500.499 273.079 511.882 292.816 511.882Z" fill="white"/>
<path d="M508.563 533.498V466.246C508.563 459.459 506.787 454.028 503.341 449.747C499.895 445.57 495.196 443.377 489.452 443.377C483.709 443.377 478.592 445.674 474.624 450.165C470.76 454.655 468.776 460.294 468.776 467.082V533.393H436.403V466.664C436.403 462.174 436.09 458.519 435.359 455.595C434.628 452.671 433.584 450.478 432.017 448.807C430.451 447.136 428.362 445.987 425.96 445.256C423.559 444.525 420.53 444.212 416.98 444.212C403.822 444.212 397.347 451.418 397.347 465.829V533.289H364.975V422.282H395.363V438.469C399.54 431.159 404.448 426.042 410.296 423.327C416.144 420.612 423.036 419.254 431.182 419.254C435.359 419.254 439.014 419.567 442.251 420.194C445.488 420.82 448.412 421.76 450.919 423.222C453.425 424.684 455.931 426.459 458.229 428.757C460.526 431.054 462.823 433.769 465.225 436.902C468.567 430.741 472.953 426.251 478.383 423.431C483.813 420.611 490.497 419.254 498.329 419.254C504.49 419.254 510.129 420.194 515.246 422.073C520.363 423.953 524.749 426.564 528.404 430.01C532.059 433.352 534.879 437.32 536.967 441.81C539.056 446.301 540.1 451.104 540.1 456.221V533.185H508.458L508.563 533.498Z" fill="white"/>
<path d="M552.006 533.5V381.871H583.856V436.905C592.942 425.313 605.055 419.57 620.197 419.57C628.134 419.57 635.235 420.927 641.5 423.747C647.766 426.566 652.987 430.43 657.269 435.547C661.551 440.664 664.892 446.721 667.085 453.717C669.278 460.714 670.427 468.442 670.427 476.796C670.427 486.09 669.069 494.444 666.459 501.859C663.848 509.273 660.193 515.434 655.494 520.551C650.899 525.668 645.26 529.532 638.681 532.247C632.102 534.962 625.001 536.32 617.378 536.32C602.131 536.32 590.749 530.785 583.334 519.82L583.125 533.396H552.006V533.5ZM609.963 512.51C618.109 512.51 624.688 509.377 629.909 503.112C635.026 496.846 637.637 488.805 637.637 478.884C637.637 456.015 628.343 444.632 609.754 444.632C591.166 444.632 582.603 456.641 582.603 480.764C582.603 490.267 585.214 497.89 590.435 503.738C595.657 509.586 602.131 512.51 609.963 512.51Z" fill="white"/>
<path d="M711.779 485.673C712.301 494.132 715.016 500.815 719.82 505.723C724.623 510.631 731.098 513.138 739.139 513.138C744.465 513.138 749.164 512.093 753.237 509.9C757.309 507.707 759.92 504.679 761.069 500.711H794.381C790.517 512.198 783.938 520.97 774.436 527.131C764.933 533.292 753.654 536.425 740.601 536.425C699.77 536.425 679.406 516.27 679.406 475.961C679.406 467.398 680.764 459.671 683.375 452.778C685.985 445.886 689.849 439.934 694.966 434.921C700.083 429.909 706.244 426.149 713.554 423.539C720.864 420.928 729.218 419.57 738.721 419.57C757.623 419.57 771.929 425.105 781.641 436.07C791.353 447.035 796.156 463.639 796.156 485.673H711.779ZM762.74 467.189C762.531 463.117 761.8 459.566 760.338 456.433C758.876 453.405 757.1 450.794 754.699 448.81C752.401 446.826 749.686 445.26 746.762 444.32C743.734 443.38 740.705 442.858 737.572 442.858C731.098 442.858 725.459 444.946 720.76 449.228C716.06 453.509 713.345 459.462 712.719 467.189H762.74Z" fill="white"/>
<path d="M805.347 533.501V422.494H835.735V435.757C838.346 431.997 841.165 429.073 844.089 426.985C847.013 424.896 849.937 423.225 853.07 422.181C856.099 421.032 859.231 420.301 862.364 419.988C865.497 419.675 868.734 419.57 872.076 419.57H876.253V449.541C873.225 449.123 870.301 448.914 867.272 448.914C847.535 448.914 837.615 457.895 837.615 475.752V533.501H805.242H805.347Z" fill="white"/>
<path d="M967.628 518.568C965.33 523.58 961.153 527.444 955.096 530.159C949.039 532.979 942.043 534.336 934.106 534.336C923.977 534.336 915.518 532.77 908.626 529.533C901.734 526.295 896.199 522.014 891.917 516.793C887.74 511.571 884.607 505.41 882.728 498.518C880.848 491.625 879.908 484.524 879.908 477.319C879.908 468.756 881.266 460.924 884.085 453.718C886.905 446.617 890.769 440.456 895.572 435.443C900.376 430.431 906.015 426.463 912.49 423.747C918.964 421.032 925.961 419.57 933.375 419.57C948.622 419.57 960.109 425.105 967.732 436.279V422.494H1000.1V534.545C1000.1 543.004 998.538 550.418 995.405 556.788C992.272 563.158 987.991 568.484 982.456 572.766C977.026 577.047 970.551 580.285 963.033 582.582C955.618 584.879 947.577 585.924 939.119 585.924C930.66 585.924 922.828 584.879 915.518 582.686C908.208 580.493 901.942 577.465 896.721 573.497C891.5 569.529 887.427 564.62 884.399 558.981C881.37 553.238 879.908 546.763 879.908 539.558H909.983C909.983 546.346 912.385 551.567 917.293 555.222C922.201 558.877 928.676 560.757 936.821 560.757C945.489 560.757 952.799 558.668 958.751 554.387C964.703 550.105 967.732 544.257 967.732 536.947V518.672L967.628 518.568ZM940.998 511.362C948.935 511.362 955.514 508.647 960.735 503.113C965.957 497.578 968.567 490.163 968.567 480.661C968.567 456.851 959.378 445.051 940.998 445.051C922.619 445.051 913.429 456.329 913.429 478.885C913.429 488.806 916.04 496.742 921.262 502.59C926.483 508.438 933.062 511.362 940.998 511.362Z" fill="white"/>
<path d="M321.324 577.359C321.324 575.897 321.846 574.644 322.786 572.973L326.754 565.559H330.305L327.799 573.077C329.261 573.6 330.514 575.166 330.514 577.254C330.514 579.865 328.425 581.849 325.919 581.849C323.413 581.849 321.324 579.97 321.324 577.359ZM334.169 577.359C334.169 575.897 334.795 574.644 335.735 572.973L339.703 565.559H343.254L340.748 573.077C342.21 573.6 343.463 575.166 343.463 577.254C343.463 579.865 341.374 581.849 338.868 581.849C336.362 581.849 334.273 579.97 334.273 577.359H334.169Z" fill="white"/>
<path d="M354.949 565.663H362.572L370.822 590.621C371.762 593.232 372.597 597.304 372.597 597.304C372.597 597.304 373.746 593.336 374.895 590.621L385.651 565.141H386.591L397.451 590.621C398.6 593.232 399.644 597.304 399.644 597.304C399.644 597.304 400.584 593.232 401.524 590.621L409.774 565.663H416.875L400.688 613.073H399.749L388.053 585.086C387.113 582.789 386.069 579.343 386.069 579.343C386.069 579.343 384.92 582.789 383.98 585.086L372.075 613.073H371.135L354.74 565.663H354.949Z" fill="white"/>
<path d="M425.439 562.738H432.436V588.741C434.316 585.19 437.762 582.997 442.148 582.997C448.518 582.997 453.008 587.592 453.008 595.424V612.655H446.012V596.051C446.012 591.874 444.028 589.472 439.955 589.472C435.36 589.472 432.436 592.187 432.436 596.886V612.655H425.439V562.843V562.738Z" fill="white"/>
<path d="M474.311 609.941L462.406 583.625H470.134L476.191 598.14C477.131 600.333 477.862 604.197 477.862 604.197C477.862 604.197 478.488 600.438 479.428 598.14L485.589 583.625H492.795L473.789 627.276H466.583L474.102 610.045L474.311 609.941Z" fill="white"/>
<path d="M522.035 583.623H529.032V589.053C530.703 585.294 534.358 582.996 538.744 582.996C545.114 582.996 549.604 587.591 549.604 595.423V612.654H542.607V596.05C542.607 591.872 540.623 589.471 536.551 589.471C531.956 589.471 529.032 592.186 529.032 596.885V612.654H522.035V583.623Z" fill="white"/>
<path d="M561.508 598.037C561.508 589.369 568.4 582.895 577.172 582.895C585.944 582.895 592.732 589.369 592.732 598.037C592.732 606.704 585.944 613.179 577.172 613.179C568.4 613.179 561.508 606.704 561.508 598.037ZM585.631 598.037C585.631 592.711 582.393 588.951 577.172 588.951C571.951 588.951 568.713 592.711 568.713 598.037C568.713 603.362 572.055 607.122 577.172 607.122C582.289 607.122 585.631 603.362 585.631 598.037Z" fill="white"/>
<path d="M607.978 602.736V589.369H603.592V583.521H607.978V568.379H614.974V583.521H622.702V589.369H614.974V602.84C614.974 606.182 616.123 607.122 617.898 607.122C619.569 607.122 620.614 606.391 621.345 605.764L624.686 610.463C623.224 611.821 620.927 613.178 617.272 613.178C611.842 613.178 608.082 610.463 608.082 602.736H607.978Z" fill="white"/>
<path d="M641.917 586.652H644.632C650.48 586.652 653.404 582.997 653.404 578.715C653.404 574.434 650.48 571.301 646.094 571.301C641.708 571.301 639.515 573.181 637.635 576.731L631.996 573.494C634.398 568.064 639.306 565.035 646.094 565.035C655.075 565.035 660.609 571.092 660.609 578.715C660.609 586.338 656.014 591.142 648.496 591.977V598.243H641.917V586.652ZM640.455 608.373C640.455 605.658 642.648 603.673 645.154 603.673C647.66 603.673 649.853 605.553 649.853 608.373C649.853 611.192 647.66 613.072 645.154 613.072C642.648 613.072 640.455 611.088 640.455 608.373Z" fill="white"/>
<path d="M674.29 573.807C672.933 573.285 671.68 571.719 671.68 569.63C671.68 567.019 673.768 565.035 676.17 565.035C678.676 565.035 680.765 567.019 680.765 569.526C680.765 571.092 680.243 572.241 679.303 573.911L675.335 581.326H671.784L674.29 573.807ZM687.239 573.807C685.882 573.285 684.524 571.719 684.524 569.63C684.524 567.019 686.717 565.035 689.119 565.035C691.625 565.035 693.714 567.019 693.714 569.526C693.714 571.092 693.087 572.241 692.252 573.911L688.284 581.326H684.733L687.239 573.807Z" fill="white"/>
</g>
<defs>
<clipPath id="clip0_2969_48047">
<rect width="1000" height="626.671" fill="white" transform="translate(0 0.5)"/>
</clipPath>
</defs>
</svg>
