<svg width="528" height="350" viewBox="0 0 528 350" fill="rgba(217, 217, 217, 0.05)" xmlns="http://www.w3.org/2000/svg">
<g clip-path="url(#clip0_2915_42317)">
<rect x="0.5" y="0.5" width="527" height="349"/>
<path d="M220.529 116.568C220.337 114.529 220.14 112.498 219.966 110.46C219.642 106.675 219.265 102.898 219.039 99.1137C218.79 94.9105 218.819 90.6756 218.43 86.4912C218.338 85.4946 218.593 84.6309 218.517 83.7102C218.372 81.9579 217.955 80.1928 218.059 78.4596C218.204 76.104 218.749 73.7802 219.085 71.4371C219.178 70.7897 219.288 70.0723 219.126 69.469C218.419 66.8214 220.459 65.4374 221.305 63.5135C221.554 62.9482 222.018 62.4911 222.227 61.9133C222.894 60.0848 224.517 59.4627 225.774 58.3704C226.157 58.0404 226.65 57.7101 226.812 57.2593C227.438 55.5453 228.731 54.7262 230.122 53.9834C230.284 53.8943 230.498 53.8118 230.58 53.6593C231.861 51.2467 234.104 50.4593 236.306 49.6339C237.147 49.3165 238.063 49.2469 238.897 48.9294C239.964 48.5228 241.256 48.2625 241.958 47.4371C243.053 46.161 244.439 46.3323 245.679 45.9769C247.795 45.3674 249.992 45.107 252.154 44.707C252.96 44.5546 253.771 44.415 254.583 44.2879C254.855 44.2434 255.203 44.3641 255.406 44.2246C258.13 42.3198 261.161 43.2468 264.065 43.0943C265.404 43.0243 266.778 42.923 268.094 43.1514C270.493 43.5705 272.922 44.0213 275.223 44.8466C277.594 45.6974 279.826 47.018 282.121 48.1229C282.33 48.2245 282.573 48.3324 282.788 48.3007C285.993 47.8245 287.57 50.4405 289.506 52.4469C290.41 53.3864 291.523 54.0721 292.508 54.9229C293.227 55.5453 293.882 56.2498 294.566 56.9102C294.664 57.0055 294.786 57.0818 294.89 57.1643C295.992 58.0404 297.087 58.9166 298.276 59.8689C298.108 60.3006 297.829 60.6943 297.818 61.1008C297.806 61.5958 297.974 62.4974 298.142 62.5228C299.36 62.6944 299.348 63.8564 299.678 64.6692C300.177 65.8882 300.501 67.196 300.994 68.4213C301.127 68.7516 301.603 69.0437 301.962 69.1136C303.22 69.3611 303.637 70.1802 303.828 71.5071C304.008 72.739 304.06 74.0277 305.208 75.0371C305.706 75.4754 306.524 76.8785 305.736 78.2372C305.394 78.8279 305.608 79.7991 305.544 80.5993C305.446 81.723 306.211 81.7038 306.872 81.9325C307.063 81.9959 307.237 82.4849 307.243 82.777C307.26 84.8596 307.376 86.9548 307.179 89.0183C307.034 90.4848 306.483 91.8946 306.118 93.3357C306.025 93.6915 305.985 94.066 305.979 94.4343C305.927 97.2215 306.054 100.022 305.84 102.79C305.539 106.618 304.872 110.402 304.501 114.225C304.414 115.101 304.425 115.983 304.408 116.866C304.385 118.072 303.145 117.641 304.425 116.942C305.289 116.472 306.263 116.053 307.208 115.983C309.631 115.818 311.173 117.031 312.019 119.539C313.393 123.609 313.236 127.539 311.468 131.501C309.984 134.815 308.842 138.314 307.527 141.723C307.179 142.631 306.709 143.482 306.367 144.39C306.135 145.006 305.904 145.672 305.898 146.32C305.88 149.615 302.924 151.806 300.148 150.51C299.765 150.333 299.394 150.123 299.018 149.933C297.296 149.076 299.139 150.339 299.006 152.339C298.646 157.622 298.02 162.854 296.867 168.015C296.467 169.806 296.577 171.742 296.508 173.609C296.409 176.193 296.386 178.784 296.288 181.374C296.253 182.295 298.246 185.774 299.006 186.403C301.301 188.308 301.943 186.47 302.888 189.429C303.578 191.575 306.146 196.61 307.207 198.591C308.43 200.883 309.717 203.131 311.091 205.315C311.554 206.051 312.308 206.635 313.038 207.08C315.653 208.667 325.211 218.911 329.083 220.346C336.143 222.968 342.954 224.435 349.522 228.308C351.869 229.692 354.414 230.67 356.883 231.794C358.726 232.638 360.598 233.413 362.459 234.225C366.714 233.628 368.997 237.241 371.635 239.711C375.217 243.063 378.33 247.006 381.709 250.619C384.879 254.003 386.145 256.515 389.333 259.88C390.469 261.08 391.107 262.585 391.489 264.331C391.814 265.823 392.62 267.22 393.361 268.559C394.063 269.823 394.26 271.112 394.243 272.56C394.127 283.023 396.09 286.714 395.997 297.177C395.98 299.342 389.964 307.539 380.496 306.846C289.058 306.846 239.744 306.846 148.306 306.846C146.301 306.846 137.58 308.229 132.531 302.705C131.255 291.072 132.557 281.457 133.525 269.825C133.728 267.425 134.62 265.736 135.577 263.87C135.913 263.216 136.487 262.594 136.556 261.908C136.817 259.235 138.469 257.527 139.866 255.597C140.579 254.612 140.979 253.368 141.64 252.333C142.283 251.33 143.066 250.422 143.831 249.514C145.877 247.089 147.761 244.428 150.073 242.352C152.079 240.549 154.224 238.695 157.203 238.746C158.809 238.771 160.42 238.029 162.043 237.755C167.694 236.803 171.978 232.631 176.986 230.175C180.354 228.53 183.658 226.733 187.02 225.076C190.979 223.127 194.949 222.936 198.943 221.07C203.139 219.108 200.89 217.368 205.012 215.235C207.377 214.009 209.463 212.168 211.712 210.663C212.709 209.997 213.735 209.254 214.837 208.911C217.289 208.155 218.419 205.946 219.624 203.901C221.566 200.606 224.152 192.737 226.076 189.429C227.548 186.895 228.423 188.968 229.849 186.403C230.261 185.66 229.896 184.371 229.826 183.336C229.785 182.797 229.559 182.27 229.502 181.73C229.136 178.396 228.962 175.025 228.388 171.736C228.058 169.85 227.073 168.104 226.395 166.295C226.273 165.965 226.134 165.399 226.076 165.05C225.589 162.162 225.079 159.273 224.667 156.371C224.487 155.107 224.528 153.8 224.487 152.517C224.383 149.082 223.873 148.974 221.375 149.234C219.694 149.412 218.326 148.917 217.474 147.361C216.993 146.479 216.552 145.33 216.651 144.365C216.86 142.238 216.651 140.25 215.955 138.301C215.729 137.679 215.463 136.625 215.329 135.977C214.831 133.495 214.489 130.949 213.689 128.587C212.993 126.542 212.536 124.657 212.912 122.352C213.057 121.463 212.999 120.555 212.86 119.66C212.57 117.761 213.214 116.168 214.518 115.317C215.097 114.942 216.112 115.031 216.813 115.291C217.909 115.691 218.917 116.396 219.961 116.987L220.523 116.568H220.529Z" fill="#AFAFAF"/>
</g>
<defs>
<clipPath id="clip0_2915_42317">
<rect width="528" height="350" fill="white"/>
</clipPath>
</defs>
</svg>
