<svg width="50" height="30" fill="none" xmlns="http://www.w3.org/2000/svg"><path fill-rule="evenodd" clip-rule="evenodd" d="M32.342 23.852h-4.615a88.767 88.767 0 0 0 0-15.183c.174-.012.331-.035.494-.035 1.904 0 3.807-.047 5.704.018.932.03 1.886.153 2.771.431 1.327.414 1.979 1.454 2.078 2.854.11 1.614-.233 3.062-1.554 4.09-1.252.975-2.7 1.194-4.237 1.017-.524-.06-.46-.574-.705-.881.093-.041.146-.083.198-.089 1.467-.206 1.956-1.436 2.014-2.535.023-.49.035-.987 0-1.477-.082-1.023-.629-1.56-1.641-1.626-1.025-.065-.838-.07-.838.786 0 2.69-.024 5.378.029 8.062.029 1.418.203 2.83.308 4.243.006.088 0 .183 0 .325h-.006ZM49.998 21.537c-.064.822-.117 1.567-.175 2.294h-9.848a89.13 89.13 0 0 0-.006-15.112h4.627c-.029.402-.052.792-.093 1.182-.309 3.22-.268 6.448-.239 9.674 0 .615.088 1.23.1 1.85.01.42.267.532.593.52A65.157 65.157 0 0 0 48 21.803c.646-.047 1.28-.165 1.99-.266h.007ZM25.723 23.788h-4.61c.43-5.059.413-10.1-.011-15.17h4.627c-.46 5.052-.495 10.1 0 15.17h-.006Z" fill="#fff"/><path d="M10.503 3.424c.076 0 .146.003.225.021.01.003.02.003.028.003.03.013.032.053.076.053.047-.032.126-.032.207-.027.057.03.08.096.125.138.03-.114.194-.146.288-.082.063.043.031.114.097.14-.016-.097.044-.116.102-.137.052.008.063.024.086.048l.026.063c.026.088.047.18.079.269.02.063.031.14.05.175v.069a.484.484 0 0 1-.165.042c.018.053.057.08.068.138-.11.088-.262-.045-.372 0 .005.099.09.115.11.194-.073.133-.222.019-.342.014-.055-.003-.1.037-.152.026-.053-.01-.097-.106-.136-.056-.013.05.149.08.123.152.209-.01.35.178.549.196.05.003.112-.024.165-.013.151.027.295.29.31.696 0-.093.071-.63.071-.725.095-.037.157-.11.249-.154.013-.168.024-.34.04-.5-.155-.026-.317-.047-.469-.077-.042-.135-.107-.504-.261-.576h.005c-.128-.071-.335-.077-.47-.085a3.527 3.527 0 0 0-.291-.002c-.045 0-.134.02-.175.005a.452.452 0 0 0-.257-.045c-.031.016-.042.029-.044.034-.021.022-.05.05-.01.061.007-.034.036-.045.067-.06m-1.493.323c-.023-.148.081-.164.162-.207.029 0 .058-.003.09-.005.07.01.106.095.146.13.007-.07.044-.106.075-.149l.165-.018c.084.013.079.12.144.151-.01-.175.238-.215.343-.112 0-.05-.021-.08-.03-.124l-1.19.124c-.067 0-.127 0-.153.016.149 0 .17.125.245.194M6.695 9.943s0 .008-.005.013c-.042.123-.081.245-.123.37a4.65 4.65 0 0 0-.024.08 4.63 4.63 0 0 0 .77-.123c.046-.01.09-.026.14-.04.063-.026.136-.06.186-.08-.005-.04-.005-.08-.008-.095a2.908 2.908 0 0 0-.068-.396l-.052.019c-.144.048-.29.09-.44.125a2.095 2.095 0 0 1-.35.069l-.026.058Zm6.046 4.493c-.013-.053-.026-.106-.028-.167-.32-.47-.597-.959-.892-1.434-.1-.16-.194-.343-.301-.486-.1-.133-.256-.247-.384-.377-.385-.39-.793-.74-1.193-1.1.3-.6.58-1.25.905-1.824.11-.19.254-.393.33-.584.057-.146.08-.335.122-.5.126-.512.233-.99.37-1.502.078-.064.153-.13.148-.279-.112-.013-.167-.09-.246-.138-.211.1-.632.058-.672-.138-.05-.268.325-.292.356-.473-.097 0-.272.088-.314.013.089-.066.204-.111.288-.183-.168-.146-.41-.212-.617-.318-.03-.218-.134-.356-.123-.611.026-.072.065-.11.086-.205.013-.04.013-.058-.013-.12-.066 0-.118.011-.154-.007-.074-.072 0-.213-.055-.306-.032.101-.04.22-.097.293a.407.407 0 0 0-.055-.181c.016.207.081.366.126.544-.155-.026-.21.046-.343.043 0 .042-.016.072-.045.082-.308.11-.682.149-.96.292-.122-.13-.156-.358-.271-.499.052.213.17.377.232.613.406-.114.73-.308 1.164-.39a.206.206 0 0 1 .22-.042c.01.077.065.17.026.25-.157-.025-.063-.003-.162.028-.034-.018-.042.027-.1.038-.068.024-.104.024-.167.066-.068.03-.055.037-.123.045-.06.03.01 0-.06.03-.065.01-.073.018-.136.042-.1.03-.063.018-.146.042l-.186.05c-.196.043-.021-.005-.204.051-.084-.117-.167-.236-.272-.334-.044.04-.058-.067-.07-.165-.113-.04-.15-.157-.152-.308-.037-.008-.094.088-.162.098-.108-.042-.184-.188-.33-.207-.118-.018-.303.045-.452.07-.115.018-.228.02-.32.047-.721.069-3.2.478-3.656.55.476-.043 3.165-.37 3.761-.505.264-.021.536-.098.78-.093a.182.182 0 0 1 .039.138c-.372.128-.761.165-1.148.223-.225.035-.937.184-1.07.21-.575.117-1.23.24-1.862.348-.186.032-.38.064-.562.098-1.099.205-2.262.29-3.413.154-.092-.013-.128.006-.147.024a.215.215 0 0 1 .087-.12c.14-.068.314-.135.48-.167H.68c.034-.029-.052-.013-.081-.013-.141-.005-.377.003-.479 0-.026.037-.076.09-.086.154-.005.008-.034.16-.034.167v.014c.047.23.081.472.204.626.4.006.764.12 1.138.125.303.005.609-.042.904-.056.244-.01.49-.008.74-.026.435-.035.88-.149 1.316-.223a84.262 84.262 0 0 0 3.92-.738c.12-.128.212-.316.479-.224.1.216.18.45.261.683.202.061.35.223.604.125-.112-.526.37-.574.686-.738-.019.053.01.071.013.111.282.005.246.335.368.502-.271-.101-.549.013-.724.111-.065.038-.204.112-.22.168-.031.109.045.337.068.499.027.175.079.372.071.515-.013.173-.12.359-.167.502-.06.189-.105.345-.15.528-.368.34-.682.736-1.082 1.044-.016-.058-.024-.125-.037-.188a.764.764 0 0 1-.204.135c.013.032.021.064.029.098.029.067.052.136.07.207.008-.005.019-.01.024-.016l.086-.08c.021-.031.04-.066.071-.09.031.08-.003.125-.05.168a.82.82 0 0 1-.107.106c.045.196.06.398.055.59-.526.395-1.266.536-1.906.573-.189.01-.374-.149-.52-.255a12.35 12.35 0 0 1-.375-.279l-.005-.005c-.165-.12-.314-.268-.345-.483v-.008a.683.683 0 0 1 .008-.229c.01.059.015.123.02.189.014.032.03.064.04.103.052.173.198.263.332.364.199.154.4.306.614.436.082.048.142.085.23.08.058-.173.116-.351.176-.524-.037.003-.073.01-.107.01-.244.014-.497.12-.693-.047a.206.206 0 0 1-.118-.138c.091.005.138.058.188.106.029.01.06.019.081.024.021.005.045.008.066.01.14 0 .269-.01.4-.02h.015c.068-.014.131-.022.194-.03.037-.111.073-.225.112-.34.006-.013.008-.023.01-.031a9.05 9.05 0 0 1-.258.058c-.256.069-.513.135-.772.196a.316.316 0 0 1-.14 0h-.009s-.002-.002-.002-.005a.259.259 0 0 1-.157-.12.46.46 0 0 1-.026-.076.429.429 0 0 1-.047-.346c-.01.22.138.433.282.468.06 0 .128-.024.178-.035l.11-.026h.008c.264-.067.525-.136.787-.21.36-.104.719-.21 1.072-.343l.12-.047c.03-.011.04-.016.053-.019.055-.024.11-.048.162-.074 0-.003.002-.003.005-.003l.105-.056c.026-.016.052-.032.078-.05.01-.01.021-.016.029-.021.005-.088 0-.067-.026-.139-.05.014-.123.059-.17.07-.155.034-.115.029-.243.047-.034-.14-.116-.233-.15-.374.186-.114.432-.167.437-.46-.246-.08-.374-.188-.599-.289a3.101 3.101 0 0 1-.193-.324c-.094-.151-.066-.082-.194-.247-.1-.13-.227-.26-.332-.313a2.383 2.383 0 0 0-.382-.133c-.125-.035-.253-.096-.382-.098-.088 0-.2.034-.3.056-.285.058-.369.098-.55.236-.078.06-.185.13-.232.194-.021.029-.079.095-.097.125-.04.069-.076.095-.107.156-.06.114-.058.128-.097.205a2.246 2.246 0 0 0-.217.632c.005.677.39.945.518 1.497.008-.074-.042-.162 0-.223.044.07.029.205.042.306.102.12.277.162.33.332-.132-.024-.236-.223-.336-.231.163.14.309.294.487.385.026.013.065 0 .094.013.149.069.261.252.397.292.063.019.079-.008.126.058-.311.054-.4-.369-.586-.281-.138.064-.172.042-.332.069-.026.13.139.321.162.446.107.157.005.231.097.404.097.087.154.111.238.164.047.33.016.68.123 1.004.12.24.397.401.59.61.21.232.495.479.657.643.565.558 1.107 1.023 1.69 1.56.146.135.5.39.575.557.065.143.092.337.136.515.047.173.123.364.139.515.031.276-.068.54 0 .834.01.048.042.098.078.151a13.16 13.16 0 0 0 3.097-2.846c.068-.085.13-.17.196-.258a.485.485 0 0 0-.283-.151m-4.64-5.43c-.012-.009-.03-.009-.049 0-.005 0-.008.005-.013.005-.005.005-.01.005-.013.005-.107.043-.214.077-.306.109-.052.018-.107.034-.16.053a.11.11 0 0 1-.03.01c0 .032.004.059.01.088.026.096.052.191.075.287.163-.058.322-.12.479-.191.04-.019.076-.04.112-.061-.013-.045-.023-.09-.036-.136a1.496 1.496 0 0 0-.068-.167m-.555.582c-.023-.115-.05-.26-.104-.362-.003 0-.003-.005-.005-.008-.11.038-.223.075-.333.107-.073.024-.146.05-.222.071-.039.12-.08.24-.12.359-.005.013-.005.024-.008.034.063-.008.123-.018.188-.031.173-.038.346-.083.513-.139.031-.008.06-.02.091-.031Zm.097.08c.034.15.063.302.079.459.162-.043.313-.125.452-.184.003 0 .008-.005.01-.005.04-.026.066-.048.09-.058 0-.157-.016-.314-.048-.468a.152.152 0 0 0-.036.006 2.82 2.82 0 0 1-.55.23v.017M18.315 20.535a.645.645 0 0 0-.078-.233.536.536 0 0 0-.3-.226c-.296-.08-.597.117-.822.308a2.866 2.866 0 0 1-.12-.337l-.217-.473c-.084-.204-.246-.327-.288-.57-.442-.662-.651-1.557-1.318-1.992a2.734 2.734 0 0 0-.45-.473c-.18-.31-.539-.43-.646-.794-.024-.082 0-.194-.04-.279-.025-.056-.101-.074-.18-.14-.06-.054-.112-.13-.162-.168a1.478 1.478 0 0 0-.152-.095c-1.124 1.218-2.385 2.174-3.669 2.83a.32.32 0 0 0 .037.048c.115.173.27.324.296.542.01.095.057.18.068.273.007.077.039.138.068.205.034.082.026.17.034.257.005.072.036.133.052.2.008.031-.01.066 0 .095.005.021.029.027.039.048.021.05.01.127.024.183.018.098.052.2.044.3-.013.213.031.43.047.64.029.316.037.635.029.95a7.976 7.976 0 0 1-.063.738c-.008.052-.005.208-.037.245-.175.194-.235.45-.397.64-.12.144-.303.255-.452.375-.09.074-.176.148-.267.22-.068.058-.157.104-.207.18-.036.056-.057.125-.089.187-.068.146-.141.289-.217.438-.052.1-.089.207-.136.308-.044.09-.104.162-.16.244-.065.098-.083.215-.17.303-.062.066-.13.143-.172.204-.128.168-.183.231-.298.404-.115.178-.222.385-.356.531-.12.13-.287.234-.423.348-.144.12-.278.199-.424.353-.092.189-.07.409-.113.608-.018.085-.067.146-.067.236 0 .099.047.21.067.32.04.2-.01.485.16.634.196.172.518.26.766.26a51.5 51.5 0 0 1 1.146-.1c.107-.051.08-.27.078-.306-.005-.067-.039-.104.003-.168.557-.695 1.01-1.497 1.7-2.058.096.139.214.266.327.417.102.13.204.332.33.417.148.101.31.184.52.194.227-.122.117-1.097.342-1.476.167-.032.293-.112.453-.152 1.02-1.043 2.168-2.105 3.26-3.117.16-.146.323-.332.482-.43.29-.181.636-.245.931-.404.481-.576 1.268-1.498 1.182-1.697m-9.888 8.394c-.102.109-.272.104-.66.088-.389-.019-.363-.032-.585-.13-.186-.08-.246-.05-.204-.547.045-.526.45-.428.887-.287.444.14.447.188.47.281.021.096.11.377.11.377s.05.146-.018.218Zm3.206-1.758c-.013.13.013.215-.133.194-.236-.037-.24-.223-.338-.366-.11-.165-.17-.28-.17-.28.055-.14.087-.087.223-.113.128-.03.272-.088.337-.088.066 0 .034-.048.079.22.036.223.02.295.005.439m2.155-5.763c-.338-.12-.748-.3-1.232-.194-.005.01-.013.014-.013.027.029-.035.369 0 .272.013-.267.016-.562.03-.769.096.39-.383 1.247-.298 1.7-.043.073.037.084.043.146.082.047.101-.01.048-.107.016m4.443-.86c-.06.056-.078.088-.11.136-.05.045-.05.05-.096.1-.084.09-.06.09-.168.176-.052.053-.083.071-.172.151-.105.098-.173.135-.304.242-.123.103-.217.19-.355.308a3.597 3.597 0 0 1-.447.257c-.108.07-.244.136-.39.104.125-.12.243-.282.424-.433.258-.212.674-.279.659-.653-.01-.189-.076-.356-.147-.526.045-.03.094-.059.128-.085.079-.061.183-.114.27-.16a.562.562 0 0 1 .39-.044c.138.029.216.162.282.281.029.053.05.109.034.146" fill="#fff"/><path d="M2.464 6.152a14.46 14.46 0 0 0-1.401 2.959c.4-.988.938-1.97 1.629-2.9.015-.021.034-.043.05-.066l-.275.008" fill="#B6C654"/><path d="M15.068 1.067C11.97-1.307 6.738.414 3.281 4.897l.523-.038c3.102-3.162 7.268-4.156 9.891-2.145 2.974 2.278 2.84 7.554-.298 11.782-1.616 2.175-3.714 3.646-5.772 4.257 2.414-.574 4.956-2.29 6.9-4.902 3.451-4.647 3.694-10.37.546-12.784" fill="url(#a)"/><defs><linearGradient id="a" x1="-2.982" y1="2.192" x2="7.896" y2="18.476" gradientUnits="userSpaceOnUse"><stop stop-color="#B6C654"/><stop offset=".28" stop-color="#B6C654"/><stop offset=".32" stop-color="#CFCD44"/><stop offset=".55" stop-color="#FBC80B"/><stop offset=".65" stop-color="#F6B13F"/><stop offset=".77" stop-color="#E8645A"/><stop offset="1" stop-color="#AE4F8C"/></linearGradient></defs></svg>