<?xml version="1.0" encoding="UTF-8"?>
<svg id="Layer_2" data-name="Layer 2" xmlns="http://www.w3.org/2000/svg" viewBox="0 0 51.04 14.38">
  <defs>
    <style>
      .cls-1 {
        fill: #d2a66c;
      }
    </style>
  </defs>
  <g id="Layer_1-2" data-name="Layer 1">
    <g>
      <path class="cls-1" d="m15.14,2.61c0,.38-.06.75-.19,1.08-.13.34-.31.63-.56.88-.24.25-.53.45-.87.59-.34.14-.72.21-1.14.21s-.79-.07-1.11-.2c-.32-.13-.59-.31-.81-.54-.22-.23-.39-.5-.5-.83-.11-.32-.17-.67-.17-1.05s.06-.75.19-1.08c.13-.34.31-.63.56-.88.24-.25.53-.45.87-.59.34-.14.72-.21,1.14-.21s.79.07,1.11.2.59.31.81.54c.22.23.39.5.5.82.11.32.17.67.17,1.05Zm-.93.12c0-.28-.03-.55-.1-.82-.06-.27-.17-.51-.31-.73-.14-.21-.33-.39-.55-.52-.22-.13-.49-.2-.81-.2s-.56.07-.77.2c-.22.13-.39.3-.53.51s-.24.45-.31.71c-.07.26-.1.52-.1.77,0,.28.03.55.1.82.06.27.17.51.31.73s.33.39.55.53c.23.13.5.2.81.2s.56-.07.77-.2c.21-.13.39-.3.53-.51.14-.21.24-.44.31-.7.07-.26.1-.52.1-.77Z"/>
      <path class="cls-1" d="m16.89,3.01c0,.38,0,.76.02,1.15.01.39.04.77.09,1.15h-1c.05-.44.08-.87.09-1.3,0-.43.02-.86.02-1.3s0-.87-.01-1.3c0-.43-.04-.86-.09-1.3.05,0,.13,0,.23.01.1,0,.21,0,.32,0,.11,0,.22,0,.33,0h.29c.12,0,.26,0,.4,0,.14,0,.29,0,.43,0,.15,0,.29,0,.43-.01.14,0,.28-.01.4-.02l-.02.65c-.27-.04-.53-.07-.79-.1-.26-.03-.52-.04-.79-.04-.04,0-.1,0-.17,0-.07,0-.13,0-.18.01v1.89c.06,0,.11,0,.17.01.06,0,.12,0,.17,0,.23,0,.48,0,.73-.02.25-.01.49-.03.73-.06v.63c-.24-.02-.48-.04-.74-.05-.25-.01-.5-.02-.73-.02-.06,0-.11,0-.17,0-.06,0-.11,0-.16.01Z"/>
      <path class="cls-1" d="m20.67,3.01c0,.38,0,.76.02,1.15.01.39.04.77.09,1.15h-1c.05-.44.08-.87.09-1.3,0-.43.02-.86.02-1.3s0-.87-.01-1.3c0-.43-.04-.86-.09-1.3.05,0,.13,0,.23.01.1,0,.21,0,.32,0,.11,0,.22,0,.33,0h.29c.12,0,.26,0,.4,0,.14,0,.29,0,.43,0,.15,0,.29,0,.43-.01.14,0,.28-.01.4-.02l-.02.65c-.27-.04-.53-.07-.79-.1-.26-.03-.52-.04-.79-.04-.04,0-.1,0-.17,0-.07,0-.13,0-.18.01v1.89c.06,0,.11,0,.17.01.06,0,.12,0,.17,0,.23,0,.48,0,.73-.02.25-.01.49-.03.73-.06v.63c-.24-.02-.48-.04-.74-.05-.25-.01-.5-.02-.73-.02-.06,0-.11,0-.17,0-.06,0-.11,0-.16.01Z"/>
      <path class="cls-1" d="m23.55,5.3c.05-.44.08-.87.09-1.3,0-.43.02-.86.02-1.3s0-.87-.02-1.3c-.01-.43-.04-.86-.09-1.3h1c-.05.43-.08.87-.09,1.3-.01.43-.02.87-.02,1.3s0,.87.02,1.3c0,.43.04.86.09,1.3h-1Z"/>
      <path class="cls-1" d="m29.62,1.3h-.16c-.12-.29-.3-.51-.55-.64-.25-.13-.51-.2-.78-.2-.32,0-.59.06-.82.19-.23.12-.41.29-.56.5-.15.21-.25.45-.32.71-.07.27-.1.54-.1.83s.04.57.12.83.2.48.35.67c.16.19.35.33.59.44.24.11.51.16.83.16.29,0,.58-.04.86-.12.28-.08.55-.19.82-.33l.07.42-1.05.5c-.06.02-.14.04-.23.06s-.18.03-.27.04c-.09,0-.18.02-.27.02-.09,0-.17,0-.24,0-.38,0-.72-.06-1.03-.18s-.58-.29-.79-.51c-.22-.22-.39-.49-.51-.81-.12-.32-.18-.67-.18-1.07,0-.44.07-.83.22-1.19.15-.35.36-.65.62-.89.27-.24.58-.43.95-.55.37-.13.77-.19,1.2-.19.23,0,.47.02.73.06.26.04.5.11.71.23l-.21,1.02Z"/>
      <path class="cls-1" d="m30.83,5.3c.05-.44.08-.87.09-1.3,0-.43.02-.86.02-1.3s0-.87-.02-1.3c-.01-.43-.04-.86-.09-1.3h1c-.05.43-.08.87-.09,1.3-.01.43-.02.87-.02,1.3s0,.87.02,1.3c0,.43.04.86.09,1.3h-1Z"/>
      <path class="cls-1" d="m35.16.11c.31.84.66,1.71,1.02,2.59.37.88.76,1.75,1.19,2.6h-1.08c-.1-.29-.21-.56-.31-.82-.1-.26-.21-.53-.32-.81h-1.92c-.11.27-.21.55-.3.82-.09.27-.18.54-.28.82h-.84c.12-.24.24-.51.37-.81.13-.3.27-.61.41-.93.14-.32.28-.64.42-.97.14-.33.27-.64.4-.95.12-.31.24-.59.34-.86.1-.26.19-.5.27-.69h.63Zm.32,3.06c-.12-.31-.24-.64-.39-1s-.28-.7-.41-1.02c-.07.16-.13.32-.21.5-.07.17-.14.35-.21.53-.07.18-.14.35-.2.52s-.12.33-.17.47h1.59Z"/>
      <path class="cls-1" d="m38.75,2.81v.96c0,.17,0,.34,0,.51,0,.17,0,.32,0,.45.05.02.13.03.25.04.12,0,.23.01.33.01.28,0,.55-.01.81-.04.26-.03.52-.06.78-.09l-.02.65c-.29,0-.59-.02-.87-.03s-.58-.01-.88-.01c-.23,0-.45,0-.66.01-.22,0-.43.02-.64.03.05-.43.08-.86.09-1.3,0-.44.02-.88.02-1.32s0-.86-.02-1.29-.04-.87-.09-1.29h1c-.05.43-.08.88-.09,1.35-.01.46-.02.92-.02,1.36Z"/>
      <path class="cls-1" d="m2.05,11.54c.21,0,.4.02.58.07.17.05.32.12.45.22.12.1.22.23.29.39.07.16.1.35.1.57,0,.29-.06.53-.18.73-.12.2-.28.36-.48.48-.2.12-.42.21-.67.27-.25.06-.51.08-.77.08-.23,0-.46-.01-.69-.03s-.46-.07-.67-.14c.04-.41.07-.8.08-1.18.02-.38.02-.77.02-1.17,0-.46,0-.92-.02-1.36-.01-.45-.04-.9-.09-1.36h1.67c.21,0,.4.02.58.06.18.04.34.1.47.19.13.09.24.21.32.36.08.15.12.34.12.57,0,.16-.03.31-.08.45-.05.15-.13.28-.23.39-.1.12-.21.21-.35.29s-.29.12-.45.14Zm-1.15-1.98c0,.3,0,.61,0,.92s0,.61,0,.92c.14.01.27.02.38.02.33,0,.58-.09.76-.29.18-.19.27-.44.27-.76,0-.16-.02-.29-.06-.4-.04-.1-.1-.19-.18-.25-.08-.06-.18-.1-.29-.13-.12-.02-.25-.04-.39-.04h-.46Zm0,2.32c0,.21,0,.43,0,.66v.66c0,.15.02.27.05.36s.08.16.14.21c.06.05.13.08.21.1.08.01.17.02.25.02.33,0,.59-.09.77-.26.18-.17.27-.42.27-.75,0-.21-.04-.39-.1-.53-.07-.13-.16-.24-.28-.31s-.25-.13-.41-.15c-.16-.03-.32-.04-.49-.04-.14,0-.28,0-.41.02Z"/>
      <path class="cls-1" d="m4.4,14.3c.05-.44.08-.88.09-1.33,0-.46.02-.9.02-1.33s0-.86-.02-1.27c-.01-.41-.04-.83-.09-1.26h1.54c.15,0,.3,0,.45,0,.15,0,.29.02.42.04.31.06.56.19.75.39s.29.49.29.87c0,.2-.03.38-.09.55-.06.17-.15.32-.27.46s-.26.25-.42.34-.35.16-.55.19c.1.01.19.06.27.13.08.08.15.16.2.24.12.17.23.35.33.51.1.17.2.33.3.5s.2.32.3.48.21.32.32.48h-1.12c-.07-.13-.15-.27-.23-.43s-.17-.31-.25-.47c-.09-.16-.18-.32-.27-.47-.09-.15-.19-.29-.28-.42-.17-.23-.37-.34-.61-.34h-.09s-.05,0-.09,0c.01.35.02.72.03,1.09,0,.37.03.72.07,1.04h-1Zm.89-2.64c.06.01.13.02.18.02.06,0,.11,0,.17,0,.2,0,.37-.02.53-.06.16-.04.3-.11.41-.2.11-.09.2-.2.27-.34s.09-.3.09-.49c0-.37-.1-.62-.29-.77-.19-.15-.46-.22-.82-.22h-.55v2.07Z"/>
      <path class="cls-1" d="m14,11.61c0,.38-.06.75-.19,1.08-.13.34-.31.63-.56.88-.24.25-.53.45-.87.59-.34.14-.72.21-1.14.21s-.79-.07-1.11-.2c-.32-.13-.59-.31-.81-.54-.22-.23-.39-.5-.5-.83-.11-.32-.17-.67-.17-1.05s.06-.75.19-1.08c.13-.34.31-.63.56-.88.24-.25.53-.45.87-.59.34-.14.72-.21,1.14-.21s.79.07,1.11.2.59.31.81.54c.22.23.39.5.5.82.11.32.17.67.17,1.05Zm-.93.12c0-.28-.03-.55-.1-.82-.06-.27-.17-.51-.31-.73-.14-.21-.33-.39-.55-.52-.22-.13-.49-.2-.81-.2s-.56.07-.77.2c-.22.13-.39.3-.53.51s-.24.45-.31.71c-.07.26-.1.52-.1.77,0,.28.03.55.1.82.06.27.17.51.31.73s.33.39.55.53c.23.13.5.2.81.2s.56-.07.77-.2c.21-.13.39-.3.53-.51.14-.21.24-.44.31-.7.07-.26.1-.52.1-.77Z"/>
      <path class="cls-1" d="m16.96,9.11c.31.84.66,1.71,1.02,2.59.37.88.76,1.75,1.19,2.6h-1.08c-.1-.29-.21-.56-.31-.82-.1-.26-.21-.53-.32-.81h-1.92c-.11.27-.21.55-.3.82-.09.27-.18.54-.28.82h-.84c.12-.24.24-.51.37-.81.13-.3.27-.61.41-.93.14-.32.28-.64.42-.97.14-.33.27-.64.4-.95.12-.31.24-.59.34-.86.1-.26.19-.5.27-.69h.63Zm.32,3.06c-.12-.31-.24-.64-.39-1s-.28-.7-.41-1.02c-.07.16-.13.32-.21.5-.07.17-.14.35-.21.53-.07.18-.14.35-.2.52s-.12.33-.17.47h1.59Z"/>
      <path class="cls-1" d="m21.62,9.11c.51,0,.94.06,1.3.17s.65.28.87.48.39.45.49.73c.1.29.15.6.15.94,0,.5-.09.93-.27,1.29s-.42.67-.73.91c-.31.24-.66.42-1.07.54-.4.12-.83.18-1.29.18-.24,0-.48,0-.72-.03s-.47-.06-.7-.12c.04-.39.07-.79.08-1.19.02-.4.02-.8.02-1.19,0-.47,0-.92-.01-1.36,0-.44-.04-.89-.09-1.36h1.96Zm.23.51c-.08,0-.15-.02-.23-.02-.08,0-.2,0-.36,0h-.38c-.07,0-.14,0-.2,0-.06,0-.11,0-.14.01v2.61c0,.38,0,.69.01.91,0,.22.04.39.09.5s.13.18.24.21c.11.03.26.04.46.04.34,0,.65-.06.92-.18.26-.12.49-.28.67-.48s.33-.44.42-.72c.1-.27.14-.56.14-.87,0-.6-.14-1.08-.41-1.42-.27-.34-.69-.54-1.25-.59Z"/>
      <path class="cls-1" d="m29.13,10.3h-.16c-.12-.29-.3-.51-.55-.64-.25-.13-.51-.2-.78-.2-.32,0-.59.06-.82.19-.23.12-.41.29-.56.5-.15.21-.25.45-.32.71-.07.27-.1.54-.1.83s.04.57.12.83.2.48.35.67c.16.19.35.33.59.44.24.11.51.16.83.16.29,0,.58-.04.86-.12.28-.08.55-.19.82-.33l.07.42-1.05.5c-.06.02-.14.04-.23.06s-.18.03-.27.04c-.09,0-.18.02-.27.02-.09,0-.17,0-.24,0-.38,0-.72-.06-1.03-.18s-.58-.29-.79-.51c-.22-.22-.39-.49-.51-.81-.12-.32-.18-.67-.18-1.07,0-.44.07-.83.22-1.19.15-.35.36-.65.62-.89.27-.24.58-.43.95-.55.37-.13.77-.19,1.2-.19.23,0,.47.02.73.06.26.04.5.11.71.23l-.21,1.02Z"/>
      <path class="cls-1" d="m32.44,9.11c.31.84.66,1.71,1.02,2.59.37.88.76,1.75,1.19,2.6h-1.08c-.1-.29-.21-.56-.31-.82-.1-.26-.21-.53-.32-.81h-1.92c-.11.27-.21.55-.3.82-.09.27-.18.54-.28.82h-.84c.12-.24.24-.51.37-.81.13-.3.27-.61.41-.93.14-.32.28-.64.42-.97.14-.33.27-.64.4-.95.12-.31.24-.59.34-.86.1-.26.19-.5.27-.69h.63Zm.32,3.06c-.12-.31-.24-.64-.39-1s-.28-.7-.41-1.02c-.07.16-.13.32-.21.5-.07.17-.14.35-.21.53-.07.18-.14.35-.2.52s-.12.33-.17.47h1.59Z"/>
      <path class="cls-1" d="m37.68,10.21h-.17c-.1-.24-.24-.43-.43-.56s-.4-.2-.63-.2-.44.07-.58.2-.21.32-.21.56.06.42.18.56.27.25.45.34c.18.09.38.18.58.25.21.07.4.17.58.28.18.11.33.25.45.43.12.18.18.41.18.7,0,.27-.05.5-.15.71-.1.2-.24.37-.41.5-.17.13-.37.23-.6.3-.23.06-.47.1-.72.1-.27,0-.53-.03-.78-.08s-.48-.14-.69-.28l.21-.93h.16c.12.25.29.46.49.62s.46.24.77.24c.27,0,.49-.07.67-.22.18-.15.27-.35.27-.62,0-.23-.06-.41-.18-.54s-.27-.25-.46-.34c-.18-.09-.38-.18-.59-.25-.21-.08-.41-.17-.59-.28s-.33-.26-.46-.43c-.12-.18-.18-.41-.18-.71,0-.26.05-.49.15-.68.1-.19.23-.35.4-.48s.36-.22.58-.28c.22-.06.46-.09.7-.09.21,0,.42.02.62.05s.4.1.58.21l-.18.93Z"/>
      <path class="cls-1" d="m39.99,14.3c.05-.44.08-.87.09-1.3.01-.43.02-.86.02-1.3,0-.36,0-.71,0-1.06,0-.35-.02-.69-.04-1.03-.04,0-.07,0-.12,0h-.1c-.25,0-.5.01-.77.03s-.52.05-.77.09v-.63c.35.01.72.03,1.09.04.37,0,.74.01,1.11.01s.73,0,1.11-.01.74-.02,1.1-.04v.63c-.27-.04-.53-.07-.79-.09s-.52-.03-.78-.03h-.1s-.08,0-.11,0c-.02.36-.03.71-.03,1.05,0,.34,0,.69,0,1.05,0,.44,0,.87.02,1.3,0,.43.04.86.09,1.3h-1Z"/>
      <path class="cls-1" d="m43.3,14.3c.05-.44.08-.87.09-1.29,0-.43.02-.86.02-1.3s0-.87-.01-1.3c0-.43-.04-.86-.09-1.3.04,0,.12,0,.21.01.1,0,.2,0,.32,0,.12,0,.23,0,.34,0h.26c.17,0,.32,0,.45,0,.14,0,.27,0,.4,0,.13,0,.26,0,.39-.01.13,0,.28-.01.44-.02l-.02.65c-.27-.04-.53-.07-.78-.1-.25-.03-.51-.04-.78-.04-.04,0-.1,0-.18,0-.08,0-.14,0-.18.01v1.75c.06,0,.12,0,.18.01.06,0,.12,0,.17,0,.21,0,.44,0,.68-.02.24-.01.47-.04.69-.06v.63c-.23-.02-.47-.04-.71-.05-.23-.01-.47-.02-.71-.02-.05,0-.11,0-.16,0-.06,0-.1,0-.15.01v1.53c0,.11,0,.21,0,.32.05.02.14.03.26.04.12,0,.24.01.34.01.28,0,.56-.01.83-.04s.52-.06.75-.08v.65c-.3,0-.59-.02-.87-.03s-.58-.01-.89-.01c-.23,0-.45,0-.67.01s-.44.02-.65.03Z"/>
      <path class="cls-1" d="m47.2,14.3c.05-.44.08-.88.09-1.33,0-.46.02-.9.02-1.33s0-.86-.02-1.27c-.01-.41-.04-.83-.09-1.26h1.54c.15,0,.3,0,.45,0,.15,0,.29.02.42.04.31.06.56.19.75.39s.29.49.29.87c0,.2-.03.38-.09.55-.06.17-.15.32-.27.46s-.26.25-.42.34-.35.16-.55.19c.1.01.19.06.27.13.08.08.15.16.2.24.12.17.23.35.33.51.1.17.2.33.3.5s.2.32.3.48.21.32.32.48h-1.12c-.07-.13-.15-.27-.23-.43s-.17-.31-.25-.47c-.09-.16-.18-.32-.27-.47-.09-.15-.19-.29-.28-.42-.17-.23-.37-.34-.61-.34h-.09s-.05,0-.09,0c.01.35.02.72.03,1.09,0,.37.03.72.07,1.04h-1Zm.89-2.64c.06.01.13.02.18.02.06,0,.11,0,.17,0,.2,0,.37-.02.53-.06.16-.04.3-.11.41-.2.11-.09.2-.2.27-.34s.09-.3.09-.49c0-.37-.1-.62-.29-.77-.19-.15-.46-.22-.82-.22h-.55v2.07Z"/>
    </g>
  </g>
</svg>