<svg width="69" height="6" viewBox="0 0 69 6" fill="none" xmlns="http://www.w3.org/2000/svg">
<path d="M5.35 2.61977C5.35 2.99977 5.28 3.35977 5.15 3.69977C5.02 4.03977 4.84 4.32977 4.6 4.57977C4.36 4.82977 4.07 5.02977 3.73 5.16977C3.39 5.30977 3.01 5.37977 2.59 5.37977C2.17 5.37977 1.8 5.30977 1.48 5.17977C1.16 5.04977 0.89 4.86977 0.67 4.63977C0.45 4.40977 0.28 4.13977 0.17 3.81977C0.06 3.49977 0 3.14977 0 2.76977C0 2.38977 0.07 2.01977 0.2 1.68977C0.33 1.35977 0.51 1.05977 0.75 0.809766C0.99 0.559766 1.28 0.359766 1.62 0.219766C1.96 0.0797656 2.34 0.00976562 2.76 0.00976562C3.18 0.00976562 3.55 0.0797656 3.87 0.209766C4.19 0.339766 4.46 0.519766 4.68 0.749766C4.9 0.979766 5.07 1.24977 5.18 1.56977C5.29 1.88977 5.35 2.23977 5.35 2.61977ZM4.42 2.73977C4.42 2.46977 4.39 2.18977 4.32 1.91977C4.26 1.64977 4.15 1.40977 4.01 1.18977C3.87 0.979766 3.68 0.799766 3.46 0.669766C3.24 0.539766 2.97 0.469766 2.65 0.469766C2.33 0.469766 2.09 0.539766 1.88 0.669766C1.67 0.799766 1.49 0.969766 1.35 1.17977C1.21 1.38977 1.11 1.61977 1.04 1.87977C0.97 2.13977 0.94 2.39977 0.94 2.64977C0.94 2.91977 0.97 3.19977 1.04 3.46977C1.1 3.73977 1.21 3.97977 1.35 4.19977C1.49 4.41977 1.68 4.58977 1.9 4.71977C2.12 4.84977 2.39 4.91977 2.71 4.91977C3.03 4.91977 3.27 4.84977 3.48 4.71977C3.69 4.58977 3.87 4.41977 4.01 4.20977C4.15 3.99977 4.25 3.76977 4.32 3.50977C4.39 3.24977 4.42 2.98977 4.42 2.73977Z" fill="#D2A66C"/>
<path d="M7.09996 3.00961C7.09996 3.37961 7.09996 3.76961 7.11996 4.15961C7.12996 4.54961 7.15996 4.92961 7.20996 5.30961H6.20996C6.25996 4.87961 6.28996 4.43961 6.29996 4.00961C6.29996 3.57961 6.31996 3.14961 6.31996 2.70961C6.31996 2.26961 6.31996 1.83961 6.30996 1.40961C6.30996 0.979609 6.26996 0.549609 6.21996 0.109609C6.26996 0.109609 6.34996 0.109609 6.44996 0.119609C6.54996 0.119609 6.65996 0.119609 6.76996 0.119609C6.87996 0.119609 6.98996 0.119609 7.09996 0.119609H7.37996C7.49996 0.119609 7.63996 0.119609 7.77996 0.119609C7.91996 0.119609 8.06996 0.119609 8.20996 0.119609C8.34996 0.119609 8.49996 0.119609 8.63996 0.109609C8.77996 0.109609 8.91996 0.109609 9.03996 0.0996094L9.01996 0.739609C8.74996 0.699609 8.48996 0.669609 8.22996 0.639609C7.97996 0.619609 7.70996 0.599609 7.43996 0.599609C7.39996 0.599609 7.33996 0.599609 7.26996 0.599609C7.19996 0.599609 7.13996 0.599609 7.08996 0.609609V2.49961C7.13996 2.49961 7.19996 2.49961 7.25996 2.50961C7.31996 2.50961 7.37996 2.50961 7.42996 2.50961C7.65996 2.50961 7.90996 2.50961 8.15996 2.48961C8.40996 2.47961 8.64996 2.45961 8.88996 2.42961V3.05961C8.65996 3.03961 8.40996 3.01961 8.15996 3.00961C7.90996 2.99961 7.65996 2.98961 7.42996 2.98961C7.36996 2.98961 7.31996 2.98961 7.25996 2.98961C7.19996 2.98961 7.14996 2.98961 7.09996 2.99961V3.00961Z" fill="#D2A66C"/>
<path d="M10.87 3.00961C10.87 3.37961 10.87 3.76961 10.89 4.15961C10.9 4.54961 10.93 4.92961 10.98 5.30961H9.97998C10.03 4.87961 10.06 4.43961 10.07 4.00961C10.07 3.57961 10.09 3.14961 10.09 2.70961C10.09 2.26961 10.09 1.83961 10.08 1.40961C10.08 0.979609 10.04 0.549609 9.98998 0.109609C10.04 0.109609 10.12 0.109609 10.22 0.119609C10.32 0.119609 10.43 0.119609 10.54 0.119609C10.65 0.119609 10.76 0.119609 10.87 0.119609H11.15C11.27 0.119609 11.41 0.119609 11.55 0.119609C11.69 0.119609 11.84 0.119609 11.98 0.119609C12.12 0.119609 12.27 0.119609 12.41 0.109609C12.55 0.109609 12.69 0.109609 12.81 0.0996094L12.79 0.739609C12.52 0.699609 12.26 0.669609 12 0.639609C11.75 0.619609 11.48 0.599609 11.21 0.599609C11.17 0.599609 11.11 0.599609 11.04 0.599609C10.97 0.599609 10.91 0.599609 10.86 0.609609V2.49961C10.91 2.49961 10.97 2.49961 11.03 2.50961C11.09 2.50961 11.15 2.50961 11.2 2.50961C11.43 2.50961 11.68 2.50961 11.93 2.48961C12.18 2.47961 12.42 2.45961 12.66 2.42961V3.05961C12.43 3.03961 12.18 3.01961 11.93 3.00961C11.68 2.99961 11.43 2.98961 11.2 2.98961C11.14 2.98961 11.09 2.98961 11.03 2.98961C10.97 2.98961 10.92 2.98961 10.87 2.99961V3.00961Z" fill="#D2A66C"/>
<path d="M13.76 5.31035C13.81 4.88035 13.84 4.44035 13.85 4.01035C13.85 3.58035 13.87 3.15035 13.87 2.71035C13.87 2.27035 13.87 1.84035 13.85 1.41035C13.85 0.980352 13.81 0.550352 13.76 0.110352H14.76C14.71 0.540352 14.68 0.980352 14.67 1.41035C14.67 1.84035 14.66 2.27035 14.66 2.71035C14.66 3.15035 14.66 3.58035 14.67 4.01035C14.68 4.44035 14.71 4.87035 14.76 5.31035H13.76Z" fill="#D2A66C"/>
<path d="M19.8101 1.31H19.6501C19.5301 1.02 19.3501 0.8 19.1001 0.67C18.8501 0.54 18.5901 0.47 18.3201 0.47C18.0001 0.47 17.7301 0.53 17.5001 0.66C17.2701 0.78 17.0901 0.95 16.9401 1.16C16.7901 1.37 16.6901 1.6 16.6201 1.87C16.5501 2.14 16.5201 2.41 16.5201 2.7C16.5201 2.99 16.5601 3.27 16.6401 3.53C16.7201 3.79 16.8401 4.01 16.9901 4.2C17.1401 4.39 17.3401 4.53 17.5801 4.64C17.8201 4.75 18.0901 4.8 18.4101 4.8C18.7001 4.8 18.9901 4.76 19.2701 4.68C19.5501 4.6 19.8201 4.49 20.0901 4.35L20.1601 4.77L19.1101 5.26C19.0401 5.28 18.9701 5.31 18.8801 5.32C18.7901 5.33 18.7001 5.35 18.6101 5.36C18.5201 5.36 18.4301 5.38 18.3401 5.38C18.2501 5.38 18.1701 5.38 18.1001 5.38C17.7201 5.38 17.3801 5.32 17.0701 5.2C16.7601 5.08 16.5001 4.91 16.2801 4.69C16.0601 4.47 15.8901 4.2 15.7701 3.88C15.6501 3.57 15.5901 3.21 15.5901 2.81C15.5901 2.37 15.6601 1.98 15.8101 1.63C15.9601 1.28 16.1701 0.98 16.4301 0.74C16.6901 0.5 17.0101 0.31 17.3801 0.19C17.7501 0.07 18.1501 0 18.5701 0C18.7901 0 19.0401 0.02 19.3001 0.06C19.5601 0.1 19.7901 0.17 20.0001 0.29L19.7901 1.31H19.8101Z" fill="#D2A66C"/>
<path d="M21.02 5.31035C21.07 4.88035 21.1 4.44035 21.11 4.01035C21.11 3.58035 21.13 3.15035 21.13 2.71035C21.13 2.27035 21.13 1.84035 21.11 1.41035C21.11 0.980352 21.07 0.550352 21.02 0.110352H22.02C21.97 0.540352 21.94 0.980352 21.93 1.41035C21.93 1.84035 21.92 2.27035 21.92 2.71035C21.92 3.15035 21.92 3.58035 21.93 4.01035C21.94 4.44035 21.97 4.87035 22.02 5.31035H21.02Z" fill="#D2A66C"/>
<path d="M25.34 0.110352C25.65 0.950352 25.99 1.82035 26.36 2.70035C26.73 3.58035 27.12 4.45035 27.54 5.30035H26.46C26.36 5.02035 26.25 4.74035 26.15 4.48035C26.05 4.22035 25.94 3.95035 25.83 3.67035H23.91C23.8 3.94035 23.7 4.22035 23.61 4.49035C23.52 4.76035 23.43 5.03035 23.33 5.31035H22.49C22.61 5.07035 22.73 4.80035 22.86 4.50035C22.99 4.20035 23.13 3.89035 23.27 3.57035C23.41 3.25035 23.55 2.93035 23.69 2.60035C23.83 2.27035 23.96 1.96035 24.09 1.65035C24.21 1.35035 24.33 1.06035 24.44 0.800352C24.55 0.540352 24.63 0.310352 24.71 0.110352H25.34ZM25.66 3.17035C25.54 2.86035 25.42 2.53035 25.27 2.17035C25.13 1.81035 24.99 1.48035 24.86 1.16035C24.8 1.31035 24.73 1.48035 24.65 1.65035C24.58 1.82035 24.51 2.00035 24.44 2.18035C24.37 2.36035 24.3 2.53035 24.24 2.70035C24.18 2.87035 24.12 3.03035 24.07 3.17035H25.66Z" fill="#D2A66C"/>
<path d="M28.93 2.82012V3.78012C28.93 3.95012 28.93 4.12012 28.93 4.29012C28.93 4.46012 28.93 4.61012 28.93 4.74012C28.98 4.76012 29.06 4.77012 29.18 4.78012C29.3 4.78012 29.41 4.79012 29.51 4.79012C29.79 4.79012 30.06 4.78012 30.32 4.75012C30.58 4.73012 30.84 4.70012 31.1 4.66012L31.08 5.31012C30.79 5.31012 30.49 5.29012 30.21 5.28012C29.92 5.28012 29.63 5.27012 29.33 5.27012C29.11 5.27012 28.88 5.27012 28.67 5.28012C28.45 5.28012 28.24 5.30012 28.03 5.31012C28.08 4.88012 28.11 4.45012 28.12 4.01012C28.13 3.57012 28.14 3.13012 28.14 2.70012C28.14 2.27012 28.14 1.85012 28.12 1.41012C28.11 0.970117 28.08 0.540117 28.03 0.120117H29.03C28.98 0.550117 28.95 1.00012 28.94 1.47012C28.94 1.93012 28.93 2.39012 28.93 2.83012V2.82012Z" fill="#D2A66C"/>
<path d="M34.1001 5.31035C34.1501 4.88035 34.1801 4.44035 34.1901 4.01035C34.1901 3.58035 34.2101 3.15035 34.2101 2.71035C34.2101 2.27035 34.2101 1.84035 34.1901 1.41035C34.1901 0.980352 34.1501 0.550352 34.1001 0.110352H35.4601C35.6801 0.110352 35.9001 0.110352 36.1101 0.140352C36.3201 0.160352 36.5101 0.200352 36.6701 0.270352C36.8801 0.360352 37.0501 0.490352 37.1701 0.660352C37.2901 0.830352 37.3501 1.08035 37.3501 1.39035C37.3501 1.66035 37.3101 1.89035 37.2201 2.09035C37.1301 2.29035 37.0101 2.46035 36.8601 2.60035C36.7101 2.74035 36.5301 2.84035 36.3101 2.91035C36.1001 2.98035 35.8701 3.01035 35.6201 3.01035C35.5501 3.01035 35.4801 3.01035 35.4201 3.01035C35.3601 3.01035 35.2901 3.00035 35.2301 2.98035L35.1201 2.68035H35.2201C35.5801 2.68035 35.8801 2.59035 36.1101 2.41035C36.3401 2.23035 36.4501 1.95035 36.4501 1.58035C36.4501 1.24035 36.3601 0.990352 36.1801 0.830352C36.0001 0.670352 35.7401 0.590352 35.4001 0.590352H35.1901C35.1201 0.590352 35.0501 0.590352 34.9801 0.590352V2.91035C34.9801 3.30035 34.9801 3.70035 35.0001 4.11035C35.0101 4.52035 35.0401 4.92035 35.0801 5.31035H34.0801H34.1001Z" fill="#D2A66C"/>
<path d="M40.0299 0.110352C40.3399 0.950352 40.6799 1.82035 41.0499 2.70035C41.4199 3.58035 41.8099 4.45035 42.2299 5.30035H41.1499C41.0499 5.02035 40.9399 4.74035 40.8399 4.48035C40.7399 4.22035 40.6299 3.95035 40.5199 3.67035H38.5999C38.4899 3.94035 38.3899 4.22035 38.2999 4.49035C38.2099 4.76035 38.1199 5.03035 38.0199 5.31035H37.1799C37.2999 5.07035 37.4199 4.80035 37.5499 4.50035C37.6799 4.20035 37.8199 3.89035 37.9599 3.57035C38.0999 3.25035 38.2399 2.93035 38.3799 2.60035C38.5199 2.27035 38.6499 1.96035 38.7799 1.65035C38.8999 1.35035 39.0199 1.06035 39.1299 0.800352C39.2399 0.540352 39.3199 0.310352 39.3999 0.110352H40.0299ZM40.3499 3.17035C40.2299 2.86035 40.1099 2.53035 39.9599 2.17035C39.8199 1.81035 39.6799 1.48035 39.5499 1.16035C39.4899 1.31035 39.4199 1.48035 39.3399 1.65035C39.2699 1.82035 39.1999 2.00035 39.1299 2.18035C39.0599 2.36035 38.9899 2.53035 38.9299 2.70035C38.8699 2.87035 38.8099 3.03035 38.7599 3.17035H40.3499Z" fill="#D2A66C"/>
<path d="M42.73 5.31012C42.78 4.88012 42.81 4.43012 42.82 3.98012C42.82 3.53012 42.84 3.08012 42.84 2.65012C42.84 2.22012 42.84 1.79012 42.82 1.38012C42.82 0.980117 42.78 0.560117 42.73 0.120117H44.27C44.42 0.120117 44.57 0.120117 44.72 0.120117C44.87 0.120117 45.01 0.140117 45.14 0.160117C45.44 0.220117 45.69 0.350117 45.89 0.550117C46.08 0.750117 46.18 1.04012 46.18 1.42012C46.18 1.61012 46.15 1.80012 46.09 1.97012C46.03 2.14012 45.94 2.29012 45.82 2.43012C45.7 2.57012 45.56 2.68012 45.4 2.78012C45.24 2.87012 45.05 2.94012 44.85 2.97012C44.95 2.98012 45.04 3.03012 45.12 3.10012C45.2 3.17012 45.27 3.25012 45.32 3.34012C45.44 3.51012 45.55 3.69012 45.65 3.85012C45.75 4.02012 45.85 4.18012 45.95 4.34012C46.05 4.50012 46.15 4.66012 46.25 4.82012C46.35 4.98012 46.46 5.14012 46.57 5.30012H45.45C45.38 5.17012 45.3 5.03012 45.23 4.87012C45.16 4.71012 45.07 4.56012 44.98 4.40012C44.89 4.24012 44.8 4.08012 44.71 3.93012C44.62 3.78012 44.52 3.64012 44.43 3.51012C44.26 3.28012 44.06 3.17012 43.82 3.17012H43.73C43.73 3.17012 43.68 3.17012 43.64 3.17012C43.64 3.52012 43.66 3.89012 43.67 4.26012C43.68 4.63012 43.7 4.98012 43.74 5.30012H42.74L42.73 5.31012ZM43.62 2.67012C43.68 2.67012 43.75 2.69012 43.8 2.69012C43.86 2.69012 43.91 2.69012 43.97 2.69012C44.17 2.69012 44.34 2.67012 44.5 2.63012C44.66 2.59012 44.8 2.52012 44.91 2.43012C45.02 2.34012 45.11 2.23012 45.18 2.09012C45.24 1.95012 45.27 1.79012 45.27 1.60012C45.27 1.24012 45.17 0.980117 44.99 0.830117C44.8 0.680117 44.53 0.610117 44.17 0.610117H43.62V2.68012V2.67012Z" fill="#D2A66C"/>
<path d="M48.2501 5.31035C48.3001 4.88035 48.3301 4.44035 48.3401 4.01035C48.3501 3.58035 48.3601 3.15035 48.3601 2.71035C48.3601 2.35035 48.3601 2.00035 48.3601 1.65035C48.3601 1.30035 48.3401 0.960352 48.3101 0.620352C48.2701 0.620352 48.2401 0.620352 48.1901 0.620352H48.0901C47.8501 0.620352 47.5901 0.630352 47.3201 0.650352C47.0501 0.670352 46.8001 0.700352 46.5601 0.740352V0.110352C46.9101 0.130352 47.2801 0.140352 47.6501 0.150352C48.0201 0.160352 48.3901 0.160352 48.7601 0.160352C49.1301 0.160352 49.4901 0.160352 49.8701 0.150352C50.2401 0.150352 50.6101 0.130352 50.9701 0.110352V0.740352C50.7001 0.700352 50.4401 0.670352 50.1801 0.650352C49.9301 0.630352 49.6701 0.620352 49.4001 0.620352H49.3001C49.3001 0.620352 49.2201 0.620352 49.1901 0.620352C49.1701 0.980352 49.1601 1.33035 49.1601 1.66035C49.1601 1.99035 49.1601 2.35035 49.1601 2.70035C49.1601 3.13035 49.1601 3.57035 49.1801 4.00035C49.1801 4.43035 49.2201 4.86035 49.2701 5.30035H48.2701L48.2501 5.31035Z" fill="#D2A66C"/>
<path d="M55.47 5.31012C54.93 4.63012 54.38 3.96012 53.84 3.31012C53.3 2.66012 52.74 2.00012 52.16 1.34012C52.16 1.40012 52.16 1.46012 52.16 1.55012C52.16 1.64012 52.16 1.72012 52.16 1.82012V2.36012C52.16 2.83012 52.17 3.32012 52.2 3.82012C52.23 4.33012 52.27 4.82012 52.32 5.31012H51.54C51.58 4.83012 51.61 4.35012 51.63 3.88012C51.65 3.41012 51.66 2.92012 51.66 2.43012V2.06012C51.66 1.74012 51.66 1.41012 51.63 1.09012C51.61 0.770117 51.59 0.450117 51.55 0.120117H52.37C52.85 0.760117 53.35 1.39012 53.85 2.01012C54.35 2.63012 54.88 3.23012 55.42 3.82012V3.14012C55.42 2.64012 55.41 2.13012 55.38 1.63012C55.35 1.13012 55.31 0.620117 55.26 0.120117H56.04C56 0.630117 55.97 1.14012 55.95 1.65012C55.93 2.15012 55.92 2.67012 55.92 3.19012C55.92 3.54012 55.92 3.90012 55.92 4.25012C55.92 4.60012 55.93 4.96012 55.95 5.32012H55.46L55.47 5.31012Z" fill="#D2A66C"/>
<path d="M57.27 5.31035C57.32 4.88035 57.35 4.44035 57.36 4.02035C57.36 3.59035 57.38 3.16035 57.38 2.72035C57.38 2.28035 57.38 1.85035 57.37 1.42035C57.37 0.990351 57.33 0.560352 57.28 0.120352C57.32 0.120352 57.4 0.120352 57.49 0.130352C57.58 0.140352 57.69 0.130352 57.81 0.130352C57.93 0.130352 58.04 0.130352 58.15 0.130352H58.41C58.57 0.130352 58.73 0.130352 58.86 0.130352C59 0.130352 59.13 0.130352 59.26 0.130352C59.39 0.130352 59.52 0.130352 59.65 0.120352C59.78 0.120352 59.93 0.120352 60.09 0.110352L60.07 0.750352C59.8 0.710352 59.54 0.680352 59.29 0.650352C59.04 0.630352 58.78 0.610352 58.51 0.610352C58.47 0.610352 58.41 0.610352 58.33 0.610352C58.25 0.610352 58.19 0.610352 58.15 0.620352V2.37035C58.2 2.37035 58.26 2.37035 58.33 2.38035C58.39 2.38035 58.45 2.38035 58.5 2.38035C58.72 2.38035 58.94 2.38035 59.18 2.36035C59.42 2.35035 59.65 2.33035 59.87 2.30035V2.93035C59.64 2.91035 59.4 2.89035 59.17 2.88035C58.94 2.87035 58.7 2.86035 58.47 2.86035C58.42 2.86035 58.36 2.86035 58.31 2.86035C58.25 2.86035 58.21 2.86035 58.16 2.87035V4.40035C58.16 4.51035 58.16 4.61035 58.16 4.72035C58.21 4.74035 58.3 4.75035 58.42 4.76035C58.54 4.76035 58.66 4.77035 58.76 4.77035C59.04 4.77035 59.32 4.75035 59.59 4.72035C59.86 4.69035 60.11 4.66035 60.34 4.64035L60.32 5.29035C60.04 5.29035 59.75 5.27035 59.46 5.26035C59.17 5.25035 58.88 5.25035 58.57 5.25035C58.35 5.25035 58.12 5.25035 57.9 5.26035C57.68 5.26035 57.46 5.28035 57.25 5.29035L57.27 5.31035Z" fill="#D2A66C"/>
<path d="M61.1699 5.31012C61.2199 4.88012 61.2499 4.43012 61.2599 3.98012C61.2599 3.53012 61.2799 3.08012 61.2799 2.65012C61.2799 2.22012 61.2799 1.79012 61.2599 1.38012C61.2599 0.980117 61.2199 0.560117 61.1699 0.120117H62.7099C62.8599 0.120117 63.0099 0.120117 63.1599 0.120117C63.3099 0.120117 63.4499 0.140117 63.5799 0.160117C63.8799 0.220117 64.1299 0.350117 64.3299 0.550117C64.5199 0.750117 64.6199 1.04012 64.6199 1.42012C64.6199 1.61012 64.5899 1.80012 64.5299 1.97012C64.4699 2.14012 64.3799 2.29012 64.2599 2.43012C64.1399 2.57012 63.9999 2.68012 63.8399 2.78012C63.6799 2.87012 63.4899 2.94012 63.2899 2.97012C63.3899 2.98012 63.4799 3.03012 63.5599 3.10012C63.6399 3.17012 63.7099 3.25012 63.7599 3.34012C63.8799 3.51012 63.9899 3.69012 64.0899 3.85012C64.1899 4.02012 64.2899 4.18012 64.3899 4.34012C64.4899 4.50012 64.5899 4.66012 64.6899 4.82012C64.7899 4.98012 64.8999 5.14012 65.0099 5.30012H63.8899C63.8199 5.17012 63.7399 5.03012 63.6699 4.87012C63.5999 4.71012 63.5099 4.56012 63.4199 4.40012C63.3299 4.24012 63.2399 4.08012 63.1499 3.93012C63.0599 3.78012 62.9599 3.64012 62.8699 3.51012C62.6999 3.28012 62.4999 3.17012 62.2599 3.17012H62.1699C62.1699 3.17012 62.1199 3.17012 62.0799 3.17012C62.0799 3.52012 62.0999 3.89012 62.1099 4.26012C62.1199 4.63012 62.1399 4.98012 62.1799 5.30012H61.1799L61.1699 5.31012ZM62.0599 2.67012C62.1199 2.67012 62.1899 2.69012 62.2399 2.69012C62.2999 2.69012 62.3499 2.69012 62.4099 2.69012C62.6099 2.69012 62.7799 2.67012 62.9399 2.63012C63.0999 2.59012 63.2399 2.52012 63.3499 2.43012C63.4599 2.34012 63.5499 2.23012 63.6199 2.09012C63.6799 1.95012 63.7099 1.79012 63.7099 1.60012C63.7099 1.24012 63.6099 0.980117 63.4299 0.830117C63.2399 0.680117 62.9699 0.610117 62.6099 0.610117H62.0599V2.68012V2.67012Z" fill="#D2A66C"/>
<path d="M68.46 1.22957H68.29C68.19 0.98957 68.05 0.79957 67.86 0.66957C67.67 0.53957 67.46 0.46957 67.23 0.46957C67 0.46957 66.79 0.53957 66.65 0.66957C66.51 0.80957 66.44 0.98957 66.44 1.22957C66.44 1.46957 66.5 1.64957 66.62 1.78957C66.74 1.92957 66.89 2.03957 67.07 2.13957C67.25 2.22957 67.45 2.31957 67.65 2.38957C67.86 2.45957 68.06 2.55957 68.23 2.66957C68.4 2.77957 68.56 2.91957 68.68 3.09957C68.8 3.27957 68.86 3.50957 68.86 3.79957C68.86 4.06957 68.81 4.29957 68.71 4.50957C68.61 4.70957 68.47 4.87957 68.3 5.00957C68.13 5.13957 67.93 5.23957 67.7 5.30957C67.47 5.37957 67.23 5.40957 66.98 5.40957C66.71 5.40957 66.45 5.37957 66.2 5.32957C65.95 5.27957 65.72 5.18957 65.51 5.04957L65.72 4.11957H65.88C66 4.36957 66.17 4.57957 66.37 4.73957C66.58 4.89957 66.83 4.97957 67.14 4.97957C67.41 4.97957 67.63 4.90957 67.81 4.75957C67.99 4.60957 68.08 4.40957 68.08 4.13957C68.08 3.90957 68.02 3.72957 67.9 3.59957C67.78 3.46957 67.62 3.35957 67.44 3.25957C67.26 3.16957 67.06 3.07957 66.85 3.00957C66.64 2.93957 66.44 2.83957 66.26 2.72957C66.08 2.61957 65.93 2.46957 65.8 2.29957C65.68 2.11957 65.62 1.88957 65.62 1.58957C65.62 1.32957 65.67 1.09957 65.77 0.90957C65.87 0.71957 66 0.55957 66.17 0.42957C66.34 0.30957 66.53 0.20957 66.75 0.14957C66.97 0.0895703 67.21 0.0595703 67.45 0.0595703C67.66 0.0595703 67.87 0.0795703 68.07 0.10957C68.28 0.13957 68.47 0.20957 68.65 0.31957L68.47 1.24957L68.46 1.22957Z" fill="#D2A66C"/>
</svg>
