<?xml version="1.0" encoding="UTF-8"?>
<svg id="Layer_2" data-name="Layer 2" xmlns="http://www.w3.org/2000/svg" viewBox="0 0 75.88 14.39">
  <defs>
    <style>
      .cls-1 {
        fill: #d2a66c;
      }
    </style>
  </defs>
  <g id="Layer_1-2" data-name="Layer 1">
    <g>
      <path class="cls-1" d="m12.36,2.61c0,.38-.07.75-.2,1.08-.13.34-.31.63-.55.88s-.53.45-.87.59-.72.21-1.14.21-.79-.07-1.11-.2-.59-.31-.81-.54c-.22-.23-.39-.5-.5-.82-.11-.32-.17-.67-.17-1.05s.06-.75.2-1.08c.13-.34.31-.63.55-.88s.53-.45.87-.59.72-.21,1.14-.21.79.07,1.11.2c.32.13.59.31.81.54.22.23.39.5.5.83s.17.67.17,1.05Zm-.93.12c0-.28-.03-.55-.1-.82-.07-.27-.17-.51-.31-.73s-.33-.39-.55-.53c-.22-.13-.49-.2-.81-.2s-.56.07-.77.2c-.21.13-.39.3-.53.51-.14.21-.24.44-.31.7-.07.26-.1.52-.1.77,0,.27.03.55.1.82.07.27.17.51.31.73s.33.39.55.52c.23.13.5.2.81.2s.56-.07.77-.2.39-.3.53-.51.24-.45.31-.71.1-.52.1-.77Z"/>
      <path class="cls-1" d="m14.11,3.01c0,.38,0,.76.02,1.15.01.39.04.77.09,1.15h-1c.05-.43.08-.87.09-1.3,0-.43.01-.86.01-1.3s0-.88-.01-1.3c0-.43-.04-.86-.09-1.3.05,0,.13,0,.23.01.1,0,.21,0,.32,0,.11,0,.22,0,.33,0h.29c.12,0,.26,0,.4,0,.14,0,.29,0,.43,0,.15,0,.29,0,.43-.01s.28,0,.4-.01l-.02.64c-.27-.04-.53-.07-.79-.1-.25-.02-.52-.04-.79-.04-.04,0-.1,0-.17,0-.07,0-.13,0-.18.01v1.89c.06,0,.11,0,.17.01.06,0,.12,0,.17,0,.23,0,.48,0,.73-.02s.49-.04.73-.06v.63c-.24-.02-.48-.04-.74-.05-.25-.02-.5-.02-.74-.02-.05,0-.11,0-.17,0-.06,0-.11,0-.16.01Z"/>
      <path class="cls-1" d="m17.89,3.01c0,.38,0,.76.02,1.15.01.39.04.77.09,1.15h-1c.05-.43.08-.87.09-1.3,0-.43.02-.86.02-1.3s0-.88-.01-1.3c0-.43-.04-.86-.09-1.3.05,0,.13,0,.23.01.1,0,.21,0,.32,0,.11,0,.22,0,.33,0h.29c.12,0,.26,0,.4,0,.14,0,.29,0,.43,0,.14,0,.29,0,.43-.01s.28,0,.4-.01l-.02.64c-.27-.04-.53-.07-.79-.1-.26-.02-.52-.04-.79-.04-.04,0-.1,0-.17,0-.07,0-.13,0-.18.01v1.89c.05,0,.11,0,.17.01.06,0,.12,0,.17,0,.24,0,.48,0,.73-.02s.49-.04.73-.06v.63c-.24-.02-.48-.04-.74-.05-.25-.02-.5-.02-.73-.02-.06,0-.11,0-.17,0-.06,0-.11,0-.16.01Z"/>
      <path class="cls-1" d="m20.78,5.3c.05-.43.08-.87.09-1.3,0-.43.01-.86.01-1.3s0-.88-.01-1.3c-.01-.43-.04-.86-.09-1.3h1c-.05.43-.08.87-.09,1.3-.01.43-.02.86-.02,1.3s0,.87.02,1.3c0,.43.04.86.09,1.3h-1Z"/>
      <path class="cls-1" d="m26.85,1.31h-.16c-.12-.29-.3-.51-.55-.64-.25-.13-.51-.2-.78-.2-.32,0-.59.06-.82.19s-.41.29-.56.5c-.15.21-.25.45-.32.71-.07.27-.1.54-.1.83s.04.57.12.83c.08.26.2.48.35.67s.35.33.59.44c.24.11.51.16.83.16.29,0,.58-.04.86-.12.28-.08.55-.19.82-.33l.07.42-1.05.5c-.06.03-.14.04-.23.06-.09.01-.18.03-.27.04-.09,0-.18.02-.27.02-.09,0-.17,0-.24,0-.38,0-.72-.06-1.04-.18-.31-.12-.58-.29-.79-.51s-.39-.49-.51-.81c-.12-.31-.18-.67-.18-1.07,0-.44.07-.83.22-1.18.15-.35.36-.65.62-.89.27-.24.58-.43.95-.56.37-.13.77-.19,1.2-.19.22,0,.47.02.73.06s.5.11.71.23l-.21,1.02Z"/>
      <path class="cls-1" d="m28.05,5.3c.05-.43.08-.87.09-1.3,0-.43.02-.86.02-1.3s0-.88-.02-1.3c0-.43-.04-.86-.09-1.3h1c-.05.43-.08.87-.09,1.3,0,.43-.01.86-.01,1.3s0,.87.01,1.3c0,.43.04.86.09,1.3h-1Z"/>
      <path class="cls-1" d="m32.38.11c.32.84.66,1.71,1.02,2.59.37.89.76,1.75,1.18,2.6h-1.08c-.1-.29-.21-.56-.31-.82-.1-.26-.21-.53-.32-.81h-1.92c-.11.28-.21.55-.3.82-.09.27-.18.54-.28.82h-.84c.12-.24.24-.51.37-.81.13-.3.27-.61.41-.93.14-.32.28-.64.42-.97.14-.33.27-.64.4-.95.12-.3.24-.59.34-.85.1-.27.19-.5.27-.69h.63Zm.32,3.06c-.12-.31-.24-.64-.39-1s-.28-.7-.41-1.02c-.07.15-.13.32-.21.49-.07.18-.14.35-.21.53-.07.18-.14.35-.2.52-.06.17-.12.33-.17.47h1.59Z"/>
      <path class="cls-1" d="m35.97,2.81v.96c0,.17,0,.34,0,.51,0,.17,0,.32,0,.45.05.02.13.03.25.04s.23.01.33.01c.28,0,.55-.01.81-.04.26-.02.52-.05.78-.09l-.02.65c-.29,0-.59-.02-.87-.03-.29,0-.58-.01-.88-.01-.22,0-.45,0-.66.01-.22,0-.43.02-.64.03.05-.43.08-.86.09-1.3s.02-.88.02-1.32,0-.86-.02-1.29-.04-.87-.09-1.29h1c-.05.43-.08.88-.09,1.35,0,.47-.01.92-.01,1.36Z"/>
      <path class="cls-1" d="m43.11.11c.51,0,.94.06,1.3.17.36.11.65.27.87.48.23.21.39.45.49.74.1.29.15.6.15.94,0,.5-.09.93-.27,1.29-.18.37-.42.67-.73.91-.31.24-.66.42-1.07.54-.4.12-.83.18-1.29.18-.24,0-.48,0-.72-.03s-.47-.06-.7-.12c.04-.39.07-.79.08-1.19.02-.4.02-.8.02-1.19,0-.47,0-.92-.01-1.37,0-.44-.04-.89-.09-1.36h1.96Zm.23.51c-.08,0-.15-.02-.23-.02-.08,0-.2,0-.36,0h-.38c-.07,0-.14,0-.2,0-.06,0-.11,0-.14.01v2.61c0,.39,0,.69.01.91,0,.22.04.39.09.5s.13.18.24.21c.11.03.26.04.46.04.34,0,.65-.06.92-.18.26-.12.49-.28.67-.48.18-.21.33-.44.42-.72s.14-.56.14-.87c0-.6-.14-1.08-.41-1.42s-.69-.54-1.25-.59Z"/>
      <path class="cls-1" d="m46.78,5.3c.05-.43.08-.87.09-1.3,0-.43.01-.86.01-1.3s0-.88-.01-1.3c-.01-.43-.04-.86-.09-1.3h1c-.05.43-.08.87-.09,1.3-.01.43-.02.86-.02,1.3s0,.87.02,1.3c0,.43.04.86.09,1.3h-1Z"/>
      <path class="cls-1" d="m53.29,2.94c-.03.23-.04.46-.06.69-.01.23-.02.44-.02.62,0,.14,0,.29.01.44,0,.16.02.29.03.41-.28.1-.6.17-.96.21-.35.04-.69.06-1.02.06-.42,0-.79-.06-1.11-.18-.33-.12-.6-.3-.83-.52s-.4-.49-.52-.81-.18-.66-.18-1.05c0-.43.08-.82.24-1.17.16-.35.37-.64.65-.89.27-.25.6-.43.97-.57.37-.13.77-.2,1.2-.2.26,0,.54.02.81.06.28.04.53.13.75.26l-.25,1.02h-.17c-.12-.3-.31-.53-.55-.67-.24-.14-.51-.21-.83-.21-.33,0-.61.06-.85.18-.24.12-.44.29-.59.5-.16.21-.27.45-.35.72s-.11.56-.11.85c0,.33.04.62.12.89.08.27.2.5.36.7.16.2.37.35.62.46s.54.17.88.17c.13,0,.27,0,.42-.02.15-.01.29-.04.42-.08,0-.08,0-.17,0-.26v-.26c0-.23,0-.46-.02-.69-.02-.23-.04-.46-.07-.67h.98Z"/>
      <path class="cls-1" d="m54.46,5.3c.05-.43.08-.87.09-1.3,0-.43.02-.86.02-1.3s0-.88-.02-1.3c0-.43-.04-.86-.09-1.3h1c-.05.43-.08.87-.09,1.3,0,.43-.01.86-.01,1.3s0,.87.01,1.3c0,.43.04.86.09,1.3h-1Z"/>
      <path class="cls-1" d="m57.76,5.3c.05-.43.08-.87.09-1.3.01-.43.02-.86.02-1.3,0-.36,0-.71,0-1.06s-.02-.69-.04-1.03c-.04,0-.07,0-.12,0h-.1c-.25,0-.5.01-.77.03-.27.02-.52.05-.76.09V.11c.35.01.72.03,1.09.04.37.01.74.02,1.11.02s.74,0,1.11-.02c.38,0,.74-.02,1.1-.04v.63c-.27-.04-.53-.07-.79-.09s-.51-.03-.78-.03h-.1s-.08,0-.11,0c-.02.36-.03.71-.03,1.05,0,.34,0,.69,0,1.05,0,.43,0,.87.02,1.3,0,.43.04.86.09,1.3h-1Z"/>
      <path class="cls-1" d="m63.17.11c.32.84.66,1.71,1.02,2.59.37.89.76,1.75,1.18,2.6h-1.08c-.1-.29-.21-.56-.31-.82-.1-.26-.21-.53-.32-.81h-1.92c-.11.28-.21.55-.3.82-.09.27-.18.54-.28.82h-.84c.12-.24.24-.51.37-.81.13-.3.27-.61.41-.93.14-.32.28-.64.42-.97.14-.33.27-.64.4-.95.12-.3.24-.59.34-.85.1-.27.19-.5.27-.69h.63Zm.32,3.06c-.12-.31-.24-.64-.39-1s-.28-.7-.41-1.02c-.07.15-.13.32-.21.49-.07.18-.14.35-.21.53-.07.18-.14.35-.2.52-.06.17-.12.33-.17.47h1.59Z"/>
      <path class="cls-1" d="m66.76,2.81v.96c0,.17,0,.34,0,.51,0,.17,0,.32,0,.45.05.02.13.03.25.04s.23.01.33.01c.28,0,.55-.01.81-.04.26-.02.52-.05.78-.09l-.02.65c-.29,0-.59-.02-.87-.03-.29,0-.58-.01-.88-.01-.22,0-.45,0-.66.01-.22,0-.43.02-.64.03.05-.43.08-.86.09-1.3s.02-.88.02-1.32,0-.86-.02-1.29-.04-.87-.09-1.29h1c-.05.43-.08.88-.09,1.35,0,.47-.01.92-.01,1.36Z"/>
      <path class="cls-1" d="m2.95,10.22h-.17c-.1-.24-.24-.43-.43-.56-.19-.13-.4-.2-.63-.2s-.44.07-.58.2c-.14.14-.21.32-.21.56s.06.42.18.56c.12.14.27.25.45.35s.38.18.58.25.41.17.58.28c.18.11.33.25.45.43s.18.41.18.7c0,.27-.05.5-.15.71-.1.2-.24.37-.41.5s-.37.23-.6.3c-.23.07-.47.1-.72.1-.27,0-.53-.03-.78-.08s-.48-.14-.69-.28l.21-.93h.16c.12.25.29.46.49.62.21.16.46.24.77.24.27,0,.49-.07.67-.22s.27-.35.27-.62c0-.23-.06-.41-.18-.54-.12-.13-.28-.24-.46-.34s-.38-.18-.59-.25c-.21-.07-.41-.17-.59-.28-.18-.11-.33-.26-.46-.43-.12-.18-.18-.41-.18-.71,0-.26.05-.49.15-.68s.23-.35.4-.48c.17-.12.36-.22.58-.28s.46-.09.7-.09c.21,0,.42.02.62.05.21.03.4.1.58.21l-.18.93Z"/>
      <path class="cls-1" d="m5.26,14.3c.05-.43.08-.87.09-1.3,0-.43.01-.86.01-1.3,0-.36,0-.71,0-1.06,0-.35-.02-.69-.04-1.03-.04,0-.07,0-.12,0h-.1c-.25,0-.5.01-.77.03-.27.02-.53.05-.77.09v-.63c.35.01.72.03,1.09.04.37.01.74.02,1.11.02s.73,0,1.11-.02c.38,0,.74-.02,1.1-.04v.63c-.27-.04-.53-.07-.79-.09s-.52-.03-.78-.03h-.1s-.08,0-.11,0c-.01.36-.03.71-.03,1.05,0,.34,0,.69,0,1.05,0,.43,0,.87.01,1.3,0,.43.04.86.09,1.3h-1Z"/>
      <path class="cls-1" d="m8.57,14.3c.05-.43.08-.88.09-1.33,0-.46.01-.9.01-1.33s0-.86-.01-1.27c-.01-.4-.04-.83-.09-1.26h1.54c.15,0,.3,0,.45,0,.15,0,.29.02.42.04.3.06.55.19.75.39.19.2.29.49.29.87,0,.2-.03.38-.09.55s-.15.32-.27.46c-.12.14-.26.25-.42.35-.17.09-.35.16-.55.19.1.02.19.06.27.14.08.07.15.15.2.24.12.18.23.35.33.51.1.17.2.33.3.5.1.16.2.32.3.48.1.16.21.32.32.48h-1.12c-.07-.13-.15-.27-.23-.43-.08-.15-.17-.31-.25-.47s-.18-.32-.27-.47-.19-.29-.28-.42c-.17-.23-.37-.35-.61-.35h-.09s-.05,0-.09,0c.01.36.02.72.03,1.09s.04.72.08,1.04h-1Zm.89-2.64c.07,0,.13.02.18.02.06,0,.11,0,.17,0,.2,0,.37-.02.53-.06.16-.04.3-.11.41-.2s.2-.2.27-.34.09-.3.09-.49c0-.37-.1-.62-.29-.77-.19-.15-.46-.23-.83-.23h-.55v2.07Z"/>
      <path class="cls-1" d="m13.2,14.3c.05-.43.08-.87.09-1.29,0-.43.01-.86.01-1.3s0-.88-.01-1.3c0-.43-.04-.86-.09-1.3.04,0,.12,0,.21.01.1,0,.2,0,.32,0,.12,0,.23,0,.34,0h.26c.17,0,.32,0,.45,0,.14,0,.27,0,.4,0,.13,0,.26,0,.39-.01s.28,0,.44-.01l-.02.64c-.27-.04-.53-.07-.78-.1-.25-.02-.51-.04-.78-.04-.04,0-.1,0-.18,0-.08,0-.14,0-.18.01v1.75c.06,0,.12,0,.18.01.06,0,.12,0,.17,0,.21,0,.44,0,.68-.02.24-.02.47-.04.69-.06v.63c-.24-.02-.47-.04-.71-.05-.24-.02-.47-.02-.71-.02-.05,0-.11,0-.17,0-.05,0-.1,0-.15.01v1.53c0,.11,0,.21,0,.32.05.02.14.03.26.04s.24.01.34.01c.28,0,.56-.02.83-.04.27-.03.52-.06.75-.08v.65c-.3,0-.59-.02-.87-.03-.29,0-.58-.01-.89-.01-.22,0-.45,0-.67.01-.22,0-.44.02-.65.03Z"/>
      <path class="cls-1" d="m19.21,9.11c.32.84.66,1.71,1.02,2.59.37.89.76,1.75,1.18,2.6h-1.08c-.1-.29-.21-.56-.31-.82-.1-.26-.21-.53-.32-.81h-1.92c-.11.28-.21.55-.3.82-.09.27-.18.54-.28.82h-.84c.12-.24.24-.51.37-.81.13-.3.27-.61.41-.93.14-.32.28-.64.42-.97.14-.33.27-.64.4-.95.12-.3.24-.59.34-.85.1-.27.19-.5.27-.69h.63Zm.32,3.06c-.12-.31-.24-.64-.39-1s-.28-.7-.41-1.02c-.07.15-.13.32-.21.49-.07.18-.14.35-.21.53-.07.18-.14.35-.2.52-.06.17-.12.33-.17.47h1.59Z"/>
      <path class="cls-1" d="m23.05,9.11c.25.69.53,1.35.81,2,.29.65.59,1.31.9,1.97l.08-.19.3-.69c.06-.15.12-.3.18-.45s.12-.29.18-.44l.17-.4.31-.79.23-.6.15-.41h.85v.07s0,.04,0,.07c0,.04,0,.08,0,.13,0,.04,0,.09.01.13,0,.11,0,.22.02.33,0,.11.01.21.02.32v.25s.04.26.04.26c.01.25.04.51.07.76l.02.25s0,.08.01.13c0,.04,0,.09.02.13l.09.78c.01.11.03.22.04.33s.03.22.05.33c.02.13.04.27.06.4.02.13.04.27.07.4l.03.13h-.98v-.29s-.04-.59-.04-.59c0-.14-.02-.29-.03-.44s-.02-.29-.04-.44c0-.04,0-.07,0-.09l-.02-.29-.02-.2v-.2c-.04-.22-.07-.45-.09-.67-.03-.22-.05-.45-.08-.68l-.04.1s-.05.1-.07.15c-.02.05-.04.1-.06.15-.25.58-.5,1.17-.73,1.75s-.46,1.17-.69,1.75h-.59l-.11-.29c-.04-.08-.07-.17-.1-.25-.03-.08-.06-.16-.1-.24-.03-.08-.06-.17-.09-.24-.03-.08-.07-.16-.1-.24-.04-.07-.06-.13-.08-.19l-.33-.77-.04-.1-.17-.38-.52-1.16-.06.58c0,.08-.02.16-.02.24s0,.16-.01.24c-.01.06-.02.13-.02.19,0,.06,0,.13-.01.19-.03.41-.05.81-.07,1.21-.02.4-.03.8-.03,1.21h-.79l.07-.39.04-.25c0-.07.02-.13.03-.2.01-.06.02-.12.03-.2.01-.08.03-.17.04-.26.01-.09.02-.17.03-.26,0-.04.02-.08.02-.13s0-.09.01-.13c.02-.13.04-.26.05-.39s.03-.26.04-.39l.04-.39.05-.52.02-.26v-.26s.03-.13.03-.13l.06-1.05h.85Z"/>
      <path class="cls-1" d="m28.81,14.3c.05-.43.08-.87.09-1.3,0-.43.01-.86.01-1.3s0-.88-.01-1.3c-.01-.43-.04-.86-.09-1.3h1c-.05.43-.08.87-.09,1.3-.01.43-.02.86-.02,1.3s0,.87.02,1.3c0,.43.04.86.09,1.3h-1Z"/>
      <path class="cls-1" d="m34.96,14.3c-.54-.68-1.09-1.35-1.63-2.01s-1.11-1.31-1.68-1.97c0,.05,0,.12,0,.21,0,.08,0,.17,0,.27v.54c0,.47.01.96.04,1.47.03.51.07,1,.12,1.49h-.78c.04-.48.07-.96.09-1.43.02-.47.03-.96.03-1.45v-.38c0-.33,0-.65-.03-.97-.02-.32-.04-.64-.08-.97h.83c.48.64.98,1.28,1.48,1.89.5.62,1.03,1.22,1.57,1.82v-.68c0-.5-.01-1.01-.04-1.51s-.07-1.01-.12-1.51h.78c-.04.51-.07,1.03-.09,1.53-.02.5-.03,1.02-.03,1.54,0,.36,0,.71,0,1.06,0,.35.01.71.03,1.07h-.49Z"/>
      <path class="cls-1" d="m41.04,11.94c-.02.23-.04.46-.06.69-.02.23-.02.44-.02.62,0,.14,0,.29.01.44,0,.16.02.29.03.41-.29.1-.6.17-.96.21-.35.04-.69.06-1.02.06-.42,0-.79-.06-1.11-.18-.33-.12-.6-.3-.83-.52-.22-.23-.4-.49-.52-.81s-.18-.66-.18-1.05c0-.43.08-.82.24-1.17s.37-.64.65-.89c.28-.25.6-.43.97-.57.37-.13.77-.2,1.2-.2.27,0,.54.02.81.06.28.04.53.13.75.26l-.25,1.02h-.17c-.12-.3-.31-.53-.55-.67-.24-.14-.52-.21-.83-.21-.33,0-.61.06-.85.18-.24.12-.43.29-.59.5-.16.21-.27.45-.35.72s-.11.56-.11.85c0,.33.04.62.12.89.08.27.2.5.36.7.16.2.37.35.62.46s.54.17.89.17c.13,0,.27,0,.42-.02.15-.01.29-.04.42-.08,0-.08,0-.17,0-.26v-.26c0-.23,0-.46-.02-.69-.01-.23-.04-.46-.07-.67h.98Z"/>
      <path class="cls-1" d="m44.46,14.3c.05-.43.08-.87.09-1.3,0-.43.01-.86.01-1.3s0-.88-.01-1.3c-.01-.43-.04-.86-.09-1.3h1.36c.22,0,.44,0,.65.03.21.02.4.06.56.13.21.08.38.21.5.39.12.17.18.42.18.73,0,.26-.04.5-.13.7-.09.2-.21.37-.36.51s-.33.24-.55.31c-.21.07-.44.1-.69.1-.07,0-.14,0-.2,0s-.13-.02-.19-.03l-.11-.3h.11c.36,0,.66-.09.89-.27.23-.18.35-.46.35-.83,0-.34-.09-.59-.27-.75s-.44-.24-.78-.24h-.21c-.07,0-.14,0-.21,0v2.33c0,.39,0,.79.02,1.2.02.41.04.81.08,1.2h-1Z"/>
      <path class="cls-1" d="m50.69,9.11c.32.84.66,1.71,1.02,2.59.37.89.76,1.75,1.18,2.6h-1.08c-.1-.29-.21-.56-.31-.82-.1-.26-.21-.53-.32-.81h-1.92c-.11.28-.21.55-.3.82-.09.27-.18.54-.28.82h-.84c.12-.24.24-.51.37-.81.13-.3.27-.61.41-.93.14-.32.28-.64.42-.97.14-.33.27-.64.4-.95.12-.3.24-.59.34-.85.1-.27.19-.5.27-.69h.63Zm.32,3.06c-.12-.31-.24-.64-.39-1s-.28-.7-.41-1.02c-.07.15-.13.32-.21.49-.07.18-.14.35-.21.53-.07.18-.14.35-.2.52-.06.17-.12.33-.17.47h1.59Z"/>
      <path class="cls-1" d="m53.39,14.3c.05-.43.08-.88.09-1.33s.02-.9.02-1.33,0-.86-.02-1.27c0-.4-.04-.83-.09-1.26h1.54c.15,0,.3,0,.45,0s.29.02.42.04c.31.06.56.19.75.39.2.2.29.49.29.87,0,.2-.03.38-.09.55s-.15.32-.27.46c-.12.14-.26.25-.42.35-.17.09-.35.16-.55.19.1.02.19.06.27.14.08.07.15.15.2.24.12.18.23.35.33.51.1.17.2.33.3.5.1.16.2.32.3.48.1.16.21.32.32.48h-1.12c-.07-.13-.14-.27-.22-.43-.08-.15-.17-.31-.25-.47-.09-.16-.18-.32-.27-.47-.09-.15-.19-.29-.28-.42-.17-.23-.37-.35-.61-.35h-.09s-.05,0-.09,0c0,.36.02.72.03,1.09,0,.37.03.72.07,1.04h-1Zm.89-2.64c.06,0,.13.02.18.02.06,0,.11,0,.17,0,.2,0,.37-.02.53-.06.16-.04.3-.11.41-.2.11-.09.2-.2.27-.34s.09-.3.09-.49c0-.37-.09-.62-.29-.77-.19-.15-.46-.23-.82-.23h-.55v2.07Z"/>
      <path class="cls-1" d="m59.1,14.3c.05-.43.08-.87.09-1.3.01-.43.02-.86.02-1.3,0-.36,0-.71,0-1.06s-.02-.69-.04-1.03c-.04,0-.07,0-.12,0h-.1c-.25,0-.5.01-.77.03-.27.02-.52.05-.76.09v-.63c.35.01.72.03,1.09.04.37.01.74.02,1.11.02s.74,0,1.11-.02c.38,0,.74-.02,1.1-.04v.63c-.27-.04-.53-.07-.79-.09s-.51-.03-.78-.03h-.1s-.08,0-.11,0c-.02.36-.03.71-.03,1.05,0,.34,0,.69,0,1.05,0,.43,0,.87.02,1.3,0,.43.04.86.09,1.3h-1Z"/>
      <path class="cls-1" d="m66.33,14.3c-.54-.68-1.09-1.35-1.64-2.01s-1.1-1.31-1.68-1.97c0,.05,0,.12,0,.21,0,.08,0,.17,0,.27v.54c0,.47.01.96.04,1.47.03.51.07,1,.12,1.49h-.78c.04-.48.07-.96.09-1.43.02-.47.03-.96.03-1.45v-.38c0-.33,0-.65-.03-.97-.02-.32-.04-.64-.08-.97h.83c.49.64.98,1.28,1.49,1.89.5.62,1.03,1.22,1.57,1.82v-.68c0-.5-.01-1.01-.04-1.51-.03-.5-.07-1.01-.12-1.51h.78c-.04.51-.07,1.03-.09,1.53-.02.5-.03,1.02-.03,1.54,0,.36,0,.71,0,1.06s.01.71.03,1.07h-.49Z"/>
      <path class="cls-1" d="m68.13,14.3c.05-.43.08-.87.09-1.29,0-.43.01-.86.01-1.3s0-.88-.01-1.3c0-.43-.04-.86-.09-1.3.04,0,.12,0,.21.01.1,0,.2,0,.32,0,.12,0,.23,0,.34,0h.26c.17,0,.32,0,.45,0,.14,0,.27,0,.4,0,.13,0,.26,0,.39-.01s.28,0,.44-.01l-.02.64c-.27-.04-.53-.07-.78-.1-.25-.02-.51-.04-.78-.04-.04,0-.1,0-.18,0-.08,0-.14,0-.18.01v1.75c.06,0,.12,0,.18.01.06,0,.12,0,.17,0,.21,0,.44,0,.68-.02.24-.02.47-.04.69-.06v.63c-.24-.02-.47-.04-.71-.05-.24-.02-.47-.02-.71-.02-.05,0-.11,0-.17,0-.05,0-.1,0-.15.01v1.53c0,.11,0,.21,0,.32.05.02.14.03.26.04s.24.01.34.01c.28,0,.56-.02.83-.04.27-.03.52-.06.75-.08v.65c-.3,0-.59-.02-.87-.03-.29,0-.58-.01-.89-.01-.22,0-.45,0-.67.01-.22,0-.44.02-.65.03Z"/>
      <path class="cls-1" d="m72.04,14.3c.05-.43.08-.88.09-1.33s.02-.9.02-1.33,0-.86-.02-1.27c0-.4-.04-.83-.09-1.26h1.54c.15,0,.3,0,.45,0s.29.02.42.04c.31.06.56.19.75.39.2.2.29.49.29.87,0,.2-.03.38-.09.55s-.15.32-.27.46c-.12.14-.26.25-.42.35-.17.09-.35.16-.55.19.1.02.19.06.27.14.08.07.15.15.2.24.12.18.23.35.33.51.1.17.2.33.3.5.1.16.2.32.3.48.1.16.21.32.32.48h-1.12c-.07-.13-.14-.27-.22-.43-.08-.15-.17-.31-.25-.47-.09-.16-.18-.32-.27-.47-.09-.15-.19-.29-.28-.42-.17-.23-.37-.35-.61-.35h-.09s-.05,0-.09,0c0,.36.02.72.03,1.09,0,.37.03.72.07,1.04h-1Zm.89-2.64c.06,0,.13.02.18.02.06,0,.11,0,.17,0,.2,0,.37-.02.53-.06.16-.04.3-.11.41-.2.11-.09.2-.2.27-.34s.09-.3.09-.49c0-.37-.09-.62-.29-.77-.19-.15-.46-.23-.82-.23h-.55v2.07Z"/>
    </g>
  </g>
</svg>