<svg width="73" height="21" fill="none" xmlns="http://www.w3.org/2000/svg"><path d="M19.046 19.94h-.43s-.09-.01-.12-.04c-.03-.02-.05-.06-.07-.09l-.29-.76h-1.48l-.29.76s-.03.06-.07.09c-.04.03-.07.04-.12.04h-.43l1.36-3.44h.57l1.36 3.44h.01Zm-1.06-1.29-.47-1.26c-.04-.1-.08-.22-.12-.37l-.06.21c-.02.06-.04.12-.06.17l-.47 1.25h1.18ZM20.166 17.86c.1-.12.22-.22.35-.29a.936.936 0 0 1 .82-.03c.11.05.21.13.29.24.08.11.14.24.18.39.04.15.07.33.07.53 0 .18-.02.35-.07.5a1.087 1.087 0 0 1-.54.67c-.13.06-.27.1-.44.1-.14 0-.26-.02-.36-.07-.1-.05-.19-.11-.27-.19v1.03h-.51V17.5h.31c.07 0 .11.03.13.1l.04.26Zm.03 1.47c.07.09.15.16.24.19.09.04.18.06.28.06.2 0 .36-.07.47-.22.11-.15.17-.36.17-.65 0-.15-.01-.28-.04-.38a.783.783 0 0 0-.11-.26.473.473 0 0 0-.17-.15.593.593 0 0 0-.23-.05c-.13 0-.24.03-.34.08-.09.06-.18.14-.26.24v1.13l-.01.01ZM23.186 17.83c.05-.05.11-.1.16-.15.06-.04.12-.08.18-.11s.13-.06.2-.07c.07-.01.15-.03.23-.03.13 0 .25.02.35.07.1.04.19.11.26.19s.12.18.16.29c.03.11.05.24.05.38v1.55h-.51V18.4c0-.16-.04-.29-.11-.38a.43.43 0 0 0-.34-.14c-.11 0-.22.03-.32.08s-.19.12-.28.21v1.77h-.51v-2.43h.31c.07 0 .11.03.13.1l.04.22ZM26.086 18.76c0 .14.03.26.06.36.04.1.09.18.15.25s.13.12.22.15.18.05.29.05a.835.835 0 0 0 .45-.11c.05-.03.1-.05.14-.08.04-.02.07-.03.11-.03.04 0 .07.02.1.05l.15.19a.91.91 0 0 1-.21.18c-.08.05-.16.09-.24.12-.08.03-.17.05-.26.07-.09.02-.18.02-.26.02-.17 0-.33-.03-.47-.08-.14-.06-.27-.14-.37-.25a1.13 1.13 0 0 1-.25-.41 1.605 1.605 0 0 1-.01-1.03c.05-.15.13-.27.23-.38.1-.11.22-.19.36-.26.14-.06.3-.09.48-.09.15 0 .29.02.42.07s.24.12.33.21c.09.09.16.21.22.34.05.14.08.29.08.46 0 .08 0 .13-.03.16-.02.03-.05.04-.1.04h-1.59Zm1.22-.32c0-.09-.01-.17-.04-.24a.453.453 0 0 0-.11-.19.594.594 0 0 0-.18-.13.604.604 0 0 0-.24-.05c-.19 0-.33.05-.44.16-.11.11-.17.26-.2.45h1.21ZM30.616 16.41v3.53h-.51v-3.53h.51ZM32.196 16.77s0 .09-.03.13c-.02.04-.04.08-.08.11-.03.03-.07.06-.11.07-.04.02-.09.03-.13.03-.04 0-.09 0-.13-.03a.413.413 0 0 1-.11-.07c-.03-.03-.05-.07-.07-.11a.308.308 0 0 1-.03-.13c0-.04 0-.09.03-.13.02-.04.04-.08.07-.11.03-.03.07-.06.11-.07.04-.02.08-.03.13-.03s.09 0 .13.03c.04.02.08.04.11.07.03.03.06.07.08.11.02.04.03.09.03.13Zm-.09.74v2.43h-.51v-2.43h.51ZM35.246 17.51l-1.34 3.13s-.04.07-.06.09c-.02.02-.06.03-.11.03h-.38l.45-.97-.99-2.27h.45s.08 0 .1.03c.02.02.04.04.05.07l.58 1.38s.03.08.04.12l.03.12c.01-.04.03-.08.04-.12.01-.04.03-.08.04-.12l.56-1.38s.03-.05.06-.07c.03-.02.06-.03.09-.03h.41l-.02-.01ZM36.217 18.76c0 .14.03.26.06.36.04.1.09.18.15.25s.13.12.22.15.18.05.29.05a.835.835 0 0 0 .45-.11c.05-.03.1-.05.14-.08.04-.02.07-.03.1-.03.04 0 .07.02.1.05l.15.19a.91.91 0 0 1-.21.18c-.08.05-.16.09-.24.12-.09.03-.17.05-.26.07-.09.02-.18.02-.26.02-.17 0-.32-.03-.47-.08-.14-.06-.27-.14-.37-.25a1.13 1.13 0 0 1-.25-.41 1.605 1.605 0 0 1-.01-1.03c.05-.14.13-.27.23-.38.1-.11.22-.19.36-.26.14-.06.3-.09.48-.09.15 0 .29.02.42.07s.24.12.33.21c.09.09.16.21.22.34.05.14.08.29.08.46 0 .08 0 .13-.03.16s-.05.04-.1.04h-1.58Zm1.22-.32c0-.09-.01-.17-.04-.24a.453.453 0 0 0-.11-.19.594.594 0 0 0-.18-.13.604.604 0 0 0-.24-.05c-.19 0-.33.05-.44.16-.11.11-.17.26-.2.45h1.21ZM38.626 19.65s0-.09.03-.13c.02-.04.04-.08.07-.11.03-.03.06-.05.11-.07.04-.02.08-.03.13-.03s.09 0 .13.03c.04.02.08.04.11.07.03.03.05.07.07.11.02.04.03.08.03.13s0 .09-.03.13c-.02.04-.04.07-.07.11-.03.03-.07.05-.11.07-.04.02-.08.03-.13.03s-.09 0-.13-.03a.413.413 0 0 1-.11-.07c-.03-.03-.05-.07-.07-.11a.277.277 0 0 1-.03-.13ZM44.496 19.94h-.43s-.09-.01-.12-.04c-.03-.02-.05-.06-.07-.09l-.29-.76h-1.48l-.29.76s-.03.06-.07.09c-.04.03-.07.04-.12.04h-.43l1.36-3.44h.57l1.36 3.44h.01Zm-1.06-1.29-.47-1.26c-.04-.1-.08-.22-.12-.37l-.06.21c-.02.06-.04.12-.06.17l-.47 1.25h1.18ZM45.606 17.86c.1-.12.22-.22.35-.29a.936.936 0 0 1 .82-.03c.11.05.21.13.29.24.08.11.14.24.18.39.04.15.07.33.07.53 0 .18-.02.35-.07.5a1.087 1.087 0 0 1-.54.67c-.13.06-.27.1-.44.1-.14 0-.26-.02-.36-.07-.1-.05-.19-.11-.27-.19v1.03h-.51V17.5h.31c.07 0 .11.03.13.1l.04.26Zm.03 1.47c.07.09.15.16.24.19.09.04.18.06.28.06.2 0 .36-.07.47-.22.11-.15.17-.36.17-.65 0-.15-.01-.28-.04-.38a.783.783 0 0 0-.11-.26.473.473 0 0 0-.17-.15.593.593 0 0 0-.23-.05c-.13 0-.24.03-.34.08-.09.06-.18.14-.26.24v1.13l-.01.01ZM48.627 17.83c.05-.05.11-.1.16-.15.06-.04.12-.08.18-.11s.13-.06.2-.07c.07-.01.15-.03.23-.03.13 0 .25.02.35.07.1.04.19.11.26.19s.12.18.16.29c.03.11.05.24.05.38v1.55h-.51V18.4c0-.16-.04-.29-.11-.38a.43.43 0 0 0-.34-.14c-.11 0-.22.03-.32.08s-.19.12-.28.21v1.77h-.51v-2.43h.31c.07 0 .11.03.13.1l.04.22ZM52.206 17.47c.18 0 .34.03.49.09.15.06.27.14.37.25.1.11.18.24.24.39.06.15.08.33.08.52s-.03.37-.08.52c-.06.15-.13.29-.24.39-.1.11-.23.19-.37.25-.15.06-.31.09-.49.09s-.34-.03-.49-.09a.97.97 0 0 1-.37-.25c-.1-.11-.18-.24-.24-.39a1.42 1.42 0 0 1-.08-.52c0-.19.03-.37.08-.52.06-.15.14-.29.24-.39.1-.1.23-.19.37-.25.15-.06.31-.09.49-.09Zm0 2.11c.22 0 .38-.07.49-.22.11-.15.16-.36.16-.63s-.05-.48-.16-.63c-.11-.15-.27-.22-.49-.22-.22 0-.39.07-.5.22-.11.15-.16.36-.16.63s.05.48.16.63c.11.15.27.22.5.22ZM56.237 16.41v2.05h.11s.06 0 .09-.01.05-.03.07-.06l.68-.78s.05-.06.08-.07c.03-.02.07-.02.11-.02h.47l-.82.93c-.05.06-.1.11-.16.15.03.02.06.05.08.08.02.03.05.06.07.09l.88 1.19h-.46s-.08 0-.11-.02c-.03-.01-.06-.04-.08-.08l-.7-.95s-.05-.06-.07-.07a.268.268 0 0 0-.11-.02h-.13v1.14h-.51v-3.53h.51v-.02ZM58.786 18.76c0 .14.03.26.06.36.04.1.09.18.15.25s.13.12.22.15.18.05.29.05a.835.835 0 0 0 .45-.11c.05-.03.1-.05.14-.08.04-.02.07-.03.1-.03.04 0 .07.02.1.05l.15.19a.91.91 0 0 1-.21.18c-.08.05-.16.09-.24.12-.09.03-.17.05-.26.07-.09.02-.18.02-.26.02-.17 0-.32-.03-.47-.08-.14-.06-.27-.14-.37-.25a1.13 1.13 0 0 1-.25-.41 1.605 1.605 0 0 1-.01-1.03c.05-.14.13-.27.23-.38.1-.11.22-.19.36-.26.14-.06.3-.09.48-.09.15 0 .29.02.42.07s.24.12.33.21c.09.09.16.21.22.34.05.14.08.29.08.46 0 .08 0 .13-.03.16s-.05.04-.1.04h-1.58Zm1.22-.32c0-.09-.01-.17-.04-.24a.453.453 0 0 0-.11-.19.594.594 0 0 0-.18-.13.604.604 0 0 0-.24-.05c-.19 0-.33.05-.44.16-.11.11-.17.26-.2.45h1.21ZM63.326 16.41v3.53h-.51v-3.53h.51ZM64.906 16.77s0 .09-.03.13c-.02.04-.04.08-.08.11-.03.03-.07.06-.11.07-.04.02-.09.03-.13.03-.04 0-.09 0-.13-.03-.04-.02-.08-.04-.11-.07-.03-.03-.05-.07-.07-.11a.308.308 0 0 1-.03-.13c0-.04 0-.09.03-.13.02-.04.04-.08.07-.11.03-.03.07-.06.11-.07.04-.02.08-.03.13-.03s.09 0 .13.03c.04.02.08.04.11.07.03.03.06.07.08.11.02.04.03.09.03.13Zm-.09.74v2.43h-.51v-2.43h.51ZM67.956 17.51l-1.34 3.13s-.04.07-.06.09c-.02.02-.06.03-.11.03h-.38l.45-.97-.99-2.27h.45s.08 0 .1.03c.02.02.04.04.05.07l.58 1.38a1.587 1.587 0 0 0 .07.24c.01-.04.03-.08.04-.12.01-.04.03-.08.04-.12l.56-1.38s.03-.05.06-.07c.03-.02.06-.03.09-.03h.41l-.02-.01ZM68.916 18.76c0 .14.03.26.06.36.04.1.09.18.15.25s.13.12.22.15.18.05.29.05a.835.835 0 0 0 .45-.11c.05-.03.1-.05.14-.08.04-.02.07-.03.11-.03.04 0 .07.02.1.05l.15.19a.91.91 0 0 1-.21.18 1.344 1.344 0 0 1-.5.19c-.09.01-.18.02-.27.02-.17 0-.32-.03-.47-.08-.14-.06-.27-.14-.37-.25a1.13 1.13 0 0 1-.25-.41 1.605 1.605 0 0 1-.01-1.03c.05-.15.13-.27.23-.38.1-.11.22-.19.36-.26.14-.06.3-.09.48-.09.15 0 .29.02.42.07s.24.12.33.21c.09.09.16.21.22.34.05.14.08.29.08.46 0 .08 0 .13-.03.16-.02.03-.05.04-.1.04h-1.58Zm1.22-.32c0-.09-.01-.17-.04-.24a.453.453 0 0 0-.11-.19.594.594 0 0 0-.18-.13.604.604 0 0 0-.24-.05c-.19 0-.33.05-.44.16-.11.11-.17.26-.2.45h1.21ZM71.336 19.65s0-.09.03-.13c.03-.04.04-.08.07-.11a.36.36 0 0 1 .1-.07c.04-.02.08-.03.13-.03s.09 0 .13.03c.04.02.08.04.11.07.03.03.05.07.07.11.02.04.03.08.03.13s0 .09-.03.13c-.02.04-.04.07-.07.11-.03.03-.07.05-.11.07-.04.02-.08.03-.13.03s-.09 0-.13-.03c-.04-.02-.08-.04-.1-.07-.03-.03-.05-.07-.07-.11a.277.277 0 0 1-.03-.13ZM6.966 10.53v-2.1c0-.14.03-.21.16-.27.77-.38 1.15-1.22.95-2.06-.19-.8-.93-1.37-1.76-1.37s-1.56.58-1.76 1.41c-.19.8.2 1.65.95 2.02.15.07.19.16.18.31v4.11c0 .29 0 .29-.28.25-2.1-.34-3.68-1.45-4.67-3.33-2.02-3.81.32-8.53 4.55-9.22a6.326 6.326 0 0 1 7.24 5.04c.69 3.53-1.67 6.93-5.22 7.5-.227.04-.34-.057-.34-.29v-2ZM34.206 6.14c.15.1.31.18.45.29 1.02.77 1.36 1.8 1.25 2.97-.17 1.72-1.37 2.87-3.33 3.25-.45.09-.91.13-1.37.13h-4.72c-.19 0-.25-.04-.25-.23V.49c0-.18.05-.23.25-.23h4.77c1.06.01 2.07.22 2.91.86a3.146 3.146 0 0 1 .16 4.9c-.04.03-.07.06-.11.1l-.01.02Zm-5.12.38v3.68c0 .17.04.23.23.22.7-.01 1.4 0 2.1 0 .94 0 1.57-.57 1.61-1.42.04-.87-.51-1.45-1.46-1.53-.31-.03-.63-.02-.94-.01-.14 0-.18-.04-.18-.17V5.31c0-.14.05-.17.19-.16h.74c.37-.03.72-.13.93-.45.3-.47.31-.97.06-1.45-.24-.46-.7-.6-1.21-.61h-1.83c-.18 0-.23.04-.23.22v3.68l-.01-.02ZM20.656.09c1.42.02 2.7.36 3.81 1.19.37.28.37.29.15.67-.33.57-.67 1.15-.98 1.73-.1.18-.15.15-.29.04-.75-.62-1.62-1.02-2.64-1.07-.43-.02-.84.06-1.2.29-.64.4-.69 1.08-.12 1.55.28.22.6.37.93.51.81.35 1.67.62 2.45 1.02.83.43 1.55.96 1.94 1.8.73 1.58.17 3.98-2.31 4.82-1.74.59-3.44.35-5.07-.4-.57-.26-1.08-.61-1.53-1.04-.11-.11-.11-.17-.02-.29.46-.58.92-1.16 1.36-1.75.12-.16.18-.14.32-.02.84.72 1.8 1.2 2.97 1.25.32.01.62-.03.92-.14.72-.28 1.04-1.23.24-1.79-.36-.25-.75-.44-1.16-.61-.68-.29-1.38-.54-2.04-.87-.86-.43-1.63-.96-2.06-1.82-.66-1.31-.24-2.99.99-4 .96-.78 2.1-1.08 3.33-1.08l.01.01ZM40.246 6.55v5.98c0 .2-.05.26-.27.25-.85-.01-1.7-.01-2.55 0-.17 0-.21-.05-.21-.19V.46c0-.15.04-.2.21-.19.86 0 1.71.01 2.57 0 .2 0 .24.05.24.23v6.05h.01ZM51.936 10.74l-.61 2.04h-7.32V.29h2.66v10.45h5.28-.01Zm3.77-8.93c0 .35-.13.66-.38.94-.25.28-.58.42-.97.42s-.74-.13-1.01-.38a1.22 1.22 0 0 1-.41-.93c0-.37.13-.71.38-.98s.58-.4.99-.4c.38 0 .71.13.99.38.28.26.42.57.42.94l-.01.01Zm-.24 10.97h-2.42V4.89l2.42-1.16v9.05ZM62.456.32l-.52 1.84s-.09-.06-.11-.08c-.22-.12-.44-.17-.66-.17-.59 0-.89.44-.89 1.32v.83h1.81l-.48 1.86h-1.33v6.85h-2.42V5.92h-1.35l.48-1.86h.87V2.95c0-.89.25-1.6.76-2.14s1.2-.81 2.08-.81c.36 0 .76.05 1.2.16.15.04.33.09.55.16h.01Zm9.5 6.78-6.38 3.15c.21.23.39.39.53.5.45.33.93.5 1.44.5.58 0 1.11-.2 1.6-.61.16-.13.35-.34.57-.63l1.66.97c-.37.47-.7.81-1 1.04-.9.69-1.93 1.04-3.1 1.04-1.32 0-2.44-.44-3.38-1.31-.94-.87-1.41-1.96-1.41-3.26 0-1.3.43-2.35 1.29-3.26.92-.97 2.1-1.45 3.52-1.45 1.06 0 2 .3 2.83.9.83.6 1.44 1.41 1.82 2.43l.01-.01Zm-2.55-.61c-.2-.3-.48-.55-.84-.74-.36-.19-.77-.28-1.21-.28-.73 0-1.35.28-1.88.83-.53.55-.79 1.14-.79 1.76 0 .14.01.27.04.38.02.11.05.21.07.31l4.61-2.26Z" fill="#fff"/></svg>