<svg width="68" height="15" fill="none" xmlns="http://www.w3.org/2000/svg"><g clip-path="url(#a)" fill="#fcfeff"><path d="M8.45 7.55c.14-.13.19-.37.19-.57V3.59c0-.24-.03-.42-.19-.57-.14-.14-.33-.2-.57-.2h-.69v4.93h.69c.24 0 .43-.07.57-.2ZM59.96 4.66h1.03v7.81h2.31V2.56h-2.68l-.66 2.1ZM23.98 3.34c-.26-.24-.59-.43-.98-.57-.39-.14-.86-.21-1.4-.21h-3.98l.66.9v8.11l-.66.9h3.98c.54 0 1-.07 1.4-.21.39-.14.72-.34.98-.59.26-.25.45-.53.58-.85.13-.32.19-.66.19-1.02V5.19c0-.36-.06-.69-.19-1.01-.13-.32-.32-.6-.58-.84ZM22.44 9.8c0 .25-.09.46-.27.64-.18.17-.43.26-.74.26h-.85V4.29h.85c.31 0 .56.09.74.26.18.17.27.39.27.64V9.8ZM31.32 8.12c.18-.09.35-.2.51-.34.16-.14.52-.53.52-1.3v-1.8c0-.21-.02-.43-.06-.68-.04-.24-.13-.47-.29-.69-.15-.22-.38-.4-.69-.54-.31-.14-.73-.21-1.27-.21h-4.07v9.91h2.3V9.03h1.35c.28 0 .57.14.57.53v2.91h2.34v-2.8c0-.47-.14-1.37-1.22-1.55m-1.3-1.74c0 .52-.19.81-.72.83h-1.03V4.19h.92c.26 0 .84.04.83.78v1.41ZM33.61 4.83v5.36c-.02 1.78 1.19 2.27 2.26 2.28h3.14v-1.84h-2.68c-.47 0-.42-.46-.42-.46V8.42h2.75V6.6h-2.75V4.89s-.03-.5.42-.5h2.68V2.57h-2.99c-2.14 0-2.41 1.43-2.41 2.27M43.76 2.56h-3.58v9.91h2.3V9.03h2.05v3.44h2.34V5.4c0-2.14-1.46-2.84-3.11-2.84Zm.77 4.65h-2.05V4.19h1.05c.75 0 .99.32 1 .96v2.06ZM55.49 2.39c-.92 0-1.7.18-2.26.44-.18-.12-.4-.22-.64-.29-.25-.07-1.81-.36-4.38.13v9.8h2.3V4.48c1.04-.12 1.32.02 1.42.08.38.22.38.68.38.86v7.04h2.02V5.18c0-.16-.01-.33-.04-.51.1-.04.2-.08.4-.12.2-.04.66-.15 1.04.04.18.09.39.28.39.78v7.1h2.3V5.22c0-.75-.05-1.54-.65-2.1-.4-.37-.94-.73-2.27-.72M65.03 2.56l-.66 2.1h1.03v7.81h2.31V2.56h-2.68Z"/><path d="M9.13 11.99c2.66-1.76 3.92-2.67 4.49-3.25 1.6-1.62 1.54-2.77 1.52-4.96v-.74l-.26-.18s-.75-.5-1.59-.81v1.27c.29.13.55.27.72.38v.1c.02 1.48.04 2.46-.38 3.4-.24.54-.54.83-.81 1.14-.88 1.02-4.58 3.72-4.58 3.72v-.11s2.34-1.99 2.74-2.4c1.7-1.72 1.84-3.26 1.86-4.27V.97S10.46-.02 7.58 0C4.07.03 2.3.97 2.3.97v4.3c.02 1.01.15 2.52 1.85 4.24.4.41 2.73 2.42 2.73 2.42v.11S3.13 9.38 2.27 8.35c-.38-.45-.65-.87-.82-1.28-.3-.63-.32-1.87-.31-3.29v-.1c.18-.1.43-.25.72-.38V2.03c-.84.31-1.55.79-1.59.81L0 3.03v.74C-.02 5.96-.03 7.2 1.52 8.73c.51.5 2.55 1.95 4.46 3.25.48.33.77.54.77.54-.02.01-1.19.97-1.31 1.07-.39.33-.51.52-.51.74v.53h5.26v-.53c-.02-.25-.12-.41-.51-.74-.21-.17-.48-.39-.91-.75l-2.52 1.17v-.05l2.88-1.97ZM4.81 9.13l.62-.67V2.18l-.62-.67h2.34c1.45 0 1.69.05 1.99.16.3.11.5.23.7.42.2.19.35.4.45.65.1.24.15.5.15.78v3.54c0 .27-.05.54-.15.78-.1.25-.25.47-.45.66-.2.19-.46.33-.76.45-.58.23-1.84.17-2.09.17H4.8"/></g><defs><clipPath id="a"><path fill="#fcfeff" d="M0 0h67.71v14.86H0z"/></clipPath></defs></svg>