<svg width="137" height="49" viewBox="0 0 137 49" fill="none" xmlns="http://www.w3.org/2000/svg">
<g clip-path="url(#clip0_2288_58607)">
<path d="M0 0V48.25H136.69V0H0Z" fill="#991C21"/>
<path d="M40.2205 8.03906H8.06055V40.1991H40.2205V8.03906ZM10.3805 10.3591H37.9105V37.8891H10.3805V10.3591Z" fill="white"/>
<path d="M13.4199 18.7584V13.3984H34.8599V18.7584H13.4199Z" fill="white"/>
<path d="M13.4199 34.8485V29.4785H18.7799V34.8485H13.4199Z" fill="white"/>
<path d="M13.4199 26.7997V21.4297H26.7999V26.7997H13.4199Z" fill="white"/>
<path d="M48.25 13.3887H50.48V24.1487H48.25V13.3887Z" fill="white"/>
<path d="M57.0503 13.3887C60.4403 13.3887 61.6603 14.8587 61.6603 18.7187C61.6603 22.5787 60.3703 24.1487 57.0403 24.1487H52.5703V13.3887H57.0603H57.0503ZM54.7803 15.2387V22.3087H56.7503C58.9103 22.3087 59.4103 21.4887 59.4103 18.7387C59.4103 15.8087 59.0903 15.2387 56.5103 15.2387H54.7803Z" fill="white"/>
<path d="M63.3809 13.3887H70.9409V15.2387H65.6009V17.7587H70.2709V19.5987H65.6009V24.1487H63.3809V13.3887Z" fill="white"/>
<path d="M81.3013 20.6084C81.1513 22.7084 79.9813 24.3884 76.6613 24.3884C73.3413 24.3884 71.7812 22.7784 71.7812 18.8184C71.7812 14.8584 73.3312 13.1484 76.6712 13.1484C79.3112 13.1484 80.9313 14.2784 81.2913 16.7384H79.0713C78.8113 15.7784 78.5012 15.0384 76.6712 15.0384C74.8412 15.0384 74.0312 16.1384 74.0312 19.0184C74.0312 21.2584 74.6312 22.4984 76.7012 22.4984C78.1912 22.4984 78.8913 22.0284 79.0713 20.6084H81.2913H81.3013Z" fill="white"/>
<path d="M87.2109 13.3887H94.7709V15.2387H89.4309V17.7587H94.1009V19.5987H89.4309V24.1487H87.2109V13.3887Z" fill="white"/>
<path d="M96.2109 13.3887H98.4409V24.1487H96.2109V13.3887Z" fill="white"/>
<path d="M100.521 13.3887H105.191C107.431 13.3887 109.381 13.4487 109.381 16.6187C109.381 18.7187 108.511 19.4987 107.281 19.7887L110.091 24.1587H107.391L104.751 19.9287H102.751V24.1587H100.531V13.3987L100.521 13.3887ZM102.741 15.2387V18.0787H104.741C106.531 18.0787 107.131 17.8987 107.131 16.5487C107.131 15.4687 106.761 15.2387 104.881 15.2387H102.751H102.741Z" fill="white"/>
<path d="M112.89 20.7687C112.98 21.8987 113.15 22.4987 115.28 22.4987C116.4 22.4987 117.23 22.3287 117.23 21.2387C117.23 20.5787 116.93 20.2187 115.98 19.9587L113.37 19.2487C112.06 18.9087 110.91 18.2687 110.91 16.3087C110.91 14.7587 111.62 13.1387 114.95 13.1387C118.28 13.1387 119.11 14.6087 119.15 16.5287H116.93C116.82 15.6287 116.78 15.0287 114.86 15.0287C113.74 15.0287 113.17 15.2387 113.17 16.0987C113.17 16.8787 113.63 17.1087 114.27 17.2687L116.67 17.9087C118.2 18.3187 119.49 18.9187 119.49 21.0587C119.49 24.0887 116.89 24.3787 115.29 24.3787C111.78 24.3787 110.82 22.9987 110.68 20.7587H112.9L112.89 20.7687Z" fill="white"/>
<path d="M123.24 15.2787H120V13.3887H128.69V15.2787H125.46V24.1487H123.24V15.2787Z" fill="white"/>
<path d="M53.5098 29.4688C55.6298 29.4688 56.7798 30.2187 56.7798 32.2587C56.7798 33.9287 56.0098 34.2688 55.5498 34.4688C56.8698 34.9788 57.1998 35.9988 57.1998 37.1288C57.1998 38.8988 56.3898 40.2388 53.4198 40.2388H48.2598V29.4788H53.5098V29.4688ZM50.4798 31.3188V33.7087H52.9698C54.3098 33.7087 54.6398 33.5488 54.6398 32.4288C54.6398 31.5288 54.4298 31.3188 52.5498 31.3188H50.4798ZM50.4798 35.5487V38.3888H52.4798C54.5098 38.3888 54.9598 38.2387 54.9598 37.0087C54.9598 35.7187 54.5398 35.5487 52.9198 35.5487H50.4898H50.4798Z" fill="white"/>
<path d="M58.6697 34.7289C58.7797 32.6889 59.9497 32.1289 62.0797 32.1289C64.2097 32.1289 65.4297 32.7189 65.4297 34.4389V40.2289H63.4297V39.6289C63.0197 40.0489 62.2597 40.4289 60.9997 40.4289C59.1097 40.4289 58.4297 39.5889 58.4297 38.2389C58.4297 36.4789 59.5697 35.8189 60.7297 35.6389L63.3397 35.2289V34.7489C63.3397 34.0089 62.9597 33.7989 61.9897 33.7989C60.9497 33.7989 60.7397 34.0389 60.6397 34.7189H58.6697V34.7289ZM63.3397 36.5889L61.8797 36.8289C61.0797 36.9489 60.5097 37.1189 60.5097 37.9589C60.5097 38.5589 60.8097 38.8889 61.7397 38.8889C63.0197 38.8889 63.3297 38.1989 63.3297 37.2189V36.5889H63.3397Z" fill="white"/>
<path d="M72.3498 35.6891C72.3498 34.4691 72.3398 33.8391 70.9998 33.8391C69.5098 33.8391 69.3498 34.6191 69.3498 36.4791V40.2291H67.2598V32.3191H69.2398V33.3391C69.8098 32.5691 70.4298 32.1191 71.8798 32.1191C73.9098 32.1191 74.4298 32.9891 74.4298 35.3891V40.2191H72.3398V35.6691L72.3498 35.6891Z" fill="white"/>
<path d="M76.4512 29.4688H78.5412V35.2488L81.1012 32.3288H83.6712L80.9112 35.3288L83.7712 40.2288H81.3612L79.4412 36.7987L78.5412 37.7288V40.2288H76.4512V29.4688Z" fill="white"/>
</g>
<defs>
<clipPath id="clip0_2288_58607">
<rect width="136.69" height="48.25" fill="white"/>
</clipPath>
</defs>
</svg>
