<svg width="40" height="36" fill="none" xmlns="http://www.w3.org/2000/svg"><g clip-path="url(#a)"><path d="M1.94 36c-.63 0-1.11-.16-1.44-.48-.33-.32-.49-.78-.49-1.36v-.12H1.3c0 .29.05.5.15.63.1.13.26.2.49.2.23 0 .39-.07.48-.21.09-.14.13-.37.13-.67v-3.82h1.42v3.82c0 .67-.16 1.17-.49 1.51-.32.34-.83.5-1.53.5h-.01Zm2.81-4.4h1.29v4.27H4.75V31.6Zm-.07-1.19c0-.2.06-.36.19-.49s.31-.19.53-.19c.22 0 .4.06.53.19s.2.29.2.49-.07.36-.2.49c-.13.12-.31.18-.53.18-.22 0-.4-.06-.53-.18a.655.655 0 0 1-.19-.49Zm4.1 5.57c-.45 0-.84-.09-1.17-.28-.33-.19-.58-.45-.76-.78a2.64 2.64 0 0 1-.26-1.19c0-.45.09-.84.26-1.17.18-.34.43-.6.75-.79.33-.19.72-.28 1.17-.28.45 0 .84.09 1.16.28.33.19.58.45.76.79.18.34.26.73.26 1.17 0 .44-.09.85-.26 1.19-.18.34-.43.6-.76.78-.33.19-.72.28-1.16.28h.01Zm-.89-2.25c0 .41.08.72.23.95.15.23.37.34.66.34.29 0 .51-.11.66-.34.15-.23.23-.54.23-.95 0-.41-.07-.71-.22-.94-.15-.23-.37-.35-.68-.35-.28 0-.5.11-.65.34-.15.22-.23.54-.23.95Zm6.3 2.27c-.59 0-1.1-.13-1.53-.38-.43-.26-.76-.61-.98-1.06-.22-.45-.33-.96-.33-1.54 0-.58.11-1.08.34-1.53.23-.45.56-.8.99-1.06.43-.26.93-.39 1.52-.39.45 0 .85.07 1.21.22s.65.37.87.67c.23.29.37.65.42 1.06h-1.39a.924.924 0 0 0-.39-.58c-.2-.14-.44-.21-.73-.21-.46 0-.81.16-1.05.49-.24.32-.35.76-.35 1.32 0 .35.05.67.15.94.1.27.26.49.47.65.21.15.47.23.79.23.32 0 .58-.09.78-.26.2-.17.32-.41.36-.73h1.41c-.03.42-.16.8-.39 1.12-.23.32-.53.58-.91.76-.37.18-.8.27-1.27.27l.01.01Zm3.1-4.4h1.29v4.27h-1.29V31.6Zm-.07-1.19c0-.2.06-.36.19-.49s.31-.19.53-.19c.22 0 .4.06.53.19s.2.29.2.49-.07.36-.2.49c-.13.12-.31.18-.53.18-.22 0-.4-.06-.53-.18a.655.655 0 0 1-.19-.49Zm2.07 1.19h1.25v.58h.02c.14-.23.32-.4.54-.51.22-.12.48-.17.77-.17.48 0 .85.14 1.1.41.25.27.38.67.38 1.19v2.78h-1.29v-2.43c0-.33-.06-.57-.17-.72-.12-.15-.3-.23-.54-.23-.51 0-.76.32-.76.95v2.43H19.3v-4.27l-.01-.01Zm6.72 4.39c-.43 0-.82-.09-1.15-.27-.32-.18-.58-.44-.76-.78-.18-.34-.26-.74-.26-1.2 0-.43.09-.81.26-1.15.18-.35.43-.62.76-.81.33-.19.71-.29 1.15-.29.46 0 .84.1 1.16.3.32.19.57.47.73.83.16.36.25.78.25 1.26v.15H25.1c.01.34.1.6.27.78.17.19.41.28.72.28.21 0 .39-.04.53-.12.14-.08.23-.2.28-.34h1.16c-.12.43-.35.77-.7 1.01-.35.23-.79.35-1.34.35h-.01Zm.89-2.7c-.02-.29-.1-.51-.26-.67-.15-.16-.36-.25-.63-.25s-.47.08-.63.24c-.16.16-.26.38-.29.68h1.81Zm1.77-1.69h1.24v.59h.02c.29-.46.71-.69 1.28-.69.3 0 .55.06.75.18.21.12.36.3.45.53.31-.47.76-.71 1.34-.71.46 0 .81.13 1.06.4.25.26.38.64.38 1.12v2.86H33.9v-2.46c0-.31-.06-.54-.16-.69-.1-.15-.26-.23-.48-.23-.46 0-.68.31-.68.92v2.46h-1.29v-2.46c0-.31-.06-.54-.16-.69-.1-.15-.26-.23-.48-.23-.46 0-.68.31-.68.92v2.46h-1.29v-4.27l-.01-.01Zm8.5 4.39c-.3 0-.56-.05-.78-.16a1.2 1.2 0 0 1-.51-.46c-.12-.2-.17-.45-.17-.73 0-.92.7-1.39 2.1-1.39h.68v-.18c0-.27-.05-.47-.16-.59-.1-.13-.28-.19-.53-.19-.42 0-.65.16-.69.49h-1.23c.05-.42.23-.74.55-.96.32-.22.8-.33 1.42-.33.62 0 1.13.14 1.43.41.31.27.46.7.46 1.29v2.69h-1.15l-.07-.52h-.02c-.12.19-.28.34-.5.46-.22.12-.5.17-.83.17Zm-.16-1.44c0 .2.06.35.16.45.12.09.27.14.47.14.25 0 .45-.08.6-.23.15-.16.23-.38.23-.66v-.31H38c-.32 0-.57.05-.74.15-.17.09-.26.25-.26.47l.01-.01ZM19.99 24.74c6.83 0 12.37-5.53 12.37-12.37C32.36 5.53 26.82 0 19.99 0 13.16 0 7.62 5.53 7.62 12.37c0 6.84 5.53 12.37 12.37 12.37Z" fill="#fcfeff"/><path d="M25.87 5.77c-.02-.1-.06-.2-.11-.28a.735.735 0 0 0-.21-.22.757.757 0 0 0-.58-.12l-.69.12-1.5 2.63 3.36-.6-.27-1.53Zm-3.57-.15-3.19.57-1.5 2.62 3.19-.56 1.5-2.62v-.01Zm-5.16.91-2.84.5c-.2.03-.38.14-.5.31-.12.16-.17.37-.14.57l.26 1.55 1.7-.3 1.51-2.62.01-.01Zm-3.1 3.69v6.97a1.536 1.536 0 0 0 1.55 1.54h9.3a1.536 1.536 0 0 0 1.55-1.54v-6.97h-12.4Zm7.95 4.88-2.06 1.55c-.12.09-.25.14-.4.15a.772.772 0 0 1-.42-.08.67.67 0 0 1-.31-.29.73.73 0 0 1-.12-.41v-3.1c0-.14.04-.28.12-.41.08-.12.18-.22.31-.29.13-.06.27-.09.42-.08.14.01.28.07.4.15l2.06 1.55c.1.07.17.17.23.27s.08.23.08.35c0 .12-.03.24-.08.35-.05.11-.13.2-.23.27v.02Z" fill="#000"/></g><defs><clipPath id="a"><path fill="#fcfeff" d="M0 0h39.72v36H0z"/></clipPath></defs></svg>