<svg width="40" height="29" fill="none" xmlns="http://www.w3.org/2000/svg"><g clip-path="url(#a)" fill="#fcfeff"><path d="M31.61 5.01s0-.08.01-.13l.12-.7v-.03l.22-1.32h1.27l.25-1.43h-1.25l.21-1.4h-1.6l-.25 1.4h-.69l-.25 1.43h.69l-.24 1.35-.16.89c-.02.15-.03.3-.02.42.02.45.18.78.47.99.22.16.53.26.91.3.14.01.28.02.44.02h.79l.25-1.42h-.79c-.25 0-.38-.08-.39-.3v-.06l.01-.01ZM39.71 1.4l-.25 1.43h-3.63c-.07 0-.14.03-.2.08s-.1.11-.11.19v.04c-.02.07 0 .13.04.18.04.05.1.07.17.07h2.39c.25 0 .46.06.65.18.18.12.32.29.4.49.09.2.11.43.06.68l-.13.73c-.04.25-.15.47-.3.67-.16.2-.35.36-.57.48-.22.12-.46.18-.71.18h-3.98l.25-1.43h3.6c.08 0 .15-.03.22-.08.07-.06.11-.12.12-.2.01-.08 0-.14-.05-.19a.22.22 0 0 0-.18-.08h-2.47a1.036 1.036 0 0 1-.98-.62c-.08-.19-.1-.4-.06-.63l.15-.86c.04-.24.14-.46.29-.66.15-.2.34-.35.56-.47.22-.12.45-.18.69-.18H39.71ZM10.41 1.4l-.25 1.43H6.53c-.07 0-.14.03-.2.08s-.1.11-.11.19v.04c-.02.07 0 .13.04.18.04.05.1.07.17.07h2.39c.25 0 .46.06.65.18.18.12.32.29.4.49.09.2.11.43.06.68l-.13.73c-.04.25-.15.47-.3.67-.16.2-.35.36-.57.48-.22.12-.46.18-.71.18H4.24l.25-1.43h3.6c.08 0 .15-.03.22-.08.07-.06.11-.12.12-.2.01-.08 0-.14-.05-.19a.22.22 0 0 0-.18-.08H5.73a1.036 1.036 0 0 1-.98-.62c-.08-.19-.1-.4-.06-.63l.15-.86c.04-.24.14-.46.29-.66.15-.2.34-.35.56-.47.22-.12.45-.18.69-.18H10.41ZM13.17 6.8c-.56 0-.89-.18-1.09-.71l-.4 2.27h-1.65l1.24-6.96h1.58l-.13.72c.4-.54.78-.72 1.35-.72h1.13c1.26 0 1.77.44 1.81 1.35 0 .23-.02.51-.07.81l-.19 1.08c-.26 1.46-.91 2.16-2.5 2.16h-1.08Zm2.12-3.35c.02-.11.03-.2.03-.28 0-.23-.12-.34-.39-.34h-1.78c-.31 0-.48.11-.56.36l-.33 1.82c0 .25.11.36.43.36h1.78c.36 0 .51-.19.59-.62l.22-1.3h.01ZM19.34 6.8c-1.17 0-1.79-.39-1.82-1.31 0-.17 0-.37.05-.59l.28-1.6c.23-1.34 1.05-1.9 2.45-1.9h1.82c1.18 0 1.79.39 1.82 1.3 0 .18 0 .38-.05.6l-.28 1.6c-.24 1.35-1.04 1.9-2.45 1.9h-1.82Zm2.91-3.5c0-.06.02-.12.01-.17 0-.21-.14-.3-.4-.3h-1.82c-.31 0-.49.13-.54.47l-.28 1.6c0 .06-.02.12-.01.17 0 .22.14.3.39.3h1.82c.32 0 .5-.13.55-.47l.28-1.6ZM29 1.4h-1.81c-1.39 0-2.21.56-2.44 1.89l-.64 3.51h1.64l.64-3.51c.06-.34.23-.47.54-.47H28.81l.25-1.42h-.07.01ZM30.84 9.48H15.91c-1.23 0-2.41 1-2.63 2.23l-.88 4.97c-.03.19.02.38.13.52l1.18 1.48c.22.28.18.68-.08.91l-1.88 1.64a.7.7 0 0 0-.22.38l-.89 5.03c-.22 1.23.61 2.23 1.84 2.23h14.93c1.23 0 2.41-1 2.63-2.23l.88-4.97a.674.674 0 0 0-.13-.52l-1.18-1.5a.655.655 0 0 1 .08-.9l1.89-1.65c.11-.1.19-.23.21-.38l.88-5.01c.22-1.23-.61-2.23-1.84-2.23h.01Zm-5.13 11.28-.43 2.44c-.03.19-.2.33-.39.33h-7.86c-.25 0-.43-.22-.39-.46l.43-2.44c.03-.19.2-.33.39-.33h7.86c.25 0 .43.22.39.46Zm.96-5.44-.43 2.44c-.03.19-.2.33-.39.33h-7.86c-.25 0-.43-.22-.39-.46l.43-2.44c.03-.19.2-.33.39-.33h7.86c.25 0 .43.22.39.46ZM10.26 9.48H6.43l3.39 4.29h-.75L5.68 9.48H2.09l3.37 4.27-.15.82-2.5 14.31h5.33l3.17-18.15a1.06 1.06 0 0 0-1.04-1.24l-.01-.01Z"/><path d="M4.13 13.76.75 9.48H0l3.39 4.28h.74Z"/></g><defs><clipPath id="a"><path fill="#fcfeff" d="M0 0h39.71v28.87H0z"/></clipPath></defs></svg>