<svg width="58" height="28" fill="none" xmlns="http://www.w3.org/2000/svg"><path d="m32.773 6.709-1.04 3.737a.404.404 0 0 1-.16.235.505.505 0 0 1-.294.081h-1.087a.438.438 0 0 1-.293-.106.308.308 0 0 1-.12-.258l.042-2.168c.004-.114.009-.218.014-.312.006-.094.011-.195.015-.305h-.108a10.06 10.06 0 0 1-.12.599l-.59 2.233a.398.398 0 0 1-.165.235.509.509 0 0 1-.29.082H27.46a.437.437 0 0 1-.293-.107.309.309 0 0 1-.12-.258l.012-3.69h1.273l-.16 2.509c-.005.098-.012.202-.022.315-.01.111-.019.232-.027.361h.102a14.648 14.648 0 0 1 .167-.728l.574-2.104c.064-.235.217-.352.46-.352h.903a.39.39 0 0 1 .4.4v2.115a17.04 17.04 0 0 1-.012.67h.108a5.746 5.746 0 0 1 .126-.711l.549-2.474h1.273ZM35.188 6.625c.454 0 .821.063 1.1.188.278.125.468.344.57.655.102.311.115.749.038 1.314a4.52 4.52 0 0 1-.242 1.028 1.6 1.6 0 0 1-.41.629 1.431 1.431 0 0 1-.612.314c-.241.06-.523.091-.846.091-.474 0-.848-.064-1.12-.19-.273-.128-.454-.349-.54-.662-.089-.313-.094-.748-.019-1.304.06-.412.142-.752.246-1.02.103-.268.236-.479.4-.631.163-.154.362-.26.597-.321.235-.06.514-.091.837-.091h.001Zm-.012.946a.568.568 0 0 0-.344.094c-.086.063-.154.18-.206.352a6.535 6.535 0 0 0-.161.765c-.048.309-.07.544-.066.705.004.16.04.269.108.325.068.057.172.085.311.085.151 0 .27-.03.352-.094.084-.063.153-.18.206-.355.054-.174.107-.428.158-.761.048-.31.07-.544.066-.702-.004-.159-.04-.268-.108-.326-.068-.06-.174-.088-.317-.088ZM42.464 6.712c.147 0 .259.04.335.123.075.083.105.196.089.341l-.37 3.59h-1.166l.323-3.102h-.084l-.693 2.092a.501.501 0 0 1-.185.279.584.584 0 0 1-.334.085h-.658a.472.472 0 0 1-.325-.109.42.42 0 0 1-.134-.302l-.114-2.045h-.095l-.544 3.102h-1.165l.663-3.637a.579.579 0 0 1 .146-.317c.07-.067.178-.1.325-.1h1.1c.136 0 .243.036.323.108.08.073.122.175.125.309l.072 1.61a2.5 2.5 0 0 1 .006.296c-.004.1-.01.202-.017.309h.059a6.704 6.704 0 0 1 .15-.594l.501-1.67a.47.47 0 0 1 .183-.284.588.588 0 0 1 .332-.085h1.153-.001ZM44.854 6.684c.242 0 .488.002.737.006.25.003.49.01.72.02.232.01.438.029.622.056l-.144.893h-1.434c-.099 0-.172.017-.218.05-.045.034-.074.095-.086.185l-.239 1.687c-.011.074 0 .13.036.17.036.04.098.06.185.06h1.434l-.024.905a6.043 6.043 0 0 1-.633.053c-.232.007-.467.012-.706.014l-.681.003c-.339 0-.588-.104-.747-.312-.16-.207-.22-.472-.18-.792l.3-2.098c.04-.274.15-.493.33-.655.182-.162.424-.244.727-.244v-.001Zm-1.04 1.58h2.67l-.107.846h-2.701l.137-.846ZM51.499 6.712l-.52 3.637c-.02.144-.067.25-.14.317-.074.067-.184.1-.331.1h-.43c-.136 0-.233-.035-.29-.106a1.335 1.335 0 0 1-.17-.288l-.706-1.392a1.647 1.647 0 0 1-.12-.315 8.511 8.511 0 0 1-.089-.355h-.042c.004.125.004.249 0 .373a3.25 3.25 0 0 1-.035.379l-.257 1.704h-1.19l.52-3.637c.02-.145.067-.251.14-.318.075-.067.185-.1.332-.1h.43c.136 0 .232.036.287.108a1.6 1.6 0 0 1 .167.285l.693 1.322a3.433 3.433 0 0 1 .25.7h.049a2.746 2.746 0 0 1 .012-.688l.251-1.727h1.19-.001ZM52.924 6.623c.158 0 .268.031.331.096.064.064.085.171.066.32l-.053.351c-.02.129-.056.264-.107.407a2.694 2.694 0 0 1-.186.408 1.81 1.81 0 0 1-.24.338l-.503-.176c.06-.125.107-.25.145-.376l.11-.376c-.131.004-.219-.024-.265-.083-.045-.058-.06-.148-.044-.269l.041-.252c.024-.15.075-.253.155-.307a.588.588 0 0 1 .337-.083h.214l-.001.002ZM55.53 6.625c.23 0 .477.016.737.047s.508.086.738.164l-.113.812c-.12-.004-.26-.006-.421-.006-.161 0-.33-.001-.505-.004a40.11 40.11 0 0 0-.52-.003c-.068 0-.125.003-.173.01a.527.527 0 0 0-.12.026.179.179 0 0 0-.075.05.198.198 0 0 0-.038.08.166.166 0 0 0 .01.082c.01.027.034.054.074.081.04.028.1.061.18.1l.693.323c.227.106.398.218.514.335.115.118.19.252.224.403.034.15.039.326.015.526-.036.31-.114.551-.233.725a.937.937 0 0 1-.535.365c-.237.068-.555.103-.953.103a7.29 7.29 0 0 1-1.607-.205l.12-.888c.23.004.445.01.642.014a26.407 26.407 0 0 0 .779.015c.123 0 .22-.006.29-.018a.367.367 0 0 0 .155-.056.156.156 0 0 0 .063-.097.145.145 0 0 0-.003-.088.163.163 0 0 0-.063-.067 1.12 1.12 0 0 0-.131-.074l-.754-.364a1.716 1.716 0 0 1-.52-.362.888.888 0 0 1-.22-.414 1.422 1.422 0 0 1-.018-.47c.028-.223.082-.409.164-.558a.9.9 0 0 1 .338-.349c.143-.084.32-.145.532-.182.21-.037.456-.056.735-.056h-.002ZM28.558 12.238l-.58 4.055h-1.29l.58-4.055h1.29Zm.37-.058c.423 0 .755.042.999.126.243.084.408.23.495.438.088.208.106.496.054.864-.047.348-.13.62-.248.81a.92.92 0 0 1-.508.4c-.221.075-.512.112-.875.112a5.823 5.823 0 0 1-1.15-.117 4.31 4.31 0 0 1-.434-.112.991.991 0 0 1-.245-.106l.035-.564h1.68c.103 0 .184-.01.244-.03.06-.02.107-.066.14-.14.035-.075.062-.191.082-.347a.927.927 0 0 0 .009-.259.177.177 0 0 0-.086-.135.462.462 0 0 0-.222-.04c-.41 0-.757.002-1.043.008a7.141 7.141 0 0 0-.576.027l-.013-.875c.18-.02.347-.034.502-.041.155-.008.324-.013.505-.015s.4-.003.655-.003v-.001ZM32.643 12.238l-.58 4.055h-1.266l.58-4.055h1.266Zm.4-.058c.383 0 .702.04.956.117.255.078.438.21.55.397.112.186.145.441.102.767a1.43 1.43 0 0 1-.123.426.8.8 0 0 1-.284.326c-.127.086-.303.14-.525.164l-.007.041a.593.593 0 0 1 .427.27c.062.09.1.218.117.383l.156 1.222h-1.339l-.108-1.228c-.004-.114-.021-.184-.054-.212-.031-.027-.093-.04-.185-.04a64.256 64.256 0 0 0-.747-.007 11.777 11.777 0 0 1-.86-.024l.096-.869h1.637a.88.88 0 0 0 .278-.035.264.264 0 0 0 .15-.138c.033-.068.06-.165.08-.29a.512.512 0 0 0 0-.224.17.17 0 0 0-.102-.115.623.623 0 0 0-.227-.032c-.426 0-.782.003-1.067.009a7.206 7.206 0 0 0-.577.026l-.012-.875c.18-.02.348-.034.505-.041.157-.008.328-.013.511-.014.184-.003.4-.004.651-.004h.001ZM36.572 12.215c.243 0 .49.002.738.006.25.004.489.01.72.02.231.01.438.03.621.056l-.143.893h-1.434c-.1 0-.172.017-.218.05-.045.034-.075.095-.086.185l-.24 1.687c-.01.074 0 .131.037.17.035.04.098.06.185.06h1.434l-.024.905a6.069 6.069 0 0 1-.634.053c-.231.007-.466.013-.705.014-.239.003-.466.003-.681.003-.339 0-.588-.104-.748-.311-.16-.208-.218-.473-.18-.793l.3-2.098c.04-.274.15-.492.331-.655.182-.162.424-.244.727-.244v-.001Zm-1.04 1.58h2.672l-.108.846h-2.701l.137-.846ZM43.956 12.242c.147 0 .26.041.335.124.075.082.105.195.09.34l-.372 3.59h-1.165l.323-3.102h-.084l-.692 2.092a.5.5 0 0 1-.185.28.584.584 0 0 1-.335.084h-.658a.472.472 0 0 1-.325-.108.42.42 0 0 1-.134-.303l-.113-2.045h-.096l-.544 3.103h-1.165l.663-3.637c.028-.145.076-.251.146-.318.07-.067.178-.1.326-.1h1.099c.136 0 .243.037.323.109.08.072.122.175.126.308l.071 1.61c.008.098.01.197.006.296-.003.1-.01.203-.017.309h.06a6.698 6.698 0 0 1 .149-.594l.502-1.668a.47.47 0 0 1 .182-.285.587.587 0 0 1 .332-.085h1.153ZM46.737 12.242l-.58 4.055h-1.29l.58-4.055h1.29ZM48.565 12.215c.242 0 .488.002.737.006.25.004.49.01.72.02.232.01.438.03.622.056l-.144.893h-1.434c-.099 0-.172.017-.218.05-.045.034-.075.095-.086.185l-.239 1.687c-.012.074 0 .131.036.17.036.04.098.06.185.06h1.434l-.024.905a6.069 6.069 0 0 1-.634.053c-.23.007-.466.013-.705.014a70.47 70.47 0 0 1-.681.003c-.339 0-.588-.104-.747-.311-.16-.208-.22-.473-.18-.793l.3-2.098c.04-.274.15-.492.33-.655.182-.162.424-.244.727-.244v-.001Zm-1.04 1.58h2.67l-.107.846h-2.701l.137-.846ZM52.737 12.238l-.58 4.055h-1.266l.58-4.055h1.266Zm.4-.058c.382 0 .702.04.956.117.255.078.438.21.55.397.111.186.145.441.101.767-.02.153-.06.295-.122.426a.8.8 0 0 1-.284.326c-.127.086-.303.14-.526.164l-.006.041a.593.593 0 0 1 .427.27c.062.09.1.218.117.383l.155 1.222h-1.338l-.108-1.228c-.004-.114-.021-.184-.054-.212-.031-.027-.093-.04-.185-.04a64.256 64.256 0 0 0-.747-.007 11.771 11.771 0 0 1-.86-.024l.095-.869h1.638a.88.88 0 0 0 .277-.035.264.264 0 0 0 .15-.138c.034-.068.06-.165.08-.29a.512.512 0 0 0 0-.224.17.17 0 0 0-.1-.115.623.623 0 0 0-.228-.032c-.427 0-.782.003-1.067.009a7.21 7.21 0 0 0-.577.026l-.012-.875c.18-.02.347-.034.505-.041.157-.008.327-.013.51-.014.184-.003.4-.004.652-.004h.001ZM28.554 17.77l-.424 2.808c-.007.086.004.147.034.182.03.035.09.053.181.053h1.363l-.024.958a9.072 9.072 0 0 1-.938.064c-.351.008-.697.013-1.04.013-.2 0-.371-.041-.514-.124a.779.779 0 0 1-.32-.338.8.8 0 0 1-.063-.484l.443-3.133h1.302ZM31.768 17.746c.242 0 .489.002.737.006.25.004.49.01.72.02.232.01.438.03.622.057l-.144.893H32.27c-.1 0-.173.016-.219.05-.045.033-.074.094-.086.185l-.239 1.686c-.011.075 0 .131.036.17.036.04.098.06.185.06h1.434l-.024.905a6.043 6.043 0 0 1-.633.053c-.232.008-.467.013-.706.014-.239.003-.466.004-.681.004-.339 0-.588-.104-.747-.312-.16-.208-.22-.472-.18-.793l.3-2.097c.04-.275.15-.493.33-.655.182-.163.424-.244.727-.244v-.002Zm-1.04 1.58h2.67l-.107.846H30.59l.137-.845ZM36.949 17.766c.103 0 .195.034.275.1.08.067.126.151.137.253l.532 3.702h-1.296l-.215-2.662a2.343 2.343 0 0 1-.013-.23c0-.073.003-.148.006-.223h-.167a6.544 6.544 0 0 1-.044.209 1.567 1.567 0 0 1-.075.232l-1.01 2.673h-1.345l1.59-3.749a.46.46 0 0 1 .455-.305h1.17Zm.197 2.268-.107.929h-2.17l.114-.929h2.163ZM40.816 17.688c.164 0 .324.006.481.017.158.012.312.03.464.056.15.026.296.06.436.103l-.143.911c-.148-.003-.29-.006-.427-.006-.138 0-.278 0-.421-.003a30.31 30.31 0 0 0-.478-.003.9.9 0 0 0-.332.053.504.504 0 0 0-.224.177c-.06.082-.11.193-.153.332a3.881 3.881 0 0 0-.11.52c-.04.266-.058.47-.054.61.004.142.037.238.099.289.061.05.158.076.29.076a.802.802 0 0 0 .299-.047.876.876 0 0 0 .19-.105.939.939 0 0 1 .138-.088l.215.506a18.63 18.63 0 0 1-.194.217 2.4 2.4 0 0 1-.302.276 1.67 1.67 0 0 1-.416.235 1.43 1.43 0 0 1-.535.094c-.27 0-.5-.067-.69-.2-.19-.133-.32-.357-.394-.673-.075-.315-.073-.744.003-1.284.06-.42.145-.763.256-1.031.112-.268.257-.478.437-.628.18-.151.397-.256.654-.315.257-.06.56-.088.911-.088v-.002Zm1.362 1.804-.334 2.332h-.95l-.066-.628-.096-.218.21-1.486h1.236ZM46.854 17.77l-.352 2.403c-.06.432-.16.773-.302 1.026a1.213 1.213 0 0 1-.61.543c-.265.11-.617.165-1.055.165-.437 0-.76-.059-1.024-.177a1.02 1.02 0 0 1-.556-.567c-.105-.26-.13-.606-.075-1.037l.347-2.356h1.29l-.346 2.404a2.267 2.267 0 0 0-.036.479c.007.116.045.196.113.241.068.045.173.068.317.068a.681.681 0 0 0 .349-.074.456.456 0 0 0 .185-.256c.042-.12.08-.289.116-.505l.341-2.356h1.297l.001-.002ZM48.635 17.746c.243 0 .489.002.738.006s.488.01.72.02c.23.01.438.03.621.057l-.143.893h-1.434c-.1 0-.173.016-.218.05-.046.033-.075.094-.087.185l-.239 1.686c-.011.075 0 .131.036.17.036.04.098.06.186.06h1.433l-.023.905a6.043 6.043 0 0 1-.634.053c-.232.008-.467.013-.706.014a70.57 70.57 0 0 1-.681.004c-.338 0-.587-.104-.747-.312-.16-.208-.219-.472-.18-.793l.3-2.097c.04-.275.15-.493.33-.655.182-.163.424-.244.727-.244v-.002Zm-1.04 1.58h2.671l-.108.846h-2.701l.137-.845h.001Z" fill="#fff"/><path d="M24.614 14.744s.146-.598.152-.743c.005-.145-.32-.492-.327-.499l-.235-.205a3.538 3.538 0 0 0-.272-.309.502.502 0 0 0-.296-.14.172.172 0 0 1-.134-.091.85.85 0 0 0-.205-.262c-.128-.11-.317-.159-.425-.178a.17.17 0 0 1-.117-.08.557.557 0 0 0-.374-.264c-.308-.06-.58.093-.586.097-.005-.014-.373-1.2-.453-1.306-.08-.107-.165-.104-.272-.125-.047-.01-.1 0-.143.015a.175.175 0 0 1-.183-.05 1.963 1.963 0 0 1-.087-.101c-.066-.083-.22-.087-.336-.12-.117-.032-.3.048-.3.048s-.008-.022-.118-.144c-.11-.123-.304-.209-.522-.252-.218-.043-.353.111-.353.111l-.01-.032s-.114-.162-.212-.232c-.52-.1-.66.107-.75.373l-.397-.263-.187-.17-4.804-3.613-3.69-2.861S5.733.888 4.702.088c-.072-.057-.232-.147-.369-.034 0 0-.279.174-.298.212-.047.093-.122.213-.004.344.118.132.861 1.353 1.445 2.095.653.83 1.227 1.966 3.037 2.833.21.1.527.284.898.512.083.05.157.116.22.19.027.034.057.068.038.078.059 0-.283.078-.224.074.072-.005.142-.015.213-.028-.501.164-.737.38-.876.487-.178.137-.434.801-.663 1.185-.23.384-.338 1.236-.338 1.236-.056.134-.108.494-.108.494l-.25.027s-.057.36-.054.442c.004.083.31.048.31.048l-.026.182c-.034.129.061.24.061.24s-.102.219-.08.36c.024.143.13.281.13.281s-.064.113-.068.146c-.003.033.256.319.237.402-.018.084.068.151.127.215.052.057-.013.387-.023.55l-.041-.074c-.131-.239-.162-.16-.295-.396l-.03.213c.066.254.332 1.072.332 1.105a97 97 0 0 1-.188 1.276l.038 4.49-1.593 8.08 6.186-5.014-.954 4.199 3.133-5.995-.495-2.009s4.92-.872 5.594-1.303c.486-.31 1.172-1.846 1.243-2.368.02.164.047.29.06.347a.15.15 0 0 0 .023.053.792.792 0 0 1 .127.543c-.038.257.133.53.209.639l-.23-.194c-.275.168-.16.491-.16.491l-.055.098s-.614.521-1.79 1.025c-.741.318-2.114.503-2.295.527a.18.18 0 0 1-.04 0l-1.24-.127-.016.661.642.625a.12.12 0 0 0 .019.015c.123.09 1.444 1.04 1.752 1.04.323 0 2.85-1.445 3.502-1.834.488-.29.954-.775 1.159-1.002a.168.168 0 0 0-.01-.237c-.126-.117-.018-.323.153-.29.216.042.419.06.483 0 .13-.121.399-.59.481-.735a.167.167 0 0 0 .022-.09c-.006-.12-.019-.432.016-.496.034-.061.198-.012.269.012a.166.166 0 0 0 .07.01l.395-.028.253-.2.293-.533-.444-.439h-.002Zm-12.41-8.32.028.01.008.004-.035-.014Zm8.793 7.486a2.549 2.549 0 0 0-.047.778c-.118-.25.03-1.198-.662-1.181-.192.004-.59-.15-1.186.25-.074.036-.595.596-1.068 1.027-.137.068-.948.154-.955.154l-.986-.05-2.036-.3-.438-.107-.656-.658c-.067-.053-.024-.153-.161-.27l.1-.181s.1-.254.194-.482c.058.018.121.042.182.074.316.166.406.39.406.39.004-.079 0-.116 0-.116-.08-.258-.357-.406-.536-.478.081-.202.158-.437.206-.671.087.031.205.078.364.152.312.143.342.26.343.297a.435.435 0 0 0-.09-.275c-.108-.123-.388-.247-.587-.323a5.992 5.992 0 0 1 .272-.942c.058.028.133.066.223.118.226.13.365.256.365.256-.007-.054-.027-.138-.147-.25-.11-.103-.316-.197-.407-.236.027-.098.05-.198.049-.223-.002-.045.093-.17.155-.304.062-.135-.005-.385-.005-.385s.102-.053.17-.125l.097.024c.461.104.78-.105.69-.257a.992.992 0 0 1 .121.05l2.38 1.518.524-.271c-.035.272-.006.553-.017.879-.015.459.598 1.527.772 1.654.173.126.788.002.797 0h.405c.026-.003 1.315-.142 1.169.465v-.001Z" fill="#91CCEF"/><path d="M7.696 10.586v.028s.002-.013 0-.028Z" fill="#19398A"/><path d="M11.563 6.22s1.09.134 1.614.967c.492.78.755 1.873.755 1.873l-.408-.067s-.257-2.254-1.96-2.774h-.002ZM9.047 9.827s.905-.396 1.7-.426c.42-.057.958-.105 1.782-.057.824.048 1.847.297 1.99.309.142.012.227 0 .227 0l-.502-.329s-2.837-.74-5.196.502h-.001ZM11.266 10.6s.643-.042 1.05.004c.436.049.843.147 1.204.302.467.2.697.42.697.42s-.05-.153-.222-.258c-.134-.08-.569-.357-1.456-.51-.253-.035-.525-.091-1.273.042ZM12.797 11.832s.297.014.664.174c.17.057.428.204.473.244a.33.33 0 0 1 .103.16s-.472-.4-1.222-.479l-.018-.099ZM12.63 11.822l.015.073s-.233-.008-.47-.002a5.828 5.828 0 0 0-.472.033v-.084s.596-.05.928-.02ZM12.813 12.715s.366.045.55.178c.183.133.27.245.309.326 0 .045.005.086.005.086s-.119-.19-.311-.31a1.337 1.337 0 0 0-.553-.18v-.1ZM12.636 12.705l.003.086s-.366-.01-.539 0a8.042 8.042 0 0 0-.553.062l.011-.078s.599-.111 1.078-.07ZM8.907 12.743s.34-.288.67-.427a5.407 5.407 0 0 1 1.92-.449v.07s-.838.017-1.77.378c-.266.094-.65.278-.82.427ZM11.38 12.79l-.011.085s-1.13.11-1.806.523c.322-.211.817-.495 1.816-.609h.001ZM18.539 10.004s-.224.04-.376.543c-.125.412-.075.603-.075.603s.466-.376.742-.407c0 0-.045-.317.088-.475 0 0-.199-.323-.379-.265ZM19.405 10.28a.269.269 0 0 0-.35.07c-.04.07-.036.293-.02.359 0 0 .364-.081.596-.047-.07-.224-.138-.329-.227-.383ZM18.24 11.527l-.084.097s.049.458.232.905l.06.124s.182-.153.321-.208c-.1-.46-.112-1.11-.08-1.187 0 0-.082-.011-.293.131a.809.809 0 0 0-.155.138ZM18.813 11.23s.296.89.349.98c.115-.074.69-.268 1.055-.245.104-.034.163-.387.112-.57-.051-.184-.152-.296-.258-.31-.107-.012-.651-.079-1.258.145ZM19.326 13.98s.245-.207.501-.16c.256.046-.053 1.007-.34 1.49-.288.484-.394.509-.63.579-.856.251-1.779.118-1.779.118l.224-.632s.586.07.98-.234c.309-.237.814-1.031 1.045-1.162h-.001ZM9.21 14.708s.584-.301 1.265-.191c.682.11 1.48.66 1.48.66l-.895.828 2.328-1.077.928.055.145-.09s-1.28-.162-3.026-.55c-.793-.176-1.365-.275-2.224.364Z" fill="#fff"/><path d="m14.386 14.94-2.69 1.72 1.707-1.851.983.13ZM16.635 15.282l-.769-.083-.543-.097-1.514.848-1.567.773s.917-.239 1.814-.678c.783-.385 1.06-.583 1.06-.583-.546.978-1.359 1.924-1.359 1.924 1.545-.968 2.878-2.104 2.878-2.104ZM18.672 13.095s.095.14.243.15c.146.009.472-.193.754-.215.282-.022.618-.08.618-.08s.005-.435-.123-.587c0 0-.708.07-1.492.732ZM22.206 12.093s.18.067.37.356c.068.104.016.581-.022.662-.038.081-.469-.128-.49-.233-.022-.105.078-.617 0-.75-.079-.132.142-.036.142-.036v.001ZM22.757 12.606s-.064.734-.07.922c-.005.189.251.446.331.414.08-.03.123-.257.123-.257s.106.005.106.26c0 .253.016.437.203.463.187.027.426-.178.463-.309.037-.131.192-.775-.058-.901s-.448-.068-.448-.068-.096-.461-.282-.524c-.187-.063-.35-.102-.368 0ZM24.164 13.578s.187.034.35.237c.165.203 0 .625 0 .625s-.35.22-.393-.058c-.042-.28.043-.804.043-.804ZM12.844 11.008s.273.006.307.113c.032.107-.023.707-.023.707l-.233-.05s-.007-.665-.051-.77ZM12.906 12.098s.037.003.087.015a.725.725 0 0 1 .093.029s-.026.237-.137.507c-.017-.195-.043-.551-.043-.551ZM13.582 7.24l2.831 2.225-2.785-1.826-.362-.643.316.243ZM22.097 13.756s.115.143 0 .264c-.115.12-.506.546-.548.686-.043.14-.078.258 0 .412.078.154.192.37.185.42-.007.048-.212.146-.299-.07-.085-.217-.299-1.165 0-1.558.3-.394.662-.154.662-.154ZM12.588 11.613s-.047-.17-.175-.223a15.429 15.429 0 0 1-.046-.566l.22.789Z" fill="#fff"/><path d="M12.239 12.575a2.174 2.174 0 0 1-.544-.122l.286.218h.419l.119-.085s-.206-.003-.28-.01Z" fill="#19398A"/><path d="m4.533.166 7.507 5.893s-.65-.365-1.448-.27c0 0-3.289-2.337-4.902-3.912C4.643.854 4.156.314 4.156.314s.08-.066.18-.13c.065-.042.06-.048.146-.041.019.002.037.01.052.023Z" fill="#fff"/><path d="M18.203 11.457s.886-.783 2.368-.36c0 0-.02-.165-.175-.215-.154-.05-1.22-.305-1.935.152-.258.151-.237.297-.258.422ZM22.689 12.461c.44 0 .56-.06.77.53.302 0 .548.115.625.499.258 0 .594.214.634.8.193-.138.197-.81-.414-1.04-.142-.259-.458-.707-.817-.595-.028-.194-.317-.672-.693-.508-.08-.18-.412-.275-.653-.18 0 0 .43.099.547.494ZM12.51 11.528c-.054-.079-.112-.135-.187-.113-.255.075-.464.307-.464.307s.279.005.43 0c.207-.008.279.014.279.014s0-.122-.058-.207v-.001ZM8.598 9.05a.162.162 0 0 0-.188.039l-.129.143.003.167.11-.08.257.095.037-.19a.159.159 0 0 0-.09-.174ZM8.145 11.712l.446-.272.028-.55-.107.067-.59.374.223.38ZM14.772 9.804a.234.234 0 0 0 .057-.05c-.085.027-.279.018-.589-.053-.94-.216-1.064-.201-1.064-.201-.145-.016-.337-.03-.61-.05-.934-.069-1.633-.006-2.537.138-.449.072-1.088.407-1.088.407-.035.184-.136 1.361-.136 1.361s.611-.339 1.17-.506a.77.77 0 0 1 .093-.562l.136-.027s.688-.137.798-.095c.03.01.053.031.071.055a1.07 1.07 0 0 0-.213.034l-.697.178.67.112a.536.536 0 0 0 .233.026c.094-.009.135-.015.135-.015s.094-.021.175-.036h.01a4.2 4.2 0 0 1 .503-.032c.139 0 .41.005.493.014.36.042.767.143.767.143s-.09-.132-.238-.255c-.098-.082-.303-.198-.303-.198s.21.013.339.04c.157.032.182.156.226.237a.955.955 0 0 1 .077.24l.435.172.017.007s.063-.033.133-.087c.06.033.136.08.162.124.02.035.029.085.027.136.028.02.054.04.076.06.01.008.017.017.025.025a.39.39 0 0 0 .044-.153c0-.08-.175-.204-.256-.256l.024-.023c.102-.103.224-.27.232-.345a1.025 1.025 0 0 0 0-.192.395.395 0 0 1 .04-.057c.078-.092.378-.194.563-.314v-.002Z" fill="#19398A"/><path d="M24.865 15.18s-.158.113-.304.357a.745.745 0 0 0-.11.269c-.045-.003-.106.019-.15.02-.509.006-.692-.158-.748-.164-.52-.372-1.39-.995-1.412-1.028-.03-.048.093-.196.225-.344.038.304.374.32.374.32s.045.286.323.41c.295.132.491-.028.491-.028l.233.127c.316.145.646-.05.698-.165.051-.115 0-.293 0-.293-.491.203-.598-.394-.598-.394s-.242.432-.553.305c-.31-.128-.16-.655-.16-.655-.102.229-.261.198-.445.049-.155-.124-.247-.254-.118-.818-.078.242-.452.026-.633-.158-.09-.091-.118-.316-.12-.518.058-.02.1-.058.106-.125.03-.335-.476-1.318-.591-1.538 0 0-.008-.017-.023-.041l-.003-.005c-.053-.084-.199-.245-.474-.112-.139-.177-.487-.403-.796-.271-.119-.137-.542-.6-1.016-.304 0 0-.168-.328-.528-.22 0 0 .406.163.467.447.125-.108.282-.171.519-.116.236.056.407.288.5.445.102-.061.484-.148.798.256.162-.151.35-.148.536-.085.035.191.184 1.027.184 1.206 0 .202-.357.15-.357.15s.068.484 0 .808c-.032.15-.164.237-.297.29a1.237 1.237 0 0 0-.362-.176c-.162-.047-.373-.023-.578.028-.372-.01-.636.142-.768.175l-.027.006-.039.007c-.109.02-.224.03-.253.032a.182.182 0 0 1-.08-.012c-.144-.083-.208-.223-.208-.223s.958-1.047 2.434-.864c-.039-.072-.161-.133-.24-.144-.006-.127-.047-.613-.292-.76 0 0 .067.652-.192.735 0 0-.581-.026-1.18.291l-.348-.709s-.02.47.09.843c-.159.089-.291.177-.464.304-.206-.448-.415-1.073-.402-1.714.01-.46.188-1.01.474-1.213-.286.04-.306.083-.507.549a1.813 1.813 0 0 0-.087.263l-.28-.166s-.13.107-.204.266c-.006-.32.076-.58.293-.787l-.102-.092s-.287.096-.321.401c-.038.33-.09.294-.09.294s-.097-.125-.09-.307c.006-.161.157-.422.415-.465L5.252.503l.034.176L16.8 9.585l-.183.178s-.635-.385-1.599-.99L13.5 7.806c.26.573.43 1.254.43 1.254.562.32.936.592.936.592 1.146.695 2.002 1.237 2.002 1.237l.46.296.41.295c-.02.545.142 1.34.3 1.63.165.303.377.56.549.64.168.08.381.004.39 0 .03.01.061.017.092.021-.062.058-.13.128-.166.165 0 0-.34.354-.66.607-.319.253-.419.266-.749.327-.329.06-.805.013-1.255-.016-.13-.009-.487-.019-.487-.019l-.182.219s.179.044.562.073c.237.018.469.044.69.064-.677.869-1.782 1.605-1.782 1.605.764-.293 1.14-.488 1.472-.706-.266.294-.513.595-.748.904-.258.337-.537.776-.835 1.318-.041.076-3.761.48-3.927.496.162-.118 1.038-.589 1.478-.939.912-.724 1.704-1.346 1.982-1.939-1.404 1.006-1.982 1.327-4.892 1.977.051-.143.526-.494.805-.709 1.428-1.104 1.13-.873 2.049-1.612-.792.38-1.87.886-2.53 1.203.194-.178.223-.194.356-.303.201-.166.404-.33.603-.498.208-.176.412-.358.729-.633-.39-.253-1.451-.939-2.965-.166.299-.558 1.153-1.401 2.813-1.034.396.088.886.236 1.597.39.358.077.72.136 1.08.203l.72.112a85.414 85.414 0 0 0-2.633 1.682s3.132-1.431 3.37-1.735l-.525-.077-.383-.056h.001c-.19-.024-.81-.172-1.014-.211l-.552-.612.169-.1s.636-.457.716-.628a.399.399 0 0 0 .09-.258.275.275 0 0 0-.046-.163c.032-.044.054-.088.048-.125v-.001l-.003-.04v.013-.025c-.008-.047-.06-.156-.342-.286a3.073 3.073 0 0 0-.53-.204 5.842 5.842 0 0 0-.393-.08 11.853 11.853 0 0 0-.245-1.159 3.5 3.5 0 0 1 .524.121c.062.02.117.04.174.06.004.144.006.507-.04.899.048.015.13.044.223.082l.051-.187.072.238c.06.026.12.055.176.084l-.003-.07s-.007-.013.061-.07c.026-.02.082-.074.142-.134.002.077.005.258-.012.395a.333.333 0 0 1 .086.097c.02-.134.052-.404.04-.606l.026-.025a.17.17 0 0 0 .121-.074.303.303 0 0 0 .051-.235 2.616 2.616 0 0 0-.604-.381c-.071-.03-.539-.222-.78-.277-.26-.06-.78-.155-1.325-.093-.518.058-1.098.162-1.478.309-.38.145-.673.214-1.251.534-.107.06-.175.239-.175.239l.178-.096-.073.372v.001l-.314.57s.075.154.21.377c.055-.08.382-.316.43-.35 0 0 .401-.3.938-.465.448-.138.67-.188.67-.188-.476-.458-.668-.778-.684-.802a6.07 6.07 0 0 1 1.511-.345c.02-.002.041-.003.061-.006l-.018 1.187a6.56 6.56 0 0 0-.87.125c-.72.162-1.171.374-1.417.517-.246.142-.565.42-.565.42l.044.068.74.286s.409-.217.508-.263c.259-.117.733-.232.946-.27 0 0-.272-.222-.327-.28a3.11 3.11 0 0 1-.254-.297c.328-.127 1.023-.2 1.188-.21-.015.123-.075.578-.137.843-.089.014-.18.029-.286.043a5.642 5.642 0 0 0-1.314.38c-.18.081-.28.15-.322.18l-.174-.04-.821-.374a1.79 1.79 0 0 1-.152-.273l.028-.497.276-.614-.48.275-.07-.117-.375-.613.166-.111.766-.465.018-.545c-.198.083-.72.418-.809.521a.78.78 0 0 0-.03.04l-.026-.209.047-.045c.129-.12.85-.56.85-.56l.034-.328c-.002.017-.017.067-.111.105-.116.047-.302.018-.453.02-.259.002-.337.354-.337.354l-.05.313-.065-.05c.015-.19.037-.407.072-.492.065-.162.4-.336.4-.336s-.014-.247.102-.378c.116-.131.231-.186.231-.186s.264-.088.4.075c0 0 .065.133.05.333-.023.313-.023.391-.023.391s.201-.157.632-.332c.036-.217.191-1.316-.221-2.106 0 0 .444.421.502 1.241.036.52.018.683.016.754A5.387 5.387 0 0 1 10.876 9c1.732-.202 2.354-.052 2.354-.052s-.18-1.645-1.034-2.191c-.884-.647-2.253-.504-2.253-.504s.145-.096.597-.162c.587-.084 1.31.061 1.31.061-.303-.147-.71-.282-1.324-.256-1.145-.799-2.219-1.593-3.013-2.27C4.532 1.09 4.04.266 4.04.266s-.169.173-.02.44c.149.267 1.804 2.837 2.662 3.723.603.623 1.511 1.185 2.496 1.828a2.558 2.558 0 0 0-.442.302s-.68.326-.97 1.168c-.177.517-.115 2.01-.115 2.01s-.215.014-.24.065c-.025.051-.077.41-.075.477.002.066.024.165.091.217l-.001.003.009.533.02.423.277.503a3.233 3.233 0 0 0-1.83.336c-1.297.659-1.425 1.307-2.471.791 0 0 .29.986 1.8.694 0 0-.212.672-1.063 1.028-.411.172-1.582.178-1.582.178s1.072.604 2.287.543c-.414.275-1.362.444-1.362.444 1.824.772 3.094-.387 3.498-1.028.215-.34.46-.573.687-.733.046.108.083.14.098.169-1.59 1.557-1.732 3.892-1.787 5.883-.213 1.609.258 7.087.258 7.087l6.644-7.569c-.06.489-.204 1.113-.288 1.404-.495 1.662-3.163 6.077-3.163 6.077.92-.903 2.978-3.813 4.126-5.63-.162.464-.91 5.06-.91 5.06.526-2.197 2.212-5.204 2.479-5.885.176-.449-.106-1.163-.32-1.599.607.448 1.83 1.288 2.737 1.504-.277.46.073.862.508.745.485-.13 3.574-2.241 3.942-2.533.31-.244.405-.629.428-.748a.227.227 0 0 0 .072-.008c.13-.05.828-.864.905-.902.041-.02.039-.093.027-.157.13-.082.286-.379.4-.643.142-.33.084-.53.084-.53.083.03.222.055.327.05a.813.813 0 0 1 .282.023s.038-.027.054-.034c.155-.068.425-.413.48-.588.06-.187-.053-.31-.215-.205v-.002Zm-10.878-2.224c-.022.078-.146.12-.19.134a6.03 6.03 0 0 0 .002-.18c.022-.017.056-.045.094-.078.045.02.111.06.094.123Zm-.055-.518a.28.28 0 0 1-.14.222 2.222 2.222 0 0 0-.037-.32c.054.027.123.062.177.098Zm.072-1.1.063.046s.054.033.048.097c-.003.034-.047.083-.088.121l-.062-.216.039-.047Zm-.321.546-.071-.213c.092-.063.195-.137.268-.199l.042.225c-.1.084-.238.187-.238.187h-.001Zm-.058-.755c.117.055.21.106.28.148a9.412 9.412 0 0 1-.355.244c.037-.153.067-.298.076-.39v-.002Zm-.822.917c.096.013.332.073.373.086a2.937 2.937 0 0 1-.148.583c.034.01.09.028.155.056.09-.207.164-.476.19-.575l.27.094c.012.09.041.341.05.591.004.12-.01.22-.029.298a.48.48 0 0 1 .023.058s.004.036 0 .117c0 0-.09-.226-.406-.392a1.262 1.262 0 0 0-.305-.107s-.073-.017-.183-.03l.01-.778v-.001Zm-.013.873c.04.005.083.012.129.022-.022.09-.113.252-.197.391.036-.167.061-.358.068-.413Zm-1.097-2.16c.2-.013.437-.016.703.013.036.123.092.322.127.486.068.317.126.582.148.678l-.02-.002a7.513 7.513 0 0 0-.982.013c.006-.197.02-.924.024-1.187Zm-.03 1.286a8.015 8.015 0 0 1 1.016-.014v.127a.398.398 0 0 0-.137-.043c-.065-.008-.094.05-.26.003-.105-.03-.21-.055-.416.082-.142.095-.155.142-.155.142s.502.056.656.056c.159 0 .256-.013.312-.025l-.001.44a5.612 5.612 0 0 0-1.151.061c.034-.176.12-.63.136-.829Zm-.29.948c-.049.178-.118.394-.164.53l-.17-.429-.02-.044c.124-.022.242-.04.354-.057Zm-1.606.45.889.183.51.028s.1.052.202-.178c.082-.187.126-.42.14-.502.672-.085 1.097-.066 1.097-.066h.07a3.88 3.88 0 0 1-.055.382l-1.13.017s-.014.084-.043.153a.798.798 0 0 1-.08.143s.974.004 1.223-.03h.012l.036-.005.162-.014c.129-.184.235-.446.282-.567.089.033.182.078.271.141a.86.86 0 0 1 .19.178c-.178.151-.431.347-.675.469-.52.008-.984.008-1.576.01-.227.002-.433-.005-.629-.014l-1.052-.244c.04-.023.089-.052.156-.086v.002Zm7.317 5.646c-.193.035-.38.066-.551.087a.411.411 0 0 1-.338-.115h-.002c-.264-.26 0-.326 0-.326l.975-.19a2.85 2.85 0 0 0-.085.544h.001Zm.369-1.873s-.566.03-1.056-.103c.215-.53.457-1.105.636-1.545.073-.136.113-.266.136-.353.37.018.685-.007.891-.155.315-.226 1.017-1.02 1.249-1.287.104-.01.179-.03.179-.03.244-.055.357-.077.448-.082.037.002.468.028.635.213l.005.005c.187.209.248.488.238.765-.038 1.07-1.06 2.316-1.221 2.347-.176.034-.606.238-2.14.225Zm.307 1.73a1.84 1.84 0 0 1 .09-.532l.279-.054c.006 0 .01-.002.01-.002s.605-.11 1.401-.469c-.012.14-.014.317.018.5-.618.234-1.23.421-1.797.558Zm.256.761 1.564-1.212c.06.236.184.468.424.63a25.67 25.67 0 0 1-1.988.582Zm3.731-1.26c-.297.135-.602.261-.906.378-.329-.174-.779-.544-.679-1.252.248-.14.504-.306.757-.498.147.257.451.533.451.533s.207-.56.052-.674c-.155-.114-.398-.546-.398-.546s-.146.152-.181.432a.252.252 0 0 0 .004.071c-.188.118-1.378.848-2.479 1.127l1.228-.54c.156-.034 1.008-.58 1.349-2.026.077.182.162.372.127.569-.066.37.44.773.815 1.04-.285.076-.453.775-.375.864.05.058.406.164.685.217-.102.065-.276.179-.45.305Zm1.187-1.318c-.22-.046-.917-.538-1.253-.73-.336-.19-.35-.559-.35-.673 0-.063-.05-.176-.107-.31a2.971 2.971 0 0 1-.097-.733c.011-.322.078-.552.135-.694.136-.33.358-.462.516-.515.06.094.134.149.225.13.342-.072.293.323.234.407-.162.187-.443.405-.557.66-.142.318.13.56.246.866.116.306 1.116 1.078 1.116 1.078l.06-.657.246 1.105a.523.523 0 0 1-.414.065v.001Z" fill="#19398A"/><path d="m12.814 5.305.08.027c2.15.914 3.647 2.171 4.657 3.583l.35.266c.111-.046.239-.08.384-.1l.08-.011a1.219 1.219 0 0 1 .848.123c.04-.004.08-.005.12-.005.24 0 .6.065.98.364.317.02.573.141.753.259.358.013.68.193.889.496l.029.038.025.05.024.043.02.04c.067.129.197.382.322.662.154.007.3.04.438.09-.837-2.514-2.581-5.326-6.147-6.925-2.398-1.075-4.585-1.249-6.455-.985l2.603 1.983v.002Z" fill="url(#a)"/><path d="M5.221 24.663c-2.915-1.189-4.58-3.257-4.58-3.257.86 2.138 2.584 3.846 4.695 4.958-.035-.476-.077-1.067-.115-1.701Z" fill="url(#b)"/><path d="M22.472 19.54c-.127.102-3.491 2.48-4.234 2.68-.12.032-.242.049-.362.049-.352 0-.673-.134-.905-.369a11.48 11.48 0 0 1-2.506 2.098c-.432.956-.85 1.995-1.06 2.876l-.155.713a10.357 10.357 0 0 0 2.788-.958 14.23 14.23 0 0 0 6.715-7.367c-.08.097-.171.192-.28.279Z" fill="url(#c)"/><path d="M3.595 6.523c.79-.486 1.718-.94 2.752-1.266a5.802 5.802 0 0 1-.44-.437c-1.475.843-2.313 1.703-2.313 1.703Z" fill="url(#d)"/><path d="M5.516 4.35a17.667 17.667 0 0 1-.352-.46C.216 5.578 0 10.97 0 10.97c1.234-3.715 3.634-5.642 5.516-6.62Z" fill="url(#e)"/><path d="M5.104 21.086C-.094 18.843.008 13.562.04 12.946c-.406 5.746 2.445 8.281 5.073 9.4a28.116 28.116 0 0 1-.007-1.261Z" fill="url(#f)"/><path d="m.04 12.942.003-.06-.004.06Z" fill="url(#g)"/><path d="M1.788 23.423c-.028-.04-.059-.079-.085-.118 0 0 .028.042.085.118Z" fill="url(#h)"/><path d="M23.073 18.708c-.098.25-.278.575-.6.83-.038.03-.37.266-.832.587a12.754 12.754 0 0 1-2.523 3.421c-1.566 1.527-3.524 2.567-5.648 3.076a7.267 7.267 0 0 0-.065.25l-.202.931c1.955-.247 3.87-.97 5.517-2.301 2.784-2.252 4.038-4.758 4.544-6.975a3.19 3.19 0 0 1-.191.181Z" fill="url(#i)"/><path d="M5.303 25.978c-2.158-.917-3.228-2.17-3.522-2.556.812 1.163 2.058 2.184 3.551 2.958l-.03-.402Z" fill="url(#j)"/><path d="M.93 14.241c.097-1.557.6-4.204 2.751-5.968.964-.79 2.074-1.328 3.678-1.563.12-.166.246-.306.37-.422-.605-.402-1.208-.833-1.672-1.312l-.014-.015c-1.992.81-3.752 2.486-4.92 5.287-.524 1.528-.59 2.856-.451 3.974l.258.02Z" fill="url(#k)"/><path d="M17.9 9.186c.016-.007.035-.011.05-.017-.684-1.229-1.721-2.364-3.265-3.246a12.361 12.361 0 0 0-2.482-1.08L17.9 9.187Z" fill="url(#l)"/><path d="m.922 15.492.006.023-.002-.02-.004-.003Z" fill="url(#m)"/><path d="m2.018 14.296.11.001c.327 0 .61-.044.818-.126-.708-.847-.544-2.054-.536-2.11l.099-.685.368.59c.013.021.345.53.965.53.052 0 .106-.003.16-.01.252-.034.43-.16.675-.335l.065-.047c.31-.22.756-.455 1.176-.634a4.93 4.93 0 0 1 .586-1.011 1.142 1.142 0 0 1-.017-.155c-.002-.072.034-.609.16-.855a.833.833 0 0 1 .143-.2c-.003-.599.024-1.352.168-1.774.186-.54.487-.927.767-1.19a21.59 21.59 0 0 1-.519-.355C2.83 7.03.472 10.785.712 14.223c.286.021.832.06 1.306.073Z" fill="url(#n)"/><path d="M5.159 20.206c.012-.427.031-.862.064-1.297a6.585 6.585 0 0 1-1.592-2.032 3.56 3.56 0 0 1-.485-.178c-1.195-.542-1.896-.98-2.224-1.207l.004.02c.755 2.75 2.534 4.207 4.205 5 .008-.11.017-.214.028-.306Z" fill="url(#o)"/><path d="M9.407 2.708c4.083.03 10.107 1.403 13.277 8.482.059.015.116.034.171.056-.187-1.475-1.327-6.434-8.252-8.793A13.769 13.769 0 0 0 8.61 2.1l.799.608Z" fill="url(#p)"/><path d="M17.311 2.817c3.742 2.173 5.398 5.799 6.132 8.644.199.102.378.258.523.463l.026.011c-.708-6.034-4.594-9.244-7.238-10.414C13.174-.063 9.982.569 9.266.9 10.804.795 13.77.758 17.31 2.815v.001Z" fill="url(#q)"/><defs><linearGradient id="i" x1="22.466" y1="12.882" x2="14.317" y2="33.248" gradientUnits="userSpaceOnUse"><stop offset=".24" stop-color="#EC297B"/><stop offset=".43" stop-color="#D32D80"/><stop offset=".81" stop-color="#96388F"/><stop offset="1" stop-color="#773E97"/></linearGradient><linearGradient id="q" x1="8.445" y1=".723" x2="24.609" y2="9.132" gradientUnits="userSpaceOnUse"><stop stop-color="#EB008B"/><stop offset=".2" stop-color="#ED1878"/><stop offset=".62" stop-color="#F25549"/><stop offset=".98" stop-color="#F78F1E"/></linearGradient><linearGradient id="p" x1="20.637" y1="13.513" x2="13.452" y2="1.95" gradientUnits="userSpaceOnUse"><stop offset=".24" stop-color="#EC297B"/><stop offset=".43" stop-color="#D32D80"/><stop offset=".81" stop-color="#96388F"/><stop offset="1" stop-color="#773E97"/></linearGradient><linearGradient id="m" x1="-.75" y1="16.211" x2="22.73" y2="6.399" gradientUnits="userSpaceOnUse"><stop offset=".24" stop-color="#EC297B"/><stop offset=".43" stop-color="#D32D80"/><stop offset=".81" stop-color="#96388F"/><stop offset="1" stop-color="#773E97"/></linearGradient><linearGradient id="e" x1="0" y1="7.431" x2="5.516" y2="7.431" gradientUnits="userSpaceOnUse"><stop stop-color="#EB008B"/><stop offset=".2" stop-color="#ED1878"/><stop offset=".62" stop-color="#F25549"/><stop offset=".98" stop-color="#F78F1E"/></linearGradient><linearGradient id="f" x1="-1.908" y1="13.142" x2="11.943" y2="29.747" gradientUnits="userSpaceOnUse"><stop offset=".24" stop-color="#EC297B"/><stop offset=".43" stop-color="#D32D80"/><stop offset=".81" stop-color="#96388F"/><stop offset="1" stop-color="#773E97"/></linearGradient><linearGradient id="g" x1="-.68" y1="12.098" x2="13.101" y2="29.059" gradientUnits="userSpaceOnUse"><stop offset=".24" stop-color="#EC297B"/><stop offset=".43" stop-color="#D32D80"/><stop offset=".81" stop-color="#96388F"/><stop offset="1" stop-color="#773E97"/></linearGradient><linearGradient id="h" x1="8.411" y1="7.258" x2=".261" y2="27.623" gradientUnits="userSpaceOnUse"><stop offset=".24" stop-color="#EC297B"/><stop offset=".43" stop-color="#D32D80"/><stop offset=".81" stop-color="#96388F"/><stop offset="1" stop-color="#773E97"/></linearGradient><linearGradient id="l" x1="-1.59" y1="13.892" x2="19.974" y2="4.678" gradientUnits="userSpaceOnUse"><stop offset=".24" stop-color="#EC297B"/><stop offset=".43" stop-color="#D32D80"/><stop offset=".81" stop-color="#96388F"/><stop offset="1" stop-color="#773E97"/></linearGradient><linearGradient id="j" x1="10.511" y1="8.099" x2="2.362" y2="28.465" gradientUnits="userSpaceOnUse"><stop offset=".24" stop-color="#EC297B"/><stop offset=".43" stop-color="#D32D80"/><stop offset=".81" stop-color="#96388F"/><stop offset="1" stop-color="#773E97"/></linearGradient><linearGradient id="k" x1="-2.381" y1="12.025" x2="19.183" y2="2.811" gradientUnits="userSpaceOnUse"><stop offset=".39" stop-color="#EC297B"/><stop offset=".54" stop-color="#D32D80"/><stop offset=".85" stop-color="#96388F"/><stop offset="1" stop-color="#773E97"/></linearGradient><radialGradient id="b" cx="0" cy="0" r="1" gradientUnits="userSpaceOnUse" gradientTransform="matrix(32.7513 0 0 32.2042 5.768 33.184)"><stop stop-color="#EB008B"/><stop offset=".2" stop-color="#ED1878"/><stop offset=".62" stop-color="#F25549"/><stop offset=".98" stop-color="#F78F1E"/></radialGradient><radialGradient id="d" cx="0" cy="0" r="1" gradientUnits="userSpaceOnUse" gradientTransform="matrix(3.77428 0 0 3.71123 4.085 6.532)"><stop stop-color="#EB008B"/><stop offset=".2" stop-color="#ED1878"/><stop offset=".62" stop-color="#F25549"/><stop offset=".98" stop-color="#F78F1E"/></radialGradient><radialGradient id="n" cx="0" cy="0" r="1" gradientUnits="userSpaceOnUse" gradientTransform="matrix(14.317 0 0 14.0778 17.516 9.454)"><stop stop-color="#EB008B"/><stop offset=".13" stop-color="#EB0884"/><stop offset=".32" stop-color="#ED1E73"/><stop offset=".57" stop-color="#F04258"/><stop offset=".85" stop-color="#F47431"/><stop offset=".98" stop-color="#F78F1E"/></radialGradient><radialGradient id="o" cx="0" cy="0" r="1" gradientUnits="userSpaceOnUse" gradientTransform="matrix(14.317 0 0 14.0778 14.421 10.676)"><stop stop-color="#EB008B"/><stop offset=".2" stop-color="#ED1878"/><stop offset=".62" stop-color="#F25549"/><stop offset=".98" stop-color="#F78F1E"/></radialGradient><radialGradient id="c" cx="0" cy="0" r="1" gradientUnits="userSpaceOnUse" gradientTransform="matrix(32.7513 0 0 32.2042 5.76 33.186)"><stop stop-color="#EB008B"/><stop offset=".2" stop-color="#ED1878"/><stop offset=".62" stop-color="#F25549"/><stop offset=".98" stop-color="#F78F1E"/></radialGradient><radialGradient id="a" cx="0" cy="0" r="1" gradientUnits="userSpaceOnUse" gradientTransform="matrix(32.7513 0 0 32.2042 5.763 33.184)"><stop stop-color="#EB008B"/><stop offset=".18" stop-color="#EB0388"/><stop offset=".35" stop-color="#EC0E80"/><stop offset=".5" stop-color="#ED2072"/><stop offset=".65" stop-color="#EF3A5E"/><stop offset=".8" stop-color="#F25B45"/><stop offset=".94" stop-color="#F68326"/><stop offset=".98" stop-color="#F78F1E"/></radialGradient></defs></svg>